SplineFontDB: 3.0
FontName: Pelagiad
FullName: Pelagiad
FamilyName: Pelagiad
Weight: Regular
Copyright: Copyright Isak Larborn. Licensed under the SIL Open Font License.
UComments: "2015-2-24: Created with FontForge (http://fontforge.org)"
Version: 1.0
ItalicAngle: 0
UnderlinePosition: -50
UnderlineWidth: 25
Ascent: 849
Descent: 175
InvalidEm: 0
LayerCount: 2
Layer: 0 1 "Back" 1
Layer: 1 1 "Fore" 0
XUID: [1021 550 254111602 2708]
FSType: 0
OS2Version: 0
OS2_WeightWidthSlopeOnly: 0
OS2_UseTypoMetrics: 1
CreationTime: 1424795239
ModificationTime: 1426959069
PfmFamily: 17
TTFWeight: 400
TTFWidth: 5
LineGap: 92
VLineGap: 0
OS2TypoAscent: 849
OS2TypoAOffset: 0
OS2TypoDescent: -175
OS2TypoDOffset: 0
OS2TypoLinegap: 92
OS2WinAscent: 849
OS2WinAOffset: 0
OS2WinDescent: 175
OS2WinDOffset: 0
HheadAscent: 849
HheadAOffset: 0
HheadDescent: -175
HheadDOffset: 0
OS2CapHeight: 0
OS2XHeight: 0
OS2Vendor: 'PfEd'
Lookup: 258 0 0 "'kern' Horizontal Kerning in Latin lookup 0" { "'kern' Horizontal Kerning in Latin lookup 0-1" [153,15,0] "'kern' Horizontal Kerning in Latin lookup 0-2" [153,15,0] "'kern' Horizontal Kerning in Latin lookup 0-3" [153,15,0] "'kern' Horizontal Kerning in Latin lookup 0-4" [153,15,0] "'kern' Horizontal Kerning in Latin lookup 0-5" [153,15,0] "'kern' Horizontal Kerning in Latin lookup 0-6" [153,15,0] } ['kern' ('DFLT' <'dflt' > 'latn' <'dflt' > ) ]
MarkAttachClasses: 1
DEI: 91125
KernClass2: 1+ 2 "'kern' Horizontal Kerning in Latin lookup 0-6"
 94 a h m n u agrave aacute acircumflex atilde adieresis aring ugrave uacute ucircumflex udieresis
 9 m n p v w
 0 {} -13 {}
KernClass2: 1+ 2 "'kern' Horizontal Kerning in Latin lookup 0-5"
 3 A R
 7 m n p r
 0 {} -67 {}
KernClass2: 2 2 "'kern' Horizontal Kerning in Latin lookup 0-4"
 1 T
 27 agrave egrave ograve ugrave
 0 {} 0 {} 0 {} -65 {}
KernClass2: 2 2 "'kern' Horizontal Kerning in Latin lookup 0-3"
 1 T
 55 a g m n p r x aacute acircumflex atilde adieresis aring
 0 {} 0 {} 0 {} -77 {}

StartChar: o
Encoding: 111 111 0
Width: 452
VWidth: -3
Flags: W
HStem: -11 69<221.19 319.092> 324 69<133.948 245.324>
VStem: 30 93<174.285 301.937> 326 94<94.0215 249>
LayerCount: 2
Back
Fore
SplineSet
326 122 m 0,0,1
 326 191 326 191 282.5 257.5 c 128,-1,2
 239 324 239 324 194.5 324 c 128,-1,3
 150 324 150 324 136.5 312 c 128,-1,4
 123 300 123 300 123 262 c 0,5,6
 123 190 123 190 178 124 c 128,-1,7
 233 58 233 58 271 58 c 128,-1,8
 309 58 309 58 317.5 69 c 128,-1,9
 326 80 326 80 326 122 c 0,0,1
378 55 m 128,-1,11
 336 -11 336 -11 250 -11 c 135,-1,12
 164 -11 164 -11 97 51.5 c 128,-1,13
 30 114 30 114 30 188 c 0,14,15
 30 295 30 295 83 344 c 128,-1,16
 136 393 136 393 232 393 c 0,17,18
 302 393 302 393 361 333.5 c 128,-1,19
 420 274 420 274 420 224 c 0,20,10
 420 121 420 121 378 55 c 128,-1,11
EndSplineSet
Validated: 1
EndChar

StartChar: n
Encoding: 110 110 1
Width: 535
VWidth: -3
Flags: W
HStem: -14 21G<110 138.5 351 367.5> 321 78<246.939 362.5> 331 69<59.3159 84.3354>
VStem: 110 100<30.9569 304.497> 373 89<74.3832 282.524>
LayerCount: 2
Back
Fore
SplineSet
26 344.5 m 128,-1,1
 26 358 26 358 61.5 379 c 128,-1,2
 97 400 97 400 113.5 400 c 128,-1,3
 130 400 130 400 160.5 385.5 c 128,-1,4
 191 371 191 371 205 343 c 1,5,6
 236 373 236 373 264 386 c 128,-1,7
 292 399 292 399 339 399 c 128,-1,8
 386 399 386 399 416 367.5 c 128,-1,9
 446 336 446 336 454 301 c 128,-1,10
 462 266 462 266 462 192 c 128,-1,11
 462 118 462 118 447 73 c 1,12,13
 495 101 495 101 507 101 c 0,14,15
 527 101 527 101 527 69 c 0,16,17
 527 55 527 55 450.5 20.5 c 128,-1,18
 374 -14 374 -14 361 -14 c 2,19,-1
 351 -14 l 1,20,21
 373 70 373 70 373 160.5 c 131,-1,22
 373 251 373 251 348.5 286 c 128,-1,23
 324 321 324 321 270 321 c 0,24,25
 254 321 254 321 246 316.5 c 128,-1,26
 238 312 238 312 228 304 c 128,-1,27
 218 296 218 296 210 290 c 5,28,-1
 210 103 l 5,29,30
 208 66 208 66 184 24.5 c 128,-1,31
 160 -17 160 -17 117 -17 c 2,32,-1
 110 -17 l 1,33,-1
 110 153 l 2,34,35
 110 272 110 272 90 301 c 0,36,37
 70 331 70 331 48 331 c 128,-1,0
 26 331 26 331 26 344.5 c 128,-1,1
EndSplineSet
Validated: 8388609
EndChar

StartChar: c
Encoding: 99 99 2
Width: 410
VWidth: -3
Flags: W
HStem: -19 67<194.676 311.373> 310 73<160.569 275.883>
VStem: 30 102<109.219 278.232>
LayerCount: 2
Back
Fore
SplineSet
384 97 m 1,0,1
 354 37 354 37 335 21 c 0,2,3
 310 0 310 0 293 -6 c 0,4,5
 256 -19 256 -19 216 -19 c 0,6,7
 131 -19 131 -19 80.5 41.5 c 128,-1,8
 30 102 30 102 30 192.5 c 128,-1,9
 30 283 30 283 83 333 c 128,-1,10
 136 383 136 383 231 383 c 0,11,12
 295 383 295 383 334.5 362.5 c 128,-1,13
 374 342 374 342 374 317 c 0,14,15
 374 303 374 303 364 290 c 128,-1,16
 354 277 354 277 345 271 c 128,-1,17
 336 265 336 265 316 253 c 1,18,19
 310 258 310 258 297.5 269.5 c 128,-1,20
 285 281 285 281 280.5 284.5 c 128,-1,21
 276 288 276 288 265 295 c 128,-1,22
 254 302 254 302 246 304 c 0,23,24
 225 310 225 310 198.5 310 c 131,-1,25
 172 310 172 310 152 275 c 0,26,27
 132 239 132 239 132 183 c 3,28,29
 132 128 132 128 172 88 c 0,30,31
 214 48 214 48 273 48 c 0,32,33
 303 48 303 48 322.5 78.5 c 128,-1,34
 342 109 342 109 355 109 c 0,35,36
 362 109 362 109 370.5 103.5 c 128,-1,37
 379 98 379 98 384 97 c 1,0,1
EndSplineSet
Validated: 1
EndChar

StartChar: E
Encoding: 69 69 3
Width: 641
VWidth: -12
Flags: W
HStem: -26 108<293.613 461.133> 261 104<171 278.946> 285 102<405.054 523> 566 90<212.472 358.274>
VStem: 44 117<365 450.875> 572 67<167.908 285> 590 37<-86.8672 58.6333>
LayerCount: 2
Back
Fore
SplineSet
312 98 m 0,0,1
 362 82 362 82 418 82 c 132,-1,2
 474 82 474 82 515 95 c 128,-1,3
 556 108 556 108 573 119 c 1,4,-1
 572 285 l 1,5,6
 189 262 189 262 171 261 c 1,7,8
 178 195 178 195 232 142 c 0,9,10
 260 114 260 114 312 98 c 0,0,1
184 500 m 0,11,12
 165 447 165 447 161 365 c 1,13,-1
 523 387 l 1,14,15
 474 455 474 455 408 510.5 c 128,-1,16
 342 566 342 566 275 566 c 132,-1,17
 208 566 208 566 184 500 c 0,11,12
583 64 m 5,18,19
 531 30 531 30 504 15 c 128,-1,20
 477 0 477 0 433 -13 c 128,-1,21
 389 -26 389 -26 339 -26 c 0,22,23
 239 -26 239 -26 171 24 c 0,24,25
 44 118 44 118 44 329 c 0,26,27
 44 404 44 404 77 479 c 128,-1,28
 110 554 110 554 169.5 605 c 128,-1,29
 229 656 229 656 294.5 656 c 128,-1,30
 360 656 360 656 426.5 628 c 128,-1,31
 493 600 493 600 539 552 c 1,32,33
 544 566 544 566 551.5 598 c 128,-1,34
 559 630 559 630 566.5 642.5 c 128,-1,35
 574 655 574 655 588 655 c 0,36,37
 605 655 605 655 605 629 c 128,-1,38
 605 603 605 603 585 520.5 c 128,-1,39
 565 438 565 438 559 398 c 1,40,-1
 639 405 l 1,41,42
 627 257 627 257 627 -65 c 2,43,-1
 627 -69 l 1,44,45
 624 -71 624 -71 620 -75.5 c 128,-1,46
 616 -80 616 -80 613 -83 c 0,47,48
 605 -91 605 -91 598 -91 c 2,49,-1
 590 -91 l 1,50,51
 589 -47 589 -47 583 64 c 5,18,19
EndSplineSet
Validated: 8388609
EndChar

StartChar: I
Encoding: 73 73 4
Width: 411
VWidth: -15
Flags: W
HStem: -10 21G<349.5 403> -9 62<32.0652 141.221> 5 51<116.721 141.985 236 288.933> 567 51<235.342 290> 572 57<29.8877 144.297>
VStem: 142 94<60.668 562.746> 291 54<56 567>
LayerCount: 2
Back
Fore
SplineSet
142 79 m 2,0,-1
 148 539 l 2,1,2
 148 567 148 567 84 572 c 0,3,4
 60 574 60 574 40 586 c 128,-1,5
 20 598 20 598 20 621 c 2,6,-1
 20 629 l 1,7,-1
 27 629 l 1,8,9
 84 627 84 627 124 618 c 128,-1,10
 164 609 164 609 190.5 609 c 128,-1,11
 217 609 217 609 291 618 c 1,12,13
 294 654 294 654 311 654 c 128,-1,14
 328 654 328 654 338 625 c 1,15,16
 359 627 359 627 393 629 c 1,17,-1
 401 629 l 1,18,-1
 401 621 l 2,19,20
 401 581 401 581 345 569 c 1,21,-1
 345 50 l 1,22,23
 363 45 363 45 373.5 40.5 c 128,-1,24
 384 36 384 36 393.5 25 c 128,-1,25
 403 14 403 14 403 -2 c 2,26,-1
 403 -10 l 5,27,28
 296 5 296 5 233 5 c 128,-1,29
 170 5 170 5 115 -2 c 128,-1,30
 60 -9 60 -9 26 -9 c 2,31,-1
 20 -9 l 1,32,-1
 20 -2 l 2,33,34
 20 23 20 23 39 37 c 128,-1,35
 58 51 58 51 81 53 c 0,36,37
 142 60 142 60 142 79 c 2,0,-1
235 542 m 2,38,-1
 236 73 l 6,39,40
 236 56 236 56 280 56 c 2,41,-1
 291 56 l 1,42,-1
 290 567 l 1,43,44
 235 565 235 565 235 542 c 2,38,-1
EndSplineSet
Validated: 8388609
EndChar

StartChar: e
Encoding: 101 101 5
Width: 425
VWidth: -3
Flags: W
HStem: -9 71<180.711 316.028> 336 53<166.036 226.984>
VStem: 29 107<221 297.305>
DStem2: 136 221 141 161 0.895274 0.445516<0 94.8227 235.682 274.571>
LayerCount: 2
Back
Fore
SplineSet
389 107 m 5,0,1
 387 103 387 103 379 88.5 c 132,-1,2
 371 74 371 74 368 68 c 132,-1,3
 365 62 365 62 355.5 49 c 132,-1,4
 346 36 346 36 339 30.5 c 132,-1,5
 332 25 332 25 319 15.5 c 132,-1,6
 306 6 306 6 292 2 c 4,7,8
 254 -9 254 -9 217 -9 c 4,9,10
 132 -9 132 -9 80.5 52 c 132,-1,11
 29 113 29 113 29 195 c 4,12,13
 29 389 29 389 216 389 c 4,14,15
 240 389 240 389 262.5 382 c 132,-1,16
 285 375 285 375 293.5 369.5 c 132,-1,17
 302 364 302 364 307 361 c 132,-1,18
 312 358 312 358 319.5 351 c 132,-1,19
 327 344 327 344 330 342 c 4,20,21
 334 340 334 340 340 334 c 6,22,-1
 347 326 l 5,23,24
 368 338 368 338 385 338 c 4,25,26
 409 338 409 338 409 305 c 4,27,28
 409 288 409 288 341 258 c 4,29,30
 324 250 324 250 295 238 c 132,-1,31
 266 226 266 226 234.5 212 c 132,-1,32
 203 198 203 198 141 161 c 5,33,34
 150 106 150 106 180 84 c 132,-1,35
 210 62 210 62 265 62 c 4,36,37
 292 62 292 62 309 71 c 132,-1,38
 326 80 326 80 332 90 c 4,39,40
 347 119 347 119 359 119 c 4,41,42
 366 119 366 119 375.5 113.5 c 132,-1,43
 385 108 385 108 389 107 c 5,0,1
187 336 m 4,44,45
 174 336 174 336 156.5 296.5 c 132,-1,46
 139 257 139 257 136 221 c 5,47,48
 186 242 186 242 200 247.5 c 132,-1,49
 214 253 214 253 224 257 c 4,50,51
 245 265 245 265 255 272 c 5,52,53
 222 336 222 336 187 336 c 4,44,45
EndSplineSet
Validated: 1
EndChar

StartChar: p
Encoding: 112 112 6
Width: 499
VWidth: 8
Flags: W
HStem: -160.5 56.5<194.959 316.324> -11 67<219.496 354.048> 313 82<228.859 318.058> 314 61<18.4041 87.5601>
VStem: 89 105<-104 19 81.4092 292.996> 365 108<88.04 253.8>
LayerCount: 2
Back
Fore
SplineSet
194 -104 m 1,0,-1
 229 -105 l 1,1,2
 265 -105 265 -105 288 -110.5 c 128,-1,3
 311 -116 311 -116 316.5 -120 c 128,-1,4
 322 -124 322 -124 322 -129 c 0,5,6
 322 -149 322 -149 253 -160.5 c 128,-1,7
 184 -172 184 -172 116 -174 c 2,8,-1
 39 -175 l 1,9,10
 39 -151 39 -151 50 -140 c 0,11,12
 67 -122 67 -122 89 -114 c 1,13,-1
 89 314 l 1,14,15
 32 322 32 322 14 340 c 0,16,17
 0 354 0 354 0 383 c 9,18,-1
 72 375 l 3,19,20
 114 375 114 375 194 389 c 1,21,-1
 191 329 l 1,22,-1
 230 374 l 2,23,24
 248 395 248 395 290 395 c 0,25,26
 361 394 361 394 417 334 c 0,27,28
 473 271 473 271 473 225 c 0,29,30
 473 119 473 119 434.5 54 c 128,-1,31
 396 -11 396 -11 312 -11 c 0,32,33
 264 -11 264 -11 241 -4 c 128,-1,34
 218 3 218 3 194 19 c 1,35,-1
 194 -104 l 1,0,-1
268 313 m 0,36,37
 240 313 240 313 223.5 299.5 c 128,-1,38
 207 286 207 286 191 260 c 1,39,-1
 194 115 l 1,40,41
 210 56 210 56 313 56 c 0,42,43
 345 56 345 56 355 79 c 128,-1,44
 365 102 365 102 365 159 c 128,-1,45
 365 216 365 216 337.5 264.5 c 128,-1,46
 310 313 310 313 268 313 c 0,36,37
EndSplineSet
Validated: 8388609
EndChar

StartChar: q
Encoding: 113 113 7
Width: 503
VWidth: 8
Flags: W
HStem: -6 74<164.595 252.932> 330 64<154.356 248.481>
VStem: 40 83<114.124 292.033> 300 105<-70 39 85.7971 280.175>
LayerCount: 2
Back
Fore
SplineSet
212 330 m 0,0,1
 171 330 171 330 147 299.5 c 128,-1,2
 123 269 123 269 123 206 c 128,-1,3
 123 143 123 143 150.5 105.5 c 128,-1,4
 178 68 178 68 218.5 68 c 128,-1,5
 259 68 259 68 300 101 c 1,6,-1
 300 255 l 1,7,8
 287 272 287 272 256.5 301 c 128,-1,9
 226 330 226 330 212 330 c 0,0,1
300 -175 m 5,10,-1
 300 39 l 1,11,12
 213 -6 213 -6 180 -6 c 0,13,14
 119 -6 119 -6 79.5 50 c 128,-1,15
 40 106 40 106 40 172 c 0,16,17
 40 266 40 266 82.5 330 c 128,-1,18
 125 394 125 394 192.5 394 c 128,-1,19
 260 394 260 394 308 357 c 1,20,21
 326 374 326 374 352.5 390.5 c 128,-1,22
 379 407 379 407 398 407 c 2,23,-1
 405 407 l 1,24,-1
 405 -70 l 1,25,26
 431 -58 431 -58 482 -58 c 2,27,-1
 495 -58 l 1,28,29
 490 -67 490 -67 468 -87 c 128,-1,30
 446 -107 446 -107 426 -121 c 0,31,32
 368 -161 368 -161 300 -175 c 5,10,-1
EndSplineSet
Validated: 1
EndChar

StartChar: a
Encoding: 97 97 8
Width: 459
VWidth: -3
Flags: W
HStem: -13 64<76.5 220.206> -9 74<383.429 446.977> 244 46<128.002 158.622> 311 69<128.19 261.891>
VStem: 30 104<54.0059 115.151 279.649 304.991> 275 107<223.083 296.219>
LayerCount: 2
Back
Fore
SplineSet
181 51 m 4,0,1
 246 51 246 51 274 171 c 1,2,3
 228 158 228 158 181 132 c 128,-1,4
 134 106 134 106 134 76 c 0,5,6
 134 51 134 51 181 51 c 4,0,1
123 -13 m 4,7,8
 30 -13 30 -13 30 59 c 0,9,10
 30 103 30 103 68 135 c 0,11,12
 106 168 106 168 152 182 c 0,13,14
 274 221 274 221 275 248 c 0,15,16
 275 311 275 311 195 311 c 0,17,18
 173 311 173 311 152.5 304 c 128,-1,19
 132 297 132 297 128 292 c 0,20,21
 128 291 128 291 136 290 c 0,22,23
 159 287 159 287 159 270 c 0,24,25
 159 244 159 244 97 244 c 0,26,27
 74 244 74 244 52 257 c 128,-1,28
 30 270 30 270 30 295 c 128,-1,29
 30 320 30 320 62 341 c 0,30,31
 122 380 122 380 207 380 c 0,32,33
 256 380 256 380 300 366 c 0,34,35
 382 340 382 340 382 297 c 2,36,-1
 383 90 l 2,37,38
 383 75 383 75 421 65 c 128,-1,39
 459 55 459 55 459 37.5 c 128,-1,40
 459 20 459 20 437.5 5.5 c 128,-1,41
 416 -9 416 -9 393 -9 c 128,-1,42
 370 -9 370 -9 341.5 3 c 128,-1,43
 313 15 313 15 289 27.5 c 128,-1,44
 265 40 265 40 263 40.5 c 128,-1,45
 261 41 261 41 246.5 27 c 128,-1,46
 232 13 232 13 200 0 c 128,-1,47
 168 -13 168 -13 123 -13 c 4,7,8
EndSplineSet
Validated: 8388609
EndChar

StartChar: b
Encoding: 98 98 9
Width: 498
VWidth: -15
Flags: W
HStem: -36 64<229.17 343.491> 319 73<219.142 311.469>
VStem: 71 102<76.6912 284.393 337 534> 368 100<76.2334 248.435>
LayerCount: 2
Back
Fore
SplineSet
0 582 m 4,0,1
 0 593 0 593 30.5 597 c 128,-1,2
 61 601 61 601 101.5 610 c 128,-1,3
 142 619 142 619 159 641 c 2,4,-1
 173 658 l 1,5,-1
 173 337 l 1,6,7
 234 392 234 392 301 392 c 0,8,9
 385 392 385 392 426.5 322.5 c 128,-1,10
 468 253 468 253 468 144 c 0,11,12
 468 92 468 92 409 28 c 128,-1,13
 350 -36 350 -36 281 -36 c 0,14,15
 184 -36 184 -36 127.5 17.5 c 128,-1,16
 71 71 71 71 71 174 c 2,17,-1
 71 534 l 1,18,-1
 50 544 l 2,19,20
 0 567 0 567 0 582 c 4,0,1
302 28 m 132,-1,22
 368 28 368 28 368 165 c 0,23,24
 368 216 368 216 335 267.5 c 128,-1,25
 302 319 302 319 263 319 c 0,26,27
 205 319 205 319 173 249 c 1,28,-1
 173 99 l 1,29,21
 236 28 236 28 302 28 c 132,-1,22
EndSplineSet
Validated: 1
EndChar

StartChar: d
Encoding: 100 100 10
Width: 471
VWidth: -13
Flags: W
HStem: -28 76<181.756 263.966> 310 59<164.638 273.45> 602 20G<357 388.5>
VStem: 30 101<104.119 272.309> 302 97<83.1932 287.234 347 550.434>
LayerCount: 2
Back
Fore
SplineSet
165 88 m 128,-1,1
 199 48 199 48 225 48 c 128,-1,2
 251 48 251 48 265 63.5 c 128,-1,3
 279 79 279 79 302 122 c 1,4,-1
 302 252 l 1,5,6
 283 288 283 288 268 299 c 128,-1,7
 253 310 253 310 213 310 c 128,-1,8
 173 310 173 310 152 270.5 c 128,-1,9
 131 231 131 231 131 179.5 c 128,-1,0
 131 128 131 128 165 88 c 128,-1,1
204 -28 m 0,10,11
 132 -28 132 -28 81 32.5 c 128,-1,12
 30 93 30 93 30 167 c 0,13,14
 30 262 30 262 70.5 315.5 c 128,-1,15
 111 369 111 369 186 369 c 128,-1,16
 261 369 261 369 302 347 c 1,17,-1
 302 541 l 1,18,19
 246 563 246 563 246 581 c 0,20,21
 246 595 246 595 296 608.5 c 128,-1,22
 346 622 346 622 368 622 c 0,23,24
 409 622 409 622 409 594 c 0,25,26
 409 581 409 581 404 568.5 c 128,-1,27
 399 556 399 556 399 551 c 2,28,-1
 399 77 l 1,29,30
 419 87 419 87 442 87 c 0,31,32
 471 87 471 87 471 53 c 2,33,-1
 471 47 l 1,34,-1
 325 -24 l 1,35,-1
 306 26 l 1,36,37
 243 -28 243 -28 204 -28 c 0,10,11
EndSplineSet
Validated: 1
EndChar

StartChar: f
Encoding: 102 102 12
Width: 303
VWidth: -13
Flags: W
HStem: 291.5 75<175.315 241.169> 569 68<209.629 275.214>
VStem: 73 102<22.0056 290.46 367.226 504.429>
LayerCount: 2
Back
Fore
SplineSet
337 470 m 1,0,1
 336 471 336 471 324 488 c 0,2,3
 312 504 312 504 300 520 c 0,4,5
 264 565 264 565 234 569 c 0,6,7
 217 569 217 569 196 523 c 128,-1,8
 175 477 175 477 175 448 c 2,9,-1
 175 370 l 1,10,11
 183 367 183 367 207 366.5 c 128,-1,12
 231 366 231 366 241.5 357.5 c 128,-1,13
 252 349 252 349 252 326.5 c 128,-1,14
 252 304 252 304 239.5 298.5 c 128,-1,15
 227 293 227 293 206 291.5 c 128,-1,16
 185 290 185 290 175 283 c 1,17,-1
 175 68 l 2,18,19
 175 50 175 50 152.5 22 c 128,-1,20
 130 -6 130 -6 108 -25 c 2,21,-1
 73 -56 l 1,22,-1
 73 284 l 1,23,24
 63 291 63 291 50.5 294 c 128,-1,25
 38 297 38 297 33.5 300.5 c 128,-1,26
 29 304 29 304 29 319 c 0,27,28
 29 347 29 347 73 371 c 1,29,30
 73 498 73 498 132 567.5 c 128,-1,31
 191 637 191 637 274 637 c 0,32,33
 323 637 323 637 358.5 614.5 c 128,-1,34
 394 592 394 592 394 570 c 0,35,36
 394 547 394 547 356 495 c 2,37,-1
 337 470 l 1,0,1
EndSplineSet
Validated: 1
EndChar

StartChar: m
Encoding: 109 109 13
Width: 759
VWidth: -3
Flags: W
HStem: -18 19G<117 146.5 346 377.5 556 573.5> 323 77<245.049 364.141> 335 65<59.7617 86.0898 485.613 604.949>
VStem: 117 95<9.21582 302.096> 346 97<9.21582 287.69> 577 109<68.4152 321.984>
LayerCount: 2
Back
Fore
SplineSet
29 346.5 m 128,-1,1
 29 360 29 360 64 380 c 128,-1,2
 99 400 99 400 115.5 400 c 128,-1,3
 132 400 132 400 161.5 386.5 c 128,-1,4
 191 373 191 373 205 345 c 1,5,6
 234 374 234 374 262 387 c 128,-1,7
 290 400 290 400 328 400 c 0,8,9
 414 400 414 400 437 343 c 1,10,11
 499 400 499 400 577 400 c 0,12,13
 648 400 648 400 669 331 c 0,14,15
 686 275 686 275 686 193.5 c 128,-1,16
 686 112 686 112 671 67 c 1,17,18
 719 95 719 95 731 95 c 0,19,20
 751 95 751 95 751 63 c 0,21,22
 751 48 751 48 665.5 14 c 128,-1,23
 580 -20 580 -20 567 -20 c 2,24,-1
 556 -20 l 1,25,26
 577 72 577 72 577 128.5 c 128,-1,27
 577 185 577 185 576.5 202.5 c 128,-1,28
 576 220 576 220 574.5 254 c 128,-1,29
 573 288 573 288 569 298 c 0,30,31
 566 308 566 308 558 318 c 0,32,33
 546 335 546 335 518.5 335 c 128,-1,34
 491 335 491 335 479 329 c 128,-1,35
 467 323 467 323 443 304 c 1,36,-1
 443 108 l 2,37,38
 443 40 443 40 422 11 c 128,-1,39
 401 -18 401 -18 354 -18 c 2,40,-1
 346 -18 l 1,41,-1
 346 151 l 2,42,43
 346 200 346 200 337.5 243 c 128,-1,44
 329 286 329 286 315 300 c 0,45,46
 292 323 292 323 269 323 c 0,47,48
 251 323 251 323 245 319 c 128,-1,49
 239 315 239 315 229.5 306.5 c 128,-1,50
 220 298 220 298 212 292 c 1,51,-1
 212 104 l 2,52,53
 212 40 212 40 191 11 c 128,-1,54
 170 -18 170 -18 123 -18 c 2,55,-1
 117 -18 l 1,56,-1
 117 153 l 2,57,58
 117 202 117 202 110.5 245.5 c 128,-1,59
 104 289 104 289 94 303 c 0,60,61
 73 333 73 333 51 333 c 128,-1,0
 29 333 29 333 29 346.5 c 128,-1,1
EndSplineSet
Validated: 8388609
EndChar

StartChar: l
Encoding: 108 108 14
Width: 248
VWidth: -14
Flags: W
VStem: 66 93<56 561.368>
LayerCount: 2
Back
Fore
SplineSet
232 64 m 0,0,1
 232 47 232 47 167.5 9 c 128,-1,2
 103 -29 103 -29 66 -29 c 1,3,-1
 66 521 l 2,4,5
 66 538 66 538 45 560 c 0,6,7
 25 582 25 582 25 596.5 c 131,-1,8
 25 611 25 611 74.5 626 c 128,-1,9
 124 641 124 641 159 644 c 1,10,-1
 159 56 l 1,11,12
 180 60 180 60 214 94 c 1,13,14
 232 67 232 67 232 64 c 0,0,1
EndSplineSet
Validated: 1
EndChar

StartChar: g
Encoding: 103 103 15
Width: 458
VWidth: 8
Flags: W
HStem: -174 53<132.881 340.82> -22 70<145.076 339.237> 102 47<159.875 250.17> 296 74<341 398> 346 55<130.29 217.845>
VStem: 35 84<-103.581 -61.6465 192.487 334.551> 57 87<34.25 80.8732> 260 92<158.597 294.985> 350 88<-108.054 -35.7532>
LayerCount: 2
Back
Fore
SplineSet
144 63 m 3,0,1
 144 48 144 48 230 48 c 2,2,-1
 332 48 l 2,3,4
 379 48 379 48 408.5 9.5 c 128,-1,5
 438 -29 438 -29 438 -58 c 0,6,7
 438 -108 438 -108 380 -141 c 128,-1,8
 322 -174 322 -174 234 -174 c 0,9,10
 35 -174 35 -174 35 -99 c 0,11,12
 35 -69 35 -69 113 -19 c 1,13,14
 91 -13 91 -13 74 5 c 128,-1,15
 57 23 57 23 57 45.5 c 128,-1,16
 57 68 57 68 126 122 c 1,17,18
 37 174 37 174 37 280 c 0,19,20
 37 330 37 330 80 365.5 c 128,-1,21
 123 401 123 401 179 401 c 128,-1,22
 235 401 235 401 281 370 c 1,23,-1
 425 370 l 1,24,-1
 425 361 l 2,25,26
 425 332 425 332 406 307 c 1,27,-1
 399 299 l 1,28,-1
 398 296 l 1,29,-1
 341 296 l 1,30,31
 352 258 352 258 352 226 c 0,32,33
 352 175 352 175 311.5 138.5 c 128,-1,34
 271 102 271 102 207.5 102 c 128,-1,35
 144 102 144 102 144 63 c 3,0,1
208 149 m 0,36,37
 260 149 260 149 260 215 c 131,-1,38
 260 281 260 281 228.5 313.5 c 128,-1,39
 197 346 197 346 167.5 346 c 128,-1,40
 138 346 138 346 131 329 c 128,-1,41
 124 312 124 312 124 260 c 128,-1,42
 124 208 124 208 152 178.5 c 128,-1,43
 180 149 180 149 208 149 c 0,36,37
350 -74 m 0,44,45
 350 -36 350 -36 302 -26 c 0,46,47
 280 -22 280 -22 246 -22 c 0,48,49
 119 -22 119 -22 119 -74 c 0,50,51
 119 -121 119 -121 256 -121 c 0,52,53
 350 -121 350 -121 350 -74 c 0,44,45
EndSplineSet
Validated: 8388609
EndChar

StartChar: i
Encoding: 105 105 16
Width: 238
VWidth: -10
Flags: W
VStem: 66 93<58 314.091>
LayerCount: 2
Back
Fore
SplineSet
111 426 m 128,-1,1
 85 426 85 426 85 457 c 0,2,3
 85 473 85 473 110 514 c 128,-1,4
 135 555 135 555 154.5 555 c 128,-1,5
 174 555 174 555 191 544.5 c 128,-1,6
 208 534 208 534 208 511.5 c 128,-1,7
 208 489 208 489 172.5 457.5 c 128,-1,0
 137 426 137 426 111 426 c 128,-1,1
230 67 m 0,8,9
 230 50 230 50 166 12.5 c 128,-1,10
 102 -25 102 -25 73 -25 c 2,11,-1
 66 -25 l 1,12,-1
 65 284 l 2,13,14
 65 310 65 310 40.5 315 c 128,-1,15
 16 320 16 320 16 336 c 0,16,17
 18 351 18 351 71 366 c 128,-1,18
 124 381 124 381 159 384 c 1,19,-1
 159 58 l 1,20,21
 176 64 176 64 200 84 c 2,22,-1
 208 91 l 1,23,-1
 212 95 l 1,24,-1
 216 90 l 1,25,26
 230 78 230 78 230 67 c 0,8,9
EndSplineSet
Validated: 1
EndChar

StartChar: h
Encoding: 104 104 17
Width: 498
VWidth: -14
Flags: W
HStem: 318 78<194.283 320.5>
VStem: 60 97<4.69751 305.237 344 556.465> 324 89<62.2169 273.821>
LayerCount: 2
Back
Fore
SplineSet
301 -26 m 5,0,1
 324 48 324 48 324 146 c 132,-1,2
 324 244 324 244 297 281 c 132,-1,3
 270 318 270 318 216 318 c 4,4,5
 199 318 199 318 192 314 c 132,-1,6
 185 310 185 310 175 301.5 c 132,-1,7
 165 293 165 293 157 287 c 5,8,-1
 157 20 l 6,9,10
 157 -10 157 -10 60 -31 c 5,11,-1
 60 515 l 6,12,13
 60 530 60 530 52 541.5 c 132,-1,14
 44 553 44 553 35 558 c 4,15,16
 10 572 10 572 10 589 c 135,-1,17
 10 606 10 606 67 622 c 132,-1,18
 124 638 124 638 157 640 c 5,19,-1
 157 344 l 5,20,21
 185 371 185 371 212.5 383.5 c 132,-1,22
 240 396 240 396 286 396 c 4,23,24
 355 396 355 396 384 337.5 c 132,-1,25
 413 279 413 279 413 170 c 4,26,27
 413 103 413 103 399 61 c 5,28,29
 447 89 447 89 458 89 c 4,30,31
 478 89 478 89 478 56 c 4,32,33
 478 42 478 42 401.5 8 c 132,-1,34
 325 -26 325 -26 312 -26 c 6,35,-1
 301 -26 l 5,0,1
EndSplineSet
Validated: 1
EndChar

StartChar: r
Encoding: 114 114 18
Width: 391
VWidth: -3
Flags: W
HStem: -17 21G<74 88.5> 300 87<238.428 299.252> 355 20G<161.5 179.333>
VStem: 74 99<13.1725 272.216>
LayerCount: 2
Back
Fore
SplineSet
173 255 m 1,0,-1
 173 46 l 2,1,2
 173 26 173 26 138 4.5 c 128,-1,3
 103 -17 103 -17 74 -17 c 1,4,-1
 74 274 l 2,5,6
 74 292 74 292 65.5 302.5 c 128,-1,7
 57 313 57 313 47 316.5 c 128,-1,8
 37 320 37 320 28.5 327.5 c 128,-1,9
 20 335 20 335 20 349 c 128,-1,10
 20 363 20 363 80.5 369 c 128,-1,11
 141 375 141 375 182 375 c 1,12,-1
 176 330 l 1,13,14
 195 339 195 339 220 354 c 0,15,16
 275 387 275 387 282 387 c 0,17,18
 298 387 298 387 334.5 374 c 128,-1,19
 371 361 371 361 371 346 c 128,-1,20
 371 331 371 331 354 299.5 c 128,-1,21
 337 268 337 268 323.5 268 c 128,-1,22
 310 268 310 268 291.5 284 c 128,-1,23
 273 300 273 300 260.5 300 c 131,-1,24
 248 300 248 300 219.5 286 c 128,-1,25
 191 272 191 272 173 255 c 1,0,-1
EndSplineSet
Validated: 8388609
EndChar

StartChar: s
Encoding: 115 115 19
Width: 366
VWidth: -4
Flags: W
HStem: -12 63<144.562 237.984> 173 85<144.031 234.906> 340 45<143.681 285>
VStem: 39 97<244 330.036> 253 87<80.9199 182>
LayerCount: 2
Back
Fore
SplineSet
89 135 m 1,0,1
 92 132 92 132 100 120 c 0,2,3
 118 96 118 96 145 72 c 0,4,5
 164 52 164 52 203 51 c 0,6,7
 224 51 224 51 238.5 68 c 128,-1,8
 253 85 253 85 253 111.5 c 128,-1,9
 253 138 253 138 231 153.5 c 128,-1,10
 209 169 209 169 177.5 173 c 128,-1,11
 146 177 146 177 114.5 182 c 128,-1,12
 83 187 83 187 61 206 c 128,-1,13
 39 225 39 225 39 263 c 0,14,15
 39 385 39 385 245 385 c 0,16,17
 325 385 325 385 325 335 c 0,18,19
 325 313 325 313 309.5 297 c 128,-1,20
 294 281 294 281 274 281 c 0,21,22
 237 281 237 281 224 310 c 0,23,24
 211 340 211 340 189.5 340 c 128,-1,25
 168 340 168 340 152 328 c 128,-1,26
 136 316 136 316 136 298 c 0,27,28
 136 268 136 268 208 258 c 0,29,30
 291 248 291 248 319 220 c 0,31,32
 340 200 340 200 340 164 c 0,33,34
 340 88 340 88 280 38 c 128,-1,35
 220 -12 220 -12 153 -12 c 0,36,37
 36 -12 36 -12 36 65 c 0,38,39
 36 116 36 116 89 135 c 1,0,1
EndSplineSet
Validated: 1
EndChar

StartChar: t
Encoding: 116 116 20
Width: 369
VWidth: -6
Flags: W
HStem: -22 80<181.037 281.25> 311 66<170 324.145>
VStem: 72 98<70.3047 304>
LayerCount: 2
Back
Fore
SplineSet
305 311 m 1,0,-1
 170 304 l 1,1,-1
 170 114 l 2,2,3
 170 58 170 58 249 58 c 0,4,5
 272 58 272 58 291 65.5 c 128,-1,6
 310 73 310 73 318 73 c 0,7,8
 351 73 351 73 351 51 c 0,9,10
 351 35 351 35 294.5 6.5 c 128,-1,11
 238 -22 238 -22 197.5 -22 c 128,-1,12
 157 -22 157 -22 114.5 7 c 128,-1,13
 72 36 72 36 72 68 c 2,14,-1
 72 295 l 1,15,16
 71 296 71 296 60 303 c 0,17,18
 28 323 28 323 28 336.5 c 128,-1,19
 28 350 28 350 86 393 c 128,-1,20
 144 436 144 436 157 436 c 128,-1,21
 170 436 170 436 170 374 c 1,22,23
 236 377 236 377 308 377 c 0,24,25
 326 377 326 377 326 353 c 0,26,27
 326 316 326 316 307 311 c 1,28,-1
 305 311 l 1,0,-1
EndSplineSet
Validated: 1
EndChar

StartChar: j
Encoding: 106 106 21
Width: 288
VWidth: 1
Flags: W
HStem: -176 53<56.843 120.004>
VStem: -6 42<-100.848 -72.0938> 132 96<-114.803 321.833>
LayerCount: 2
Back
Fore
SplineSet
160.5 434 m 128,-1,1
 153 442 153 442 153 457 c 128,-1,2
 153 472 153 472 178.5 513 c 128,-1,3
 204 554 204 554 223.5 554 c 128,-1,4
 243 554 243 554 259.5 543.5 c 128,-1,5
 276 533 276 533 276 510.5 c 128,-1,6
 276 488 276 488 241 457 c 128,-1,7
 206 426 206 426 180 426 c 0,8,0
 168 426 168 426 160.5 434 c 128,-1,1
36 -61 m 5,9,10
 36 -68 36 -68 47 -85.5 c 128,-1,11
 58 -103 58 -103 63 -109 c 0,12,13
 75 -123 75 -123 88 -123 c 0,14,15
 132 -123 132 -123 132 -30 c 2,16,-1
 131 282 l 2,17,18
 131 299 131 299 111 320.5 c 128,-1,19
 91 342 91 342 91 353 c 0,20,21
 92 369 92 369 141.5 383 c 128,-1,22
 191 397 191 397 227 400 c 1,23,-1
 228 -42 l 2,24,25
 228 -113 228 -113 193 -144.5 c 128,-1,26
 158 -176 158 -176 111 -176 c 128,-1,27
 64 -176 64 -176 29 -160.5 c 128,-1,28
 -6 -145 -6 -145 -6 -113 c 0,29,30
 -6 -98 -6 -98 3 -85.5 c 128,-1,31
 12 -73 12 -73 20 -68.5 c 128,-1,32
 28 -64 28 -64 30 -64 c 2,33,-1
 36 -61 l 5,9,10
EndSplineSet
Validated: 1
EndChar

StartChar: k
Encoding: 107 107 22
Width: 510
VWidth: -14
Flags: W
HStem: -26 70<377.57 446.355>
VStem: 68 94<-12.6875 169.897 236 568.344>
DStem2: 354.5 146 280 75.5 0.523517 -0.852015<-58.8244 125.214>
LayerCount: 2
Back
Fore
SplineSet
162 14 m 2,0,1
 162 -3 162 -3 133 -16 c 128,-1,2
 104 -29 104 -29 76 -29 c 2,3,-1
 68 -29 l 1,4,-1
 68 550 l 2,5,6
 68 554 68 554 47 567.5 c 128,-1,7
 26 581 26 581 26 595 c 0,8,9
 28 612 28 612 78.5 627 c 128,-1,10
 129 642 129 642 162 644 c 1,11,-1
 162 236 l 1,12,13
 403 367 403 367 437 367 c 0,14,15
 451 366 451 366 460 356 c 0,16,17
 468 346 468 346 470 335 c 2,18,-1
 472 324 l 1,19,-1
 472 319 l 1,20,-1
 290 221 l 1,21,22
 325 191 325 191 354.5 146 c 128,-1,23
 384 101 384 101 401 72.5 c 128,-1,24
 418 44 418 44 428 44 c 128,-1,25
 438 44 438 44 444 60.5 c 128,-1,26
 450 77 450 77 467 77 c 0,27,28
 489 77 489 77 489 40 c 0,29,30
 489 16 489 16 449.5 -5 c 128,-1,31
 410 -26 410 -26 380 -26 c 128,-1,32
 350 -26 350 -26 324 5.5 c 128,-1,33
 298 37 298 37 280 75.5 c 128,-1,34
 262 114 262 114 239 145.5 c 128,-1,35
 216 177 216 177 196 177 c 0,36,37
 180 177 180 177 162 122 c 1,38,-1
 162 14 l 2,0,1
EndSplineSet
Validated: 1
EndChar

StartChar: P
Encoding: 80 80 23
Width: 641
VWidth: -14
Flags: W
HStem: -19 56<35.1906 150.516 288.814 525.327> -6.5 50<280.715 508.121> 3 50<278 453.025> 148 56<348.964 489.305> 560 44<31.1572 116.069> 571 6<223 362>
VStem: 141 137<258.093 536.099> 158 120<53 180 253.63 494.527> 531 102<310.229 490.39>
LayerCount: 2
Back
Fore
SplineSet
362 571 m 0,0,1
 322 571 322 571 278 527 c 1,2,-1
 278 270 l 1,3,4
 315 239 315 239 360 221.5 c 128,-1,5
 405 204 405 204 439 204 c 0,6,7
 531 204 531 204 531 409 c 0,8,9
 531 477 531 477 481.5 524 c 128,-1,10
 432 571 432 571 362 571 c 0,0,1
35 -12.5 m 128,-1,12
 29 -6 29 -6 29 4.5 c 128,-1,13
 29 15 29 15 36.5 26 c 128,-1,14
 44 37 44 37 58 37 c 0,15,16
 136 37 136 37 151 55 c 1,17,18
 158 78 158 78 158 206 c 0,19,20
 158 396 158 396 141 518 c 0,21,22
 140 528 140 528 104.5 544 c 128,-1,23
 69 560 69 560 40 560 c 0,24,25
 26 560 26 560 26 580 c 0,26,27
 26 589 26 589 31 596.5 c 128,-1,28
 36 604 36 604 45 604 c 0,29,30
 94 604 94 604 134 590.5 c 128,-1,31
 174 577 174 577 223 577 c 3,32,33
 253 577 253 577 287 614 c 0,34,35
 322 652 322 652 391 652 c 0,36,37
 490 652 490 652 561.5 578.5 c 128,-1,38
 633 505 633 505 633 404 c 0,39,40
 633 352 633 352 602 292 c 128,-1,41
 571 232 571 232 520 190 c 0,42,43
 470 148 470 148 424 148 c 0,44,45
 347 148 347 148 301 170 c 0,46,47
 281 180 281 180 278 180 c 1,48,-1
 278 53 l 1,49,50
 365 52 365 52 436.5 43.5 c 128,-1,51
 508 35 508 35 514 34.5 c 128,-1,52
 520 34 520 34 525.5 26.5 c 128,-1,53
 531 19 531 19 531 10 c 128,-1,54
 531 1 531 1 525.5 -7.5 c 128,-1,55
 520 -16 520 -16 508.5 -16 c 128,-1,56
 497 -16 497 -16 406 -6.5 c 128,-1,57
 315 3 315 3 234 3 c 128,-1,58
 153 3 153 3 115.5 -8 c 128,-1,59
 78 -19 78 -19 59.5 -19 c 128,-1,11
 41 -19 41 -19 35 -12.5 c 128,-1,12
EndSplineSet
Validated: 8388609
EndChar

StartChar: period
Encoding: 46 46 24
Width: 256
VWidth: 9
Flags: W
HStem: -20 149<84.0214 159.641>
VStem: 44 164<23.1106 87.168>
LayerCount: 2
Back
Fore
SplineSet
175.5 12.5 m 128,-1,1
 143 -20 143 -20 126.5 -20 c 132,-1,2
 110 -20 110 -20 77 7.5 c 128,-1,3
 44 35 44 35 44 52.5 c 128,-1,4
 44 70 44 70 73 99.5 c 128,-1,5
 102 129 102 129 116 129 c 128,-1,6
 130 129 130 129 169 100.5 c 128,-1,7
 208 72 208 72 208 58.5 c 128,-1,0
 208 45 208 45 175.5 12.5 c 128,-1,1
EndSplineSet
Validated: 1
EndChar

StartChar: comma
Encoding: 44 44 25
Width: 261
VWidth: 13
Flags: W
HStem: -104 64<90.7587 160.145> -18 21G<85.5 99>
VStem: 161 58<-38.4268 9.6134>
LayerCount: 2
Back
Fore
SplineSet
133 150 m 0,0,1
 142 150 142 150 159 123.5 c 128,-1,2
 176 97 176 97 189 70 c 2,3,-1
 202 43 l 1,4,5
 219 24 219 24 219 -14.5 c 128,-1,6
 219 -53 219 -53 198 -78.5 c 128,-1,7
 177 -104 177 -104 137 -104 c 0,8,9
 119 -104 119 -104 103.5 -94.5 c 128,-1,10
 88 -85 88 -85 88 -70.5 c 128,-1,11
 88 -56 88 -56 100 -48 c 0,12,13
 110 -40 110 -40 124 -40 c 0,14,15
 160 -39 160 -39 161 -19 c 0,16,17
 161 -4 161 -4 152 10 c 1,18,19
 139 9 139 9 121 -4.5 c 128,-1,20
 103 -18 103 -18 95 -18 c 0,21,22
 76 -18 76 -18 51.5 27 c 128,-1,23
 27 72 27 72 27 93 c 0,24,25
 27 111 27 111 69.5 130.5 c 128,-1,26
 112 150 112 150 133 150 c 0,0,1
EndSplineSet
Validated: 1
EndChar

StartChar: u
Encoding: 117 117 26
Width: 499
VWidth: -4
Flags: W
HStem: -15 78<191.212 289.932>
VStem: 61 90<106.496 336.801> 346 89<118.295 335.89>
LayerCount: 2
Back
Fore
SplineSet
435 267 m 0,0,1
 435 242 435 242 433.5 206 c 128,-1,2
 432 170 432 170 430 149.5 c 136,-1,3
 428 129 428 129 428 115.5 c 144,-1,4
 428 102 428 102 441 86 c 128,-1,5
 454 70 454 70 467.5 60 c 128,-1,6
 481 50 481 50 481 38.5 c 128,-1,7
 481 27 481 27 463 5.5 c 128,-1,8
 445 -16 445 -16 428.5 -16 c 128,-1,9
 412 -16 412 -16 382 -2 c 128,-1,10
 352 12 352 12 337 41 c 1,11,12
 302 11 302 11 271 -2 c 128,-1,13
 240 -15 240 -15 195.5 -15 c 128,-1,14
 151 -15 151 -15 125 3 c 0,15,16
 99 22 99 22 86 52 c 0,17,18
 61 111 61 111 61 185 c 0,19,20
 61 222 61 222 65.5 276.5 c 128,-1,21
 70 331 70 331 70 337 c 1,22,23
 37 346 37 346 37 363 c 0,24,25
 37 377 37 377 90 383.5 c 128,-1,26
 143 390 143 390 178 390 c 2,27,-1
 188 390 l 1,28,29
 151 297 151 297 151 216.5 c 131,-1,30
 151 136 151 136 177 100 c 128,-1,31
 203 64 203 64 263 63 c 0,32,33
 299 63 299 63 322 115 c 0,34,35
 346 167 346 167 346 265 c 3,36,37
 346 297 346 297 335.5 318 c 128,-1,38
 325 339 325 339 314.5 342.5 c 128,-1,39
 304 346 304 346 295 350.5 c 128,-1,40
 286 355 286 355 286 364 c 0,41,42
 286 388 286 388 418 388 c 0,43,44
 435 388 435 388 435 267 c 0,0,1
EndSplineSet
Validated: 1
EndChar

StartChar: v
Encoding: 118 118 27
Width: 420
VWidth: -3
Flags: W
HStem: 335 55<32.0197 53.4786>
VStem: 335 70<209.579 375.824>
DStem2: 188.5 271.5 63.5 297 0.371869 -0.928285<-118.419 157.996>
LayerCount: 2
Back
Fore
SplineSet
245 -26 m 1,0,1
 196 19 196 19 158 86.5 c 128,-1,2
 120 154 120 154 102 206.5 c 128,-1,3
 84 259 84 259 63.5 297 c 128,-1,4
 43 335 43 335 15 335 c 1,5,6
 15 365 15 365 31.5 377.5 c 128,-1,7
 48 390 48 390 81 390 c 128,-1,8
 114 390 114 390 143 353.5 c 128,-1,9
 172 317 172 317 188.5 271.5 c 128,-1,10
 205 226 205 226 219.5 182.5 c 128,-1,11
 234 139 234 139 254 118 c 1,12,13
 335 212 335 212 335 313 c 0,14,15
 335 317 335 317 325.5 334.5 c 128,-1,16
 316 352 316 352 316 369 c 1,17,18
 352 386 352 386 384 386 c 0,19,20
 405 386 405 386 405 354 c 0,21,22
 405 247 405 247 365 156 c 128,-1,23
 325 65 325 65 245 -26 c 1,0,1
EndSplineSet
Validated: 1
EndChar

StartChar: w
Encoding: 119 119 28
Width: 635
VWidth: -3
Flags: W
HStem: 335 55<21.6753 51.7578>
VStem: 528 102<327.09 378.27>
DStem2: 376 351.5 306.5 266.5 0.454256 -0.890871<-47.539 17.3861 94.6198 112.328 164.714 254.491>
LayerCount: 2
Back
Fore
SplineSet
237 -26 m 1,0,1
 191 18 191 18 154 86 c 0,2,3
 118 154 118 154 100 206 c 0,4,5
 57 335 57 335 22 335 c 2,6,-1
 15 335 l 1,7,-1
 15 342 l 2,8,9
 15 390 15 390 77 390 c 0,10,11
 112 390 112 390 140 354 c 128,-1,12
 168 318 168 318 184 272 c 0,13,14
 230 136 230 136 260 102 c 1,15,16
 311 162 311 162 329 226 c 1,17,18
 316 253 316 253 306.5 266.5 c 128,-1,19
 297 280 297 280 273.5 301 c 128,-1,20
 250 322 250 322 250 342 c 0,21,22
 250 388 250 388 311 388 c 0,23,24
 346 388 346 388 376 351.5 c 128,-1,25
 406 315 406 315 422.5 269 c 128,-1,26
 439 223 439 223 455 183.5 c 128,-1,27
 471 144 471 144 490 123 c 1,28,29
 538 209 538 209 557 313 c 1,30,31
 538 342 538 342 528 372 c 1,32,33
 553 383 553 383 608 383 c 0,34,35
 630 383 630 383 630 352 c 2,36,-1
 630 350 l 1,37,38
 606 228 606 228 556.5 102 c 128,-1,39
 507 -24 507 -24 471 -24 c 0,40,41
 459 -24 459 -24 447 -7 c 128,-1,42
 435 10 435 10 428 22 c 128,-1,43
 421 34 421 34 412 53.5 c 128,-1,44
 403 73 403 73 397 87 c 128,-1,45
 391 101 391 101 380.5 125 c 128,-1,46
 370 149 370 149 365 161 c 1,47,48
 352 123 352 123 331 94 c 0,49,50
 310 66 310 66 303 56 c 0,51,52
 279 24 279 24 237 -26 c 1,0,1
EndSplineSet
Validated: 1
EndChar

StartChar: y
Encoding: 121 121 29
Width: 408
VWidth: 8
Flags: W
HStem: 345 53<34.0853 60.0403>
VStem: 331 74<258.928 383.04>
LayerCount: 2
Back
Fore
SplineSet
202 -67 m 5,0,1
 213 -83 213 -83 240 -105 c 5,2,3
 210 -176 210 -176 183 -176 c 4,4,5
 164 -176 164 -176 142 -158 c 4,6,7
 117 -138 117 -138 90 -100 c 5,8,9
 104 -80 104 -80 120 -62 c 4,10,11
 153 -22 153 -22 190 30 c 5,12,13
 120 223 120 223 96 270 c 4,14,15
 57 345 57 345 15 345 c 5,16,17
 15 378 15 378 33.5 388 c 132,-1,18
 52 398 52 398 100 398 c 4,19,20
 186 398 186 398 267 141 c 5,21,22
 331 256 331 256 331 326 c 4,23,24
 331 369 331 369 342 383.5 c 132,-1,25
 353 398 353 398 370.5 398 c 132,-1,26
 388 398 388 398 396.5 387 c 132,-1,27
 405 376 405 376 405 365 c 4,28,29
 405 316 405 316 378.5 246 c 132,-1,30
 352 176 352 176 310 106 c 4,31,32
 250 2 250 2 202 -67 c 5,0,1
EndSplineSet
Validated: 1
EndChar

StartChar: x
Encoding: 120 120 30
Width: 498
VWidth: -4
Flags: W
HStem: -15 69.5<382.237 433.299> -10 114<52.1201 117.513> 288 103<396.387 457.127>
DStem2: 131 56 178 24 0.5547 0.83205<0 108.999 241.572 363.655> 265 257 131.5 264 0.586546 -0.809916<-150.09 0 220.807 255.227>
LayerCount: 2
Back
Fore
SplineSet
131 56 m 1,0,-1
 204 167 l 1,1,2
 181 202 181 202 175 209.5 c 128,-1,3
 169 217 169 217 159 231 c 128,-1,4
 149 245 149 245 145 249 c 128,-1,5
 141 253 141 253 131.5 264 c 128,-1,6
 122 275 122 275 116 279.5 c 128,-1,7
 110 284 110 284 99.5 292.5 c 128,-1,8
 89 301 89 301 80 306 c 0,9,10
 55 320 55 320 34 328 c 1,11,-1
 34 334 l 2,12,13
 34 389 34 389 98 389 c 128,-1,14
 162 389 162 389 265 257 c 1,15,16
 313 333 313 333 342.5 362 c 128,-1,17
 372 391 372 391 410 391 c 0,18,19
 431 391 431 391 450.5 375 c 128,-1,20
 470 359 470 359 470 338 c 128,-1,21
 470 317 470 317 454.5 302.5 c 128,-1,22
 439 288 439 288 420 288 c 128,-1,23
 401 288 401 288 393 321 c 1,24,25
 346 269 346 269 300 202 c 1,26,27
 346 114 346 114 386 72 c 0,28,29
 402 54 402 54 409.5 54.5 c 128,-1,30
 417 55 417 55 432 62.5 c 128,-1,31
 447 70 447 70 453 82 c 1,32,33
 464 79 464 79 472 70 c 128,-1,34
 480 61 480 61 480 52 c 0,35,36
 480 40 480 40 441.5 12.5 c 128,-1,37
 403 -15 403 -15 383 -15 c 0,38,39
 336 -15 336 -15 314 12 c 0,40,41
 266 68 266 68 239 115 c 1,42,43
 236 109 236 109 214 76 c 128,-1,44
 192 43 192 43 178 24 c 0,45,46
 153 -10 153 -10 133 -10 c 0,47,48
 68 -10 68 -10 47 18 c 0,49,50
 31 40 31 40 31 51.5 c 128,-1,51
 31 63 31 63 33.5 72 c 128,-1,52
 36 81 36 81 46.5 92.5 c 128,-1,53
 57 104 57 104 71.5 104 c 128,-1,54
 86 104 86 104 94.5 101.5 c 128,-1,55
 103 99 103 99 109 91.5 c 128,-1,56
 115 84 115 84 118 81 c 128,-1,57
 121 78 121 78 126 67 c 2,58,-1
 131 56 l 1,0,-1
EndSplineSet
Validated: 8388609
EndChar

StartChar: z
Encoding: 122 122 31
Width: 481
VWidth: -2
Flags: W
HStem: 4 77<205.705 413.122> 318 79<81.3049 227.951>
VStem: 417 48<-44.8364 -15>
DStem2: 305 277 204 81 0.667545 0.744569<-213.358 0 89.3702 144.013>
LayerCount: 2
Back
Fore
SplineSet
381 364.5 m 128,-1,1
 392 382 392 382 404 382 c 7,2,3
 428 382 428 382 428 361 c 0,4,5
 428 349 428 349 372 279 c 128,-1,6
 316 209 316 209 260 145 c 2,7,-1
 204 81 l 1,8,9
 420 81 420 81 452 64 c 0,10,11
 466 57 466 57 465 44 c 0,12,13
 465 -50 465 -50 428 -50 c 0,14,15
 417 -50 417 -50 417 -34.5 c 128,-1,16
 417 -19 417 -19 418 -15 c 1,17,18
 261 4 261 4 219 4 c 0,19,20
 148 4 148 4 79 -14 c 2,21,-1
 30 -27 l 1,22,-1
 48 -7 l 2,23,24
 161 119 161 119 305 277 c 1,25,26
 265 285 265 285 227 296.5 c 128,-1,27
 189 308 189 308 163.5 313 c 128,-1,28
 138 318 138 318 98 318 c 0,29,30
 82 318 82 318 59 291 c 1,31,-1
 46 271 l 1,32,-1
 46 296 l 2,33,34
 46 322 46 322 70 359.5 c 128,-1,35
 94 397 94 397 119 397 c 0,36,37
 170 397 170 397 260.5 372 c 128,-1,38
 351 347 351 347 360.5 347 c 128,-1,0
 370 347 370 347 381 364.5 c 128,-1,1
EndSplineSet
Validated: 8388609
EndChar

StartChar: quotesingle
Encoding: 39 39 32
Width: 172
VWidth: 41
Flags: W
HStem: 380 314<61.5833 85.5823>
VStem: 33 111<484.871 655.255>
LayerCount: 2
Back
Fore
SplineSet
33 394 m 6,0,1
 33 694 33 694 86 694 c 0,2,3
 144 694 144 694 144 645 c 0,4,5
 144 595 144 595 130 522 c 0,6,7
 103 380 103 380 45 380 c 2,8,-1
 33 380 l 1,9,-1
 33 394 l 6,0,1
EndSplineSet
Validated: 1
EndChar

StartChar: quotedbl
Encoding: 34 34 33
Width: 339
VWidth: 41
Flags: W
HStem: 377 316<61.8491 88.325 225.849 252.954>
VStem: 47 99<481.871 682.668> 211 100<481.871 682.668>
LayerCount: 2
Back
Fore
SplineSet
201 391 m 2,0,1
 201 533 201 533 211 613 c 128,-1,2
 221 693 221 693 253 693 c 0,3,4
 311 693 311 693 311 643 c 0,5,6
 311 592 311 592 297 519 c 0,7,8
 270 377 270 377 213 377 c 2,9,-1
 201 377 l 1,10,-1
 201 391 l 2,0,1
37 391 m 2,11,12
 37 533 37 533 47 613 c 128,-1,13
 57 693 57 693 89 693 c 0,14,15
 146 693 146 693 146 643 c 0,16,17
 146 592 146 592 132 519 c 0,18,19
 105 377 105 377 49 377 c 2,20,-1
 37 377 l 1,21,-1
 37 391 l 2,11,12
EndSplineSet
Validated: 1
EndChar

StartChar: A
Encoding: 65 65 34
Width: 670
VWidth: -15
Flags: W
HStem: -9 61<40.7734 81.686 158 168 223 241.047 570.944 607.26 631 647.954> -9 41<398.562 470.191> 287 76<318.88 404> 562 69<260 365> 573 71<75.8383 191.852 464 529.908>
VStem: 82 76<59 188.577>
DStem2: 119 253 191 248 0.216598 0.976261<-178.515 20.7777 112.345 329.276>
LayerCount: 2
Back
Fore
SplineSet
214 347 m 5,0,-1
 404 363 l 1,1,-1
 365 562 l 1,2,-1
 260 559 l 1,3,-1
 214 347 l 5,0,-1
168 -2 m 1,4,-1
 62 -7 l 1,5,6
 40 -7 40 -7 40 24 c 128,-1,7
 40 55 40 55 56 55 c 128,-1,8
 72 55 72 55 82 60 c 1,9,10
 84 105 84 105 119 253 c 0,11,12
 192 566 192 566 194 575 c 1,13,14
 190 576 190 576 138 578.5 c 128,-1,15
 86 581 86 581 75.5 589.5 c 128,-1,16
 65 598 65 598 58.5 616 c 128,-1,17
 52 634 52 634 52 644 c 1,18,-1
 61 644 l 6,19,20
 114 644 114 644 189.5 637.5 c 128,-1,21
 265 631 265 631 311.5 631 c 128,-1,22
 358 631 358 631 397 637.5 c 128,-1,23
 436 644 436 644 476 644 c 0,24,25
 534 644 534 644 534 611 c 0,26,27
 534 573 534 573 464 573 c 1,28,29
 464 539 464 539 517 329.5 c 128,-1,30
 570 120 570 120 570 70 c 0,31,32
 570 52 570 52 625 52 c 0,33,34
 638 52 638 52 644 40 c 128,-1,35
 650 28 650 28 650 16 c 0,36,37
 650 -9 650 -9 631 -9 c 0,38,39
 617 -9 617 -9 593.5 -5 c 128,-1,40
 570 -1 570 -1 519 -1 c 1,41,-1
 420 -9 l 2,42,43
 411 -9 411 -9 404.5 -0.5 c 128,-1,44
 398 8 398 8 398 16 c 0,45,46
 398 32 398 32 414 32 c 0,47,48
 421 32 421 32 477 55 c 1,49,-1
 424 287 l 1,50,51
 343 282 343 282 191 248 c 1,52,53
 160 138 160 138 158 59 c 1,54,-1
 223 56 l 2,55,56
 243 56 243 56 243 28 c 128,-1,57
 243 0 243 0 224 0 c 2,58,-1
 168 -2 l 1,4,-1
EndSplineSet
Validated: 8388609
EndChar

StartChar: B
Encoding: 66 66 35
Width: 636
VWidth: -15
Flags: W
HStem: -24 49<73.2837 145.935 283.515 444.678> 558 45<47.6415 132.688> 579 72<282.017 402.493>
VStem: 148 106<54.0055 539.062> 441 110<406.996 539.02> 488 113<65.4697 228.51>
LayerCount: 2
Back
Fore
SplineSet
335 579 m 0,0,1
 302 579 302 579 278 552.5 c 128,-1,2
 254 526 254 526 254 481 c 2,3,-1
 254 126 l 1,4,5
 255 72 255 72 282 48.5 c 128,-1,6
 309 25 309 25 388 25 c 0,7,8
 416 25 416 25 452 52.5 c 128,-1,9
 488 80 488 80 488 125 c 128,-1,10
 488 170 488 170 477 203 c 128,-1,11
 466 236 466 236 445 254 c 128,-1,12
 424 272 424 272 404 282.5 c 128,-1,13
 384 293 384 293 355.5 305 c 128,-1,14
 327 317 327 317 311 328 c 2,15,-1
 295 338 l 1,16,-1
 312 343 l 1,17,18
 441 384 441 384 441 469 c 0,19,20
 441 513 441 513 414 546 c 128,-1,21
 387 579 387 579 335 579 c 0,0,1
470 -15 m 128,-1,23
 439 -24 439 -24 388 -24 c 128,-1,24
 337 -24 337 -24 290.5 -11.5 c 128,-1,25
 244 1 244 1 207 1 c 0,26,27
 204 2 204 2 186 -4 c 0,28,29
 135 -20 135 -20 84 -20 c 0,30,31
 64 -20 64 -20 64 1 c 0,32,33
 64 14 64 14 73 22 c 128,-1,34
 82 30 82 30 101 30 c 128,-1,35
 120 30 120 30 132 33.5 c 128,-1,36
 144 37 144 37 146 40 c 128,-1,37
 148 43 148 43 148 50 c 2,38,-1
 148 519 l 1,39,40
 146 530 146 530 117.5 544 c 128,-1,41
 89 558 89 558 60 558 c 0,42,43
 52 558 52 558 47.5 564.5 c 128,-1,44
 43 571 43 571 43 579 c 128,-1,45
 43 587 43 587 48.5 595 c 128,-1,46
 54 603 54 603 63 603 c 0,47,48
 104 603 104 603 131 589.5 c 128,-1,49
 158 576 158 576 186 576 c 128,-1,50
 214 576 214 576 231 587.5 c 128,-1,51
 248 599 248 599 261 613.5 c 128,-1,52
 274 628 274 628 301.5 639.5 c 128,-1,53
 329 651 329 651 366 651 c 0,54,55
 446 651 446 651 498.5 602 c 128,-1,56
 551 553 551 553 551 483 c 0,57,58
 551 431 551 431 524.5 389.5 c 128,-1,59
 498 348 498 348 449 331 c 1,60,61
 455 328 455 328 480.5 316.5 c 128,-1,62
 506 305 506 305 516.5 299 c 128,-1,63
 527 293 527 293 547 278.5 c 128,-1,64
 567 264 567 264 576 249 c 0,65,66
 601 207 601 207 601 156.5 c 128,-1,67
 601 106 601 106 581.5 69 c 128,-1,68
 562 32 562 32 531.5 13 c 128,-1,22
 501 -6 501 -6 470 -15 c 128,-1,23
EndSplineSet
Validated: 8388609
EndChar

StartChar: C
Encoding: 67 67 36
Width: 662
VWidth: -12
Flags: W
HStem: -17.5 53.5<353.243 484.266> 593 64<239.211 357.444>
VStem: 43 101<240.945 451.369> 588 38<-87.2188 25>
LayerCount: 2
Back
Fore
SplineSet
627 146 m 1,0,-1
 626 -65 l 1,1,-1
 626 -69 l 1,2,3
 623 -71 623 -71 619 -75.5 c 128,-1,4
 615 -80 615 -80 612 -83 c 0,5,6
 604 -91 604 -91 597 -91 c 2,7,-1
 595 -91 l 1,8,9
 588 -87 588 -87 588 -79 c 2,10,-1
 587 -56 l 1,11,12
 587 -20 587 -20 582 25 c 1,13,14
 528 -9 528 -9 478 -17.5 c 128,-1,15
 428 -26 428 -26 333 -26 c 128,-1,16
 238 -26 238 -26 170 24 c 0,17,18
 43 118 43 118 43 329 c 0,19,20
 43 404 43 404 76 479 c 128,-1,21
 109 554 109 554 168.5 605.5 c 128,-1,22
 228 657 228 657 299.5 657 c 128,-1,23
 371 657 371 657 413 645.5 c 128,-1,24
 455 634 455 634 496 590 c 1,25,26
 509 600 509 600 532.5 622 c 128,-1,27
 556 644 556 644 566.5 649.5 c 128,-1,28
 577 655 577 655 587 655 c 0,29,30
 604 655 604 655 604 626 c 0,31,32
 604 586 604 586 477 484 c 1,33,34
 449 519 449 519 385 556 c 128,-1,35
 321 593 321 593 287 593 c 128,-1,36
 253 593 253 593 219 548.5 c 128,-1,37
 185 504 185 504 164.5 446.5 c 128,-1,38
 144 389 144 389 144 335 c 128,-1,39
 144 281 144 281 175.5 221 c 128,-1,40
 207 161 207 161 253 122 c 128,-1,41
 299 83 299 83 348.5 59.5 c 128,-1,42
 398 36 398 36 436 36 c 0,43,44
 450 36 450 36 472 50 c 128,-1,45
 494 64 494 64 540 98 c 128,-1,46
 586 132 586 132 615 152 c 1,47,-1
 627 159 l 1,48,-1
 627 146 l 1,0,-1
EndSplineSet
Validated: 1
EndChar

StartChar: D
Encoding: 68 68 37
Width: 633
VWidth: -12
Flags: W
HStem: -21 55<263.645 457.435> 570 44<25.0977 111.727> 583 72<276.906 398.92>
VStem: 130 105<60.1628 550.619> 513 83<139.805 411.747>
LayerCount: 2
Back
Fore
SplineSet
513 236 m 0,0,1
 513 397 513 397 457.5 490 c 128,-1,2
 402 583 402 583 340 583 c 0,3,4
 306 583 306 583 270.5 561.5 c 128,-1,5
 235 540 235 540 235 520 c 2,6,-1
 235 61 l 1,7,8
 345 34 345 34 417 34 c 0,9,10
 444 34 444 34 475 76 c 0,11,12
 491 98 491 98 502 139.5 c 128,-1,13
 513 181 513 181 513 236 c 0,0,1
284.5 -4.5 m 128,-1,15
 228 12 228 12 185 12 c 131,-1,16
 142 12 142 12 121.5 -9 c 128,-1,17
 101 -30 101 -30 82 -82 c 1,18,-1
 77 -82 l 2,19,20
 64 -82 64 -82 59 -63 c 128,-1,21
 54 -44 54 -44 54 -31 c 0,22,23
 54 2 54 2 80.5 33 c 128,-1,24
 107 64 107 64 130 74 c 1,25,-1
 130 530 l 1,26,27
 128 541 128 541 99 555.5 c 128,-1,28
 70 570 70 570 41 570 c 0,29,30
 25 570 25 570 25 590 c 0,31,32
 25 599 25 599 30.5 606.5 c 128,-1,33
 36 614 36 614 45 614 c 0,34,35
 95 614 95 614 123 596.5 c 128,-1,36
 151 579 151 579 200 579 c 0,37,38
 206 579 206 579 220.5 591 c 128,-1,39
 235 603 235 603 252 617 c 128,-1,40
 269 631 269 631 301 643 c 128,-1,41
 333 655 333 655 369 655 c 0,42,43
 459 655 459 655 527.5 562 c 128,-1,44
 596 469 596 469 596 313 c 0,45,46
 596 224 596 224 578.5 156.5 c 128,-1,47
 561 89 561 89 533 52 c 0,48,49
 478 -21 478 -21 409.5 -21 c 128,-1,14
 341 -21 341 -21 284.5 -4.5 c 128,-1,15
EndSplineSet
Validated: 8388609
EndChar

StartChar: colon
Encoding: 58 58 38
Width: 255
VWidth: -3
Flags: W
HStem: -17 149<83.1827 160.25> 219 150<77.0214 153.258>
VStem: 44 164<25.9473 89.4688 270.794 321.234>
LayerCount: 2
Back
Fore
SplineSet
168.5 252 m 128,-1,1
 136 219 136 219 119.5 219 c 128,-1,2
 103 219 103 219 70 246.5 c 128,-1,3
 37 274 37 274 37 291.5 c 128,-1,4
 37 309 37 309 66.5 339 c 128,-1,5
 96 369 96 369 110 369 c 128,-1,6
 124 369 124 369 162.5 340.5 c 128,-1,7
 201 312 201 312 201 298.5 c 128,-1,0
 201 285 201 285 168.5 252 c 128,-1,1
175.5 15 m 128,-1,9
 143 -17 143 -17 126.5 -17 c 128,-1,10
 110 -17 110 -17 77 10 c 128,-1,11
 44 37 44 37 44 54.5 c 128,-1,12
 44 72 44 72 73.5 102 c 128,-1,13
 103 132 103 132 117 132 c 128,-1,14
 131 132 131 132 169.5 103 c 128,-1,15
 208 74 208 74 208 60.5 c 128,-1,8
 208 47 208 47 175.5 15 c 128,-1,9
EndSplineSet
Validated: 1
EndChar

StartChar: semicolon
Encoding: 59 59 39
Width: 243
VWidth: 2
Flags: W
HStem: -112 64<96.86 158.824> -11 21G<83.5 97> 224 150<65.0214 141.25>
VStem: 25 164<267.111 331.469> 159 57<-46.4505 15.3447>
LayerCount: 2
Back
Fore
SplineSet
131 151 m 0,0,1
 140 151 140 151 157 125.5 c 128,-1,2
 174 100 174 100 186 74 c 2,3,-1
 199 48 l 1,4,5
 216 26 216 26 216 -17.5 c 128,-1,6
 216 -61 216 -61 195 -86.5 c 128,-1,7
 174 -112 174 -112 133 -112 c 0,8,9
 115 -112 115 -112 100 -103 c 128,-1,10
 85 -94 85 -94 85 -79 c 128,-1,11
 85 -64 85 -64 96.5 -56 c 128,-1,12
 108 -48 108 -48 122 -48 c 0,13,14
 159 -47 159 -47 159 -26.5 c 128,-1,15
 159 -6 159 -6 148 16 c 1,16,17
 135 15 135 15 118 2 c 128,-1,18
 101 -11 101 -11 93 -11 c 0,19,20
 74 -11 74 -11 49 31.5 c 128,-1,21
 24 74 24 74 24 94 c 0,22,23
 24 111 24 111 67.5 131 c 128,-1,24
 111 151 111 151 131 151 c 0,0,1
156.5 256.5 m 128,-1,26
 124 224 124 224 107.5 224 c 128,-1,27
 91 224 91 224 58 251.5 c 128,-1,28
 25 279 25 279 25 296.5 c 128,-1,29
 25 314 25 314 55 344 c 128,-1,30
 85 374 85 374 98.5 374 c 128,-1,31
 112 374 112 374 150.5 345 c 128,-1,32
 189 316 189 316 189 302.5 c 128,-1,25
 189 289 189 289 156.5 256.5 c 128,-1,26
EndSplineSet
Validated: 8388609
EndChar

StartChar: less
Encoding: 60 60 40
Width: 472
VWidth: -3
Flags: W
HStem: -14 21G<395 412> 302 79<382.788 439.254>
VStem: 395 55<5.08057 26.2051>
DStem2: 170 198 136.5 121.5 0.929694 -0.368332<0 283.515>
LayerCount: 2
Back
Fore
SplineSet
425 302 m 1,0,-1
 372 293 l 1,1,2
 347 293 347 293 286.5 264 c 128,-1,3
 226 235 226 235 170 198 c 1,4,5
 191 189 191 189 276.5 159 c 128,-1,6
 362 129 362 129 406 104.5 c 128,-1,7
 450 80 450 80 450 51.5 c 128,-1,8
 450 23 450 23 436.5 4.5 c 128,-1,9
 423 -14 423 -14 401 -14 c 2,10,-1
 395 -14 l 1,11,-1
 395 -5 l 2,12,13
 395 33 395 33 261 73 c 0,14,15
 207 89 207 89 136.5 121.5 c 128,-1,16
 66 154 66 154 19 195 c 1,17,18
 81 246 81 246 212 313 c 128,-1,19
 343 380 343 380 414 381 c 0,20,21
 445 381 445 381 445 359 c 3,22,23
 445 333 445 333 431 302 c 1,24,-1
 425 302 l 1,0,-1
EndSplineSet
Validated: 1
EndChar

StartChar: greater
Encoding: 62 62 41
Width: 472
VWidth: -3
Flags: W
HStem: -14 21G<56 74> 302 79<29.156 85.2116>
VStem: 19 55<5.08118 26.5225>
DStem2: 212 165.5 208 72 0.932174 0.362009<-189.77 91.9323>
LayerCount: 2
Back
Fore
SplineSet
96 293 m 1,0,-1
 43 302 l 1,1,-1
 38 302 l 1,2,3
 23 335 23 335 23 358 c 128,-1,4
 23 381 23 381 55 381 c 0,5,6
 126 380 126 380 257 313 c 128,-1,7
 388 246 388 246 450 195 c 1,8,9
 403 154 403 154 332.5 121 c 128,-1,10
 262 88 262 88 208 72 c 0,11,12
 74 34 74 34 74 -5 c 2,13,-1
 74 -14 l 1,14,-1
 67 -14 l 2,15,16
 45 -14 45 -14 32 4.5 c 128,-1,17
 19 23 19 23 19 54 c 0,18,19
 20 86 20 86 92 118 c 0,20,21
 148 143 148 143 212 165.5 c 128,-1,22
 276 188 276 188 298 198 c 1,23,24
 240 235 240 235 180.5 264 c 128,-1,25
 121 293 121 293 96 293 c 1,0,-1
EndSplineSet
Validated: 1
EndChar

StartChar: F
Encoding: 70 70 42
Width: 512
VWidth: -14
Flags: W
HStem: -18 56<50.736 142.005> -2 49<273 408.842> 310 74<72 142> 316 76<276 415.747> 566 73<278.404 421.32>
VStem: 142 132<42.2305 310 392 546.916> 432 41<232.595 303.866 392 425.589>
LayerCount: 2
Back
Fore
SplineSet
504 597 m 1,0,1
 491 545 491 545 481 476 c 128,-1,2
 471 407 471 407 471 381 c 0,3,4
 473 367 473 367 473 333 c 0,5,6
 473 228 473 228 439 226 c 1,7,-1
 432 226 l 1,8,-1
 432 260 l 2,9,10
 432 300 432 300 427 304 c 128,-1,11
 422 308 422 308 416 312 c 0,12,13
 408 316 408 316 388 316 c 128,-1,14
 368 316 368 316 276 312 c 1,15,-1
 270 40 l 1,16,-1
 273 47 l 1,17,18
 356 47 356 47 375 43.5 c 128,-1,19
 394 40 394 40 399 40 c 128,-1,20
 404 40 404 40 409 32.5 c 128,-1,21
 414 25 414 25 414 16 c 128,-1,22
 414 7 414 7 409 0 c 128,-1,23
 404 -7 404 -7 392.5 -7 c 128,-1,24
 381 -7 381 -7 338 -4.5 c 128,-1,25
 295 -2 295 -2 213 -2 c 128,-1,26
 131 -2 131 -2 111.5 -10 c 128,-1,27
 92 -18 92 -18 73 -18 c 0,28,29
 43 -18 43 -18 43 5 c 0,30,31
 43 17 43 17 50.5 27.5 c 128,-1,32
 58 38 58 38 72 38 c 0,33,34
 119 38 119 38 143 50 c 1,35,-1
 142 310 l 1,36,-1
 72 310 l 1,37,-1
 40 384 l 1,38,-1
 142 384 l 1,39,-1
 142 455 l 2,40,41
 142 473 142 473 128.5 519.5 c 128,-1,42
 115 566 115 566 107 566 c 0,43,44
 102 566 102 566 84.5 556.5 c 128,-1,45
 67 547 67 547 62 547 c 0,46,47
 45 547 45 547 45 573 c 0,48,49
 45 585 45 585 87.5 612 c 128,-1,50
 130 639 130 639 139 639 c 128,-1,51
 148 639 148 639 158.5 628.5 c 128,-1,52
 169 618 169 618 185 599.5 c 128,-1,53
 201 581 201 581 213 570 c 0,54,55
 216 572 216 572 230.5 583 c 128,-1,56
 245 594 245 594 249 597 c 128,-1,57
 253 600 253 600 266 609 c 128,-1,58
 279 618 279 618 285.5 620.5 c 128,-1,59
 292 623 292 623 306 629 c 128,-1,60
 320 635 320 635 330 637 c 0,61,62
 362 643 362 643 376.5 643 c 128,-1,63
 391 643 391 643 398 642.5 c 128,-1,64
 405 642 405 642 412.5 640 c 128,-1,65
 420 638 420 638 425 636.5 c 128,-1,66
 430 635 430 635 438.5 631.5 c 128,-1,67
 447 628 447 628 451 626.5 c 128,-1,68
 455 625 455 625 464.5 619.5 c 128,-1,69
 474 614 474 614 477 612 c 0,70,71
 492 604 492 604 504 597 c 1,0,1
329 572 m 0,72,73
 306 572 306 572 290.5 557 c 128,-1,74
 275 542 275 542 269 529 c 1,75,-1
 274 392 l 1,76,-1
 429 392 l 1,77,-1
 449 529 l 1,78,79
 372 572 372 572 329 572 c 0,72,73
EndSplineSet
Validated: 8388609
EndChar

StartChar: G
Encoding: 71 71 43
Width: 699
VWidth: -15
Flags: W
HStem: -29 93<306.558 485.539> 590 64<237.857 352.883>
VStem: 45 101<230.148 449.795> 607 65<113.487 224.439>
DStem2: 362 274 382 230 0.935084 0.354427<0 131.952> 466 598 396 536.5 0.684057 -0.729428<-74.2039 119.55> 545 517 566.5 464.5 0.905263 0.424852<-5.93571 99.719>
LayerCount: 2
Back
Fore
SplineSet
644 365 m 5,0,1
 637 359 637 359 625 350 c 128,-1,2
 613 341 613 341 603 331 c 1,3,4
 632 302 632 302 643 284 c 0,5,6
 672 238 672 238 672 178 c 128,-1,7
 672 118 672 118 636 77 c 0,8,9
 598 36 598 36 544 14 c 0,10,11
 437 -29 437 -29 350.5 -29 c 128,-1,12
 264 -29 264 -29 206 -0.5 c 128,-1,13
 148 28 148 28 114 78 c 0,14,15
 45 179 45 179 45 326 c 0,16,17
 46 449 46 449 98 544 c 0,18,19
 126 594 126 594 177 624 c 128,-1,20
 228 654 228 654 298 654 c 0,21,22
 358 654 358 654 420 629 c 0,23,24
 440 621 440 621 466 598 c 0,25,26
 492 574 492 574 501 566 c 0,27,28
 535 530 535 530 545 517 c 1,29,30
 560 524 560 524 576 532 c 128,-1,31
 592 540 592 540 599 544 c 0,32,33
 616 552 616 552 633 552.5 c 128,-1,34
 650 553 650 553 650 531 c 128,-1,35
 650 509 650 509 632.5 497 c 128,-1,36
 615 485 615 485 566.5 464.5 c 128,-1,37
 518 444 518 444 494 432 c 1,38,-1
 489 437 l 2,39,40
 489 438 489 438 476.5 453.5 c 128,-1,41
 464 469 464 469 442.5 491.5 c 128,-1,42
 421 514 421 514 396 536.5 c 128,-1,43
 371 559 371 559 341 574.5 c 128,-1,44
 311 590 311 590 286 590 c 0,45,46
 236 590 236 590 191 501.5 c 128,-1,47
 146 413 146 413 146 345.5 c 128,-1,48
 146 278 146 278 171 223 c 128,-1,49
 196 168 196 168 235 134 c 0,50,51
 317 64 317 64 398 64 c 0,52,53
 443 64 443 64 493.5 78 c 128,-1,54
 544 92 544 92 574 107.5 c 128,-1,55
 604 123 604 123 607 131 c 0,56,57
 607 190 607 190 580.5 231 c 128,-1,58
 554 272 554 272 504 272 c 0,59,60
 500 272 500 272 480 264 c 0,61,62
 417 239 417 239 382 230 c 1,63,64
 372 237 372 237 369 253 c 128,-1,65
 366 269 366 269 362 274 c 1,66,67
 453 300 453 300 512 331 c 128,-1,68
 571 362 571 362 623 414 c 1,69,70
 640 383 640 383 644 365 c 5,0,1
EndSplineSet
Validated: 1
EndChar

StartChar: H
Encoding: 72 72 44
Width: 851
VWidth: -15
Flags: W
HStem: -17 70<268.27 461.051> -17 53<287.538 463.989> -15 56<50.6255 153.858 574.902 593.143 716.907 820.827> 301 79<266 391.251> 320 78<576.327 598 707 753.558> 580 56<51.626 124.641 264.356 291.185> 585 64<771.112 800.553> 586 49<571.031 594.781>
VStem: 156 110<58.5781 301 380 575.379> 598 107<58.5352 320 404 575.317>
LayerCount: 2
Back
Fore
SplineSet
707 324 m 1,0,-1
 706 76 l 2,1,2
 706 58 706 58 774 48 c 0,3,4
 800 44 800 44 821.5 29.5 c 128,-1,5
 843 15 843 15 843 -19 c 1,6,7
 724 -2 724 -2 656 -2 c 0,8,9
 641 -2 641 -2 620 -9.5 c 128,-1,10
 599 -17 599 -17 565 -17 c 1,11,12
 565 40 565 40 580 45 c 128,-1,13
 595 50 595 50 595 80 c 128,-1,14
 595 110 595 110 598 320 c 1,15,-1
 266 301 l 1,16,-1
 266 72 l 2,17,18
 266 58 266 58 324 53 c 128,-1,19
 382 48 382 48 441 36 c 128,-1,20
 500 24 500 24 500 -17 c 1,21,22
 250 -8 250 -8 237 -8 c 0,23,24
 185 -8 185 -8 127 -15 c 0,25,26
 74 -22 74 -22 31 -22 c 1,27,28
 31 12 31 12 50 26 c 0,29,30
 70 40 70 40 92 41 c 0,31,32
 156 46 156 46 156 67 c 2,33,-1
 156 552 l 2,34,35
 156 580 156 580 95 580 c 0,36,37
 71 580 71 580 51 591.5 c 128,-1,38
 31 603 31 603 31 636 c 1,39,-1
 198 625 l 24,40,-1
 301 637 l 1,41,42
 301 583 301 583 282 578 c 0,43,44
 264 573 264 573 264 552 c 2,45,-1
 264 380 l 1,46,-1
 598 398 l 1,47,48
 599 449 599 449 599 563 c 0,49,50
 599 577 599 577 595 581 c 0,51,52
 588 586 588 586 582 586 c 3,53,54
 564 586 564 586 564 635 c 1,55,56
 594 635 594 635 615.5 632 c 128,-1,57
 637 629 637 629 646 629 c 24,58,-1
 841 649 l 1,59,60
 841 595 841 595 772 585 c 0,61,62
 705 575 705 575 705 558 c 2,63,-1
 705 404 l 1,64,-1
 781 408 l 1,65,66
 781 367 781 367 754 340 c 0,67,68
 740 326 740 326 707 324 c 1,0,-1
EndSplineSet
Validated: 8388609
EndChar

StartChar: J
Encoding: 74 74 45
Width: 331
VWidth: -10
Flags: W
HStem: -152 67<100.281 171.47> 577 52<82.1241 177.834>
VStem: 179 117<-42.9441 576.468>
LayerCount: 2
Back
Fore
SplineSet
85 -38 m 1,0,1
 109 -85 109 -85 136 -85 c 128,-1,2
 163 -85 163 -85 171 -69 c 128,-1,3
 179 -53 179 -53 179 -6 c 2,4,-1
 179 541 l 2,5,6
 179 560 179 560 175 577 c 1,7,8
 108 579 108 579 62.5 593 c 128,-1,9
 17 607 17 607 17 635 c 0,10,11
 17 645 17 645 25 654.5 c 128,-1,12
 33 664 33 664 45.5 664 c 128,-1,13
 58 664 58 664 91 646.5 c 128,-1,14
 124 629 124 629 161.5 629 c 128,-1,15
 199 629 199 629 235 645.5 c 128,-1,16
 271 662 271 662 287 662 c 2,17,-1
 296 662 l 1,18,-1
 296 56 l 2,19,20
 296 -22 296 -22 246.5 -87 c 128,-1,21
 197 -152 197 -152 138 -152 c 0,22,23
 102 -152 102 -152 71.5 -136 c 128,-1,24
 41 -120 41 -120 41 -90 c 0,25,26
 41 -75 41 -75 50.5 -62 c 128,-1,27
 60 -49 60 -49 68 -44 c 128,-1,28
 76 -39 76 -39 78 -39 c 2,29,-1
 85 -38 l 1,0,1
EndSplineSet
Validated: 1
EndChar

StartChar: K
Encoding: 75 75 46
Width: 646
VWidth: -15
Flags: W
HStem: -21 45<213.1 297.994 561.537 623.838> -20 56<28.8912 96> 597 46<24.1406 95.2235 211.632 279.689 555.66 596.426>
VStem: 96 115<39.3895 296.831 369 595.397>
DStem2: 325 460.5 335 386 0.774661 0.632376<-39.3654 284.23> 427 259.5 370 142 0.512168 -0.858885<-130.114 268.962>
LayerCount: 2
Back
Fore
SplineSet
60 597 m 128,-1,1
 24 597 24 597 24 622 c 0,2,3
 24 643 24 643 51 643 c 0,4,5
 63 643 63 643 98.5 636 c 128,-1,6
 134 629 134 629 154.5 629 c 128,-1,7
 175 629 175 629 209.5 635 c 128,-1,8
 244 641 244 641 254 641 c 0,9,10
 280 641 280 641 280 622.5 c 128,-1,11
 280 604 280 604 245.5 598 c 128,-1,12
 211 592 211 592 211 582 c 2,13,-1
 211 369 l 1,14,15
 240 389 240 389 325 460.5 c 128,-1,16
 410 532 410 532 480.5 589 c 128,-1,17
 551 646 551 646 565.5 646 c 128,-1,18
 580 646 580 646 588.5 635 c 128,-1,19
 597 624 597 624 598 613 c 2,20,-1
 599 602 l 1,21,-1
 599 595 l 1,22,23
 542 582 542 582 406 451 c 0,24,25
 350 397 350 397 335 386 c 1,26,27
 371 352 371 352 427 259.5 c 128,-1,28
 483 167 483 167 527 95.5 c 128,-1,29
 571 24 571 24 589 24 c 0,30,31
 600 24 600 24 612 16.5 c 128,-1,32
 624 9 624 9 624 -0.5 c 128,-1,33
 624 -10 624 -10 582.5 -15.5 c 128,-1,34
 541 -21 541 -21 506 -21 c 0,35,36
 482 -21 482 -21 443 30 c 128,-1,37
 404 81 404 81 370 142 c 0,38,39
 279 305 279 305 245 305 c 0,40,41
 237 305 237 305 224 283 c 128,-1,42
 211 261 211 261 211 241 c 2,43,-1
 211 51 l 2,44,45
 211 43 211 43 232.5 39.5 c 128,-1,46
 254 36 254 36 276 28 c 128,-1,47
 298 20 298 20 298 2 c 128,-1,48
 298 -16 298 -16 272 -16 c 1,49,-1
 155 -8 l 1,50,51
 134 -8 134 -8 95 -14 c 128,-1,52
 56 -20 56 -20 44 -20 c 0,53,54
 16 -20 16 -20 16 -1 c 128,-1,55
 16 18 16 18 28.5 26.5 c 128,-1,56
 41 35 41 35 56 36 c 0,57,58
 96 37 96 37 96 55 c 2,59,-1
 96 577 l 2,60,0
 96 597 96 597 60 597 c 128,-1,1
EndSplineSet
Validated: 8388609
EndChar

StartChar: L
Encoding: 76 76 47
Width: 645
VWidth: -10
Flags: W
HStem: -18 21G<26 46.5> -10 62<45.5945 149.289 358.401 487.581> -2 54<271.77 435.355> 590 59<59.0625 147.129> 591 47<265.441 381.25>
VStem: 150 113<60.7653 582.142> 586 41<-126 -10>
LayerCount: 2
Back
Fore
SplineSet
262 557 m 2,0,-1
 263 76 l 2,1,2
 263 69 263 69 271.5 60.5 c 128,-1,3
 280 52 280 52 305 52 c 0,4,5
 472 52 472 52 554 102 c 0,6,7
 592 126 592 126 603 159 c 1,8,9
 615 159 615 159 620 141.5 c 128,-1,10
 625 124 625 124 626 107 c 2,11,-1
 627 90 l 1,12,-1
 627 -126 l 1,13,-1
 586 -126 l 1,14,-1
 586 -10 l 1,15,16
 521 -2 521 -2 211 -2 c 0,17,18
 174 -2 174 -2 120.5 -10 c 128,-1,19
 67 -18 67 -18 26 -18 c 1,20,21
 26 17 26 17 45 31 c 128,-1,22
 64 45 64 45 86 47 c 0,23,24
 150 54 150 54 150 73 c 2,25,-1
 150 557 l 2,26,27
 150 585 150 585 90 590 c 0,28,29
 26 595 26 595 26 649 c 1,30,31
 81 649 81 649 129 638 c 0,32,33
 168 629 168 629 191 629 c 131,-1,34
 214 629 214 629 290 638 c 0,35,36
 373 648 373 648 404 649 c 1,37,38
 404 617 404 617 382 605 c 0,39,40
 358 593 358 593 332 591 c 0,41,42
 262 586 262 586 262 557 c 2,0,-1
EndSplineSet
Validated: 8388609
EndChar

StartChar: M
Encoding: 77 77 48
Width: 842
VWidth: -15
Flags: W
HStem: -26 55<577.797 625.822 746.921 818.531> -22 60<42.86 103.625 181.829 227.171> 571 50<521.236 587.991> 579.5 45.5<92.0485 185.996 694.007 739.749> 580 56<694.416 739.749> 584 62<271.256 298.592> 590 35<81.5366 132.252>
VStem: 104 67<42.1592 190.408> 588 106<484.432 570.079> 611 106<98.8945 400.925> 628 113<38.8372 258.599>
LayerCount: 2
Back
Fore
SplineSet
539.5 406 m 128,-1,1
 588 545 588 545 588 558 c 128,-1,2
 588 571 588 571 553 571 c 128,-1,3
 518 571 518 571 518 611 c 1,4,5
 570 621 570 621 608 621 c 128,-1,6
 646 621 646 621 688 628 c 0,7,8
 730 636 730 636 748 636 c 1,9,10
 748 605 748 605 740 593 c 0,11,12
 732 580 732 580 721 580 c 0,13,14
 694 579 694 579 694 559 c 0,15,16
 694 534 694 534 717 325.5 c 128,-1,17
 740 117 740 117 741 70 c 0,18,19
 741 38 741 38 787 33 c 0,20,21
 804 31 804 31 819 19 c 128,-1,22
 834 7 834 7 834 -27 c 1,23,24
 808 -24 808 -24 784 -19 c 0,25,26
 739 -10 739 -10 699 -10 c 0,27,28
 661 -10 661 -10 628 -18 c 0,29,30
 593 -26 593 -26 568 -26 c 1,31,32
 568 8 568 8 577.5 18.5 c 128,-1,33
 587 29 587 29 599 29 c 0,34,35
 628 29 628 29 628 66 c 128,-1,36
 628 103 628 103 611 220 c 128,-1,37
 594 337 594 337 590 403 c 1,38,39
 496 134 496 134 425 -17 c 1,40,41
 381 151 381 151 242 436 c 1,42,43
 225 349 225 349 198 215 c 128,-1,44
 171 81 171 81 171 64 c 128,-1,45
 171 47 171 47 181.5 42 c 128,-1,46
 192 37 192 37 204.5 36.5 c 128,-1,47
 217 36 217 36 227.5 24.5 c 128,-1,48
 238 13 238 13 238 -19 c 1,49,50
 218 -19 218 -19 196 -16 c 0,51,52
 158 -11 158 -11 130 -11 c 128,-1,53
 102 -11 102 -11 80.5 -16.5 c 128,-1,54
 59 -22 59 -22 31 -22 c 1,55,56
 31 12 31 12 42.5 24.5 c 128,-1,57
 54 37 54 37 68 38 c 0,58,59
 104 41 104 41 104 62 c 128,-1,60
 104 83 104 83 145 304 c 128,-1,61
 186 525 186 525 186 563 c 0,62,63
 186 577 186 577 171.5 579.5 c 128,-1,64
 157 582 157 582 133 583 c 128,-1,65
 109 584 109 584 91.5 590 c 128,-1,66
 74 596 74 596 74 625 c 1,67,-1
 187 625 l 2,68,69
 203 625 203 625 248 635.5 c 128,-1,70
 293 646 293 646 312 646 c 1,71,72
 312 627 312 627 302 611.5 c 128,-1,73
 292 596 292 596 283 590 c 128,-1,74
 274 584 274 584 271 584 c 1,75,76
 416 274 416 274 453 174 c 1,77,0
 491 267 491 267 539.5 406 c 128,-1,1
EndSplineSet
Validated: 8388609
EndChar

StartChar: O
Encoding: 79 79 49
Width: 740
VWidth: -15
Flags: W
HStem: -17 55<336.115 529.596> 591 57<274.247 452.799>
VStem: 46 124<208.071 455.158> 600 113<152.311 415.446>
LayerCount: 2
Back
Fore
SplineSet
600 264 m 0,0,1
 600 418 600 418 531.5 504.5 c 128,-1,2
 463 591 463 591 351 591 c 0,3,4
 276 591 276 591 223 520.5 c 128,-1,5
 170 450 170 450 170 341 c 0,6,7
 170 194 170 194 250 116 c 128,-1,8
 330 38 330 38 460 38 c 0,9,10
 500 38 500 38 529 59 c 128,-1,11
 558 80 558 80 572 115 c 0,12,13
 600 181 600 181 600 264 c 0,0,1
436 -17 m 0,14,15
 246 -17 246 -17 146 70.5 c 128,-1,16
 46 158 46 158 46 318.5 c 128,-1,17
 46 479 46 479 141 563.5 c 128,-1,18
 236 648 236 648 403 648 c 0,19,20
 531 648 531 648 622 550 c 128,-1,21
 713 452 713 452 713 322 c 0,22,23
 713 151 713 151 649 67 c 128,-1,24
 585 -17 585 -17 436 -17 c 0,14,15
EndSplineSet
Validated: 1
EndChar

StartChar: N
Encoding: 78 78 50
Width: 721
VWidth: -14
Flags: W
HStem: -15 49<220.512 356.938> -11 57<72.438 146.958 216 342.976> 576 39<50.0349 118.787> 584 54<58.1458 172.679 528.86 591 658 683.75>
VStem: 147 69<49.9648 438> 591 67<3.47559 43 190 587.451>
DStem2: 374 412 216 438 0.683634 -0.729825<-126.99 310.37>
LayerCount: 2
Back
Fore
SplineSet
603 638 m 1,0,-1
 693 645 l 1,1,2
 692 604 692 604 684 595 c 0,3,4
 676 587 676 587 667 587 c 131,-1,5
 658 587 658 587 658 580 c 2,6,-1
 658 -38 l 1,7,8
 624 -13 624 -13 608 11 c 0,9,10
 588 41 588 41 586 42 c 1,11,-1
 586 43 l 1,12,-1
 216 438 l 1,13,-1
 216 64 l 2,14,15
 216 50 216 50 257 47 c 128,-1,16
 298 44 298 44 339 34 c 128,-1,17
 380 24 380 24 380 -15 c 1,18,-1
 202 -7 l 2,19,20
 173 -7 173 -7 138.5 -11 c 128,-1,21
 104 -15 104 -15 58 -15 c 1,22,23
 58 19 58 19 72 31.5 c 128,-1,24
 86 44 86 44 102 46 c 0,25,26
 146 50 146 50 147 69 c 2,27,-1
 147 568 l 2,28,29
 147 578 147 578 142.5 581 c 128,-1,30
 138 584 138 584 126 584 c 128,-1,31
 114 584 114 584 101 580 c 128,-1,32
 88 576 88 576 76 576 c 0,33,34
 37 576 37 576 37 615 c 1,35,36
 55 618 55 618 90 628 c 128,-1,37
 125 638 125 638 163 638 c 3,38,39
 203 638 203 638 216 595 c 24,40,41
 223 572 223 572 374 412 c 128,-1,42
 525 252 525 252 591 190 c 1,43,-1
 591 578 l 2,44,45
 591 588 591 588 554 588 c 0,46,47
 540 588 540 588 528.5 599.5 c 128,-1,48
 517 611 517 611 517 645 c 1,49,-1
 603 638 l 1,0,-1
EndSplineSet
Validated: 8388609
EndChar

StartChar: Q
Encoding: 81 81 51
Width: 763
VWidth: -7
Flags: W
HStem: -176 61<695.235 753.767> -6 54<336.767 529.479> 602 56<275.283 452.533>
VStem: 48 123<214.305 466.597> 582 108<-113.891 -10.3804> 599 116<159.257 427.089>
LayerCount: 2
Back
Fore
SplineSet
599 274 m 3,0,1
 599 428 599 428 531.5 515 c 128,-1,2
 464 602 464 602 352 602 c 0,3,4
 278 602 278 602 224.5 531 c 128,-1,5
 171 460 171 460 171 351 c 0,6,7
 171 204 171 204 250.5 126 c 128,-1,8
 330 48 330 48 459 48 c 0,9,10
 499 48 499 48 528 69 c 0,11,12
 555 88 555 88 572 125 c 0,13,14
 599 184 599 184 599 274 c 3,0,1
436 -6 m 0,15,16
 247 -6 247 -6 147.5 81 c 128,-1,17
 48 168 48 168 48 328.5 c 128,-1,18
 48 489 48 489 142.5 573.5 c 128,-1,19
 237 658 237 658 402 658 c 0,20,21
 529 658 529 658 622 559.5 c 128,-1,22
 715 461 715 461 715 332 c 0,23,24
 715 134 715 134 634 57 c 1,25,26
 666 48 666 48 679 18 c 0,27,28
 690 -11 690 -11 690 -41 c 3,29,30
 690 -115 690 -115 715 -115 c 0,31,32
 738 -115 738 -115 757 -89 c 128,-1,33
 776 -63 776 -63 789 -63 c 0,34,35
 805 -63 805 -63 805 -86 c 128,-1,36
 805 -109 805 -109 771.5 -142.5 c 128,-1,37
 738 -176 738 -176 702 -176 c 128,-1,38
 666 -176 666 -176 640 -162 c 0,39,40
 616 -148 616 -148 604 -128 c 0,41,42
 582 -90 582 -90 582 -56 c 128,-1,43
 582 -22 582 -22 571.5 -10 c 128,-1,44
 561 2 561 2 534.5 2 c 128,-1,45
 508 2 508 2 475.5 -2 c 128,-1,46
 443 -6 443 -6 436 -6 c 0,15,16
EndSplineSet
Validated: 8388609
EndChar

StartChar: R
Encoding: 82 82 52
Width: 704
VWidth: -14
Flags: W
HStem: -18 56<32.373 152.516> -13 72<624.035 677.898> -6 49<265.743 395.842> 3 53<264 378.106> 274 34<310.539 321> 557 44<27.0042 119.133>
VStem: 142 122<341.875 534.934> 159 106<56 274 339.654 523.883> 485 105<341.846 525.046>
DStem2: 490 263 438 146 0.560478 -0.828169<0.774636 269.105>
LayerCount: 2
Back
Fore
SplineSet
346.5 49 m 128,-1,1
 373 43 373 43 382 43 c 128,-1,2
 391 43 391 43 396 35.5 c 128,-1,3
 401 28 401 28 401 19 c 128,-1,4
 401 10 401 10 396 2 c 128,-1,5
 391 -6 391 -6 378.5 -6 c 128,-1,6
 366 -6 366 -6 341 -1.5 c 128,-1,7
 316 3 316 3 235 3 c 0,8,9
 154 2 154 2 116 -8 c 128,-1,10
 78 -18 78 -18 60 -18 c 0,11,12
 30 -18 30 -18 30 3 c 0,13,14
 30 15 30 15 38 26.5 c 128,-1,15
 46 38 46 38 60 38 c 0,16,17
 138 38 138 38 153 55 c 1,18,19
 159 74 159 74 159 196 c 0,20,21
 158 318 158 318 154 374 c 0,22,23
 150 424 150 424 142 515 c 0,24,25
 141 526 141 526 106.5 541.5 c 128,-1,26
 72 557 72 557 43 557 c 0,27,28
 27 557 27 557 27 579 c 128,-1,29
 27 601 27 601 44 601 c 0,30,31
 94 601 94 601 127 589 c 128,-1,32
 160 577 160 577 210 577 c 3,33,34
 240 577 240 577 274 614 c 0,35,36
 287 628 287 628 314.5 640 c 128,-1,37
 342 652 342 652 378 652 c 0,38,39
 476 652 476 652 533 593.5 c 128,-1,40
 590 535 590 535 590 434 c 0,41,42
 590 379 590 379 563 333 c 128,-1,43
 536 287 536 287 490 263 c 1,44,45
 503 242 503 242 525 210 c 0,46,47
 562 157 562 157 624 65 c 0,48,49
 625 63 625 63 640 59 c 0,50,51
 682 48 682 48 682 25 c 0,52,53
 682 -13 682 -13 612 -13 c 128,-1,54
 542 -13 542 -13 526 10 c 0,55,56
 510 32 510 32 482 78 c 128,-1,57
 454 124 454 124 438 146 c 0,58,59
 422 170 422 170 391 200 c 0,60,61
 321 268 321 268 265 274 c 1,62,-1
 264 56 l 1,63,0
 320 55 320 55 346.5 49 c 128,-1,1
349 571 m 0,64,65
 327 571 327 571 302 555.5 c 128,-1,66
 277 540 277 540 264 527 c 1,67,-1
 265 362 l 1,68,69
 308 308 308 308 383 308 c 0,70,71
 442 308 442 308 463.5 339 c 128,-1,72
 485 370 485 370 485 438.5 c 128,-1,73
 485 507 485 507 452 539 c 128,-1,74
 419 571 419 571 349 571 c 0,64,65
EndSplineSet
Validated: 8388609
EndChar

StartChar: S
Encoding: 83 83 53
Width: 636
VWidth: -12
Flags: W
HStem: -28 83<287.497 432.534> 246 126<197.109 317.894> 587 69<226.983 322.247> 605 20G<544 555.5>
VStem: 34 51<-93.3164 -68> 81 101<348 501.671> 507 103<154.196 295.477>
DStem2: 41 -47 85 -68 0.348488 0.937313<-36.6357 81.9188> 499 550 527 512 0.5547 0.83205<0 83.3962>
LayerCount: 2
Back
Fore
SplineSet
134 163 m 1,0,1
 296 55 296 55 379 55 c 0,2,3
 420 55 420 55 463.5 109 c 128,-1,4
 507 163 507 163 507 222 c 0,5,6
 507 257 507 257 491.5 285 c 128,-1,7
 476 313 476 313 454 313 c 128,-1,8
 432 313 432 313 348 279.5 c 128,-1,9
 264 246 264 246 205 246 c 128,-1,10
 146 246 146 246 113.5 283 c 128,-1,11
 81 320 81 320 81 376 c 0,12,13
 81 504 81 504 153 580 c 128,-1,14
 225 656 225 656 318 656 c 0,15,16
 351 656 351 656 403 623.5 c 128,-1,17
 455 591 455 591 499 550 c 1,18,-1
 528 602 l 1,19,20
 537 625 537 625 551 625 c 0,21,22
 560 625 560 625 569 618.5 c 128,-1,23
 578 612 578 612 578 598 c 128,-1,24
 578 584 578 584 571 577 c 1,25,-1
 527 512 l 2,26,27
 509 485 509 485 471 427 c 1,28,29
 489 430 489 430 511.5 430 c 128,-1,30
 534 430 534 430 556 414 c 128,-1,31
 578 398 578 398 589 372 c 0,32,33
 610 322 610 322 610 263.5 c 128,-1,34
 610 205 610 205 585 147.5 c 128,-1,35
 560 90 560 90 522.5 52.5 c 128,-1,36
 485 15 485 15 442 -6.5 c 128,-1,37
 399 -28 399 -28 349 -28 c 128,-1,38
 299 -28 299 -28 226 -16 c 128,-1,39
 153 -4 153 -4 112 14 c 1,40,-1
 85 -68 l 1,41,42
 85 -77 85 -77 78 -85.5 c 128,-1,43
 71 -94 71 -94 62 -94 c 128,-1,44
 53 -94 53 -94 43.5 -87 c 128,-1,45
 34 -80 34 -80 34 -70 c 1,46,-1
 41 -47 l 1,47,48
 46 -36 46 -36 77.5 47 c 128,-1,49
 109 130 109 130 134 163 c 1,0,1
241 372 m 128,-1,51
 265 372 265 372 292.5 379 c 128,-1,52
 320 386 320 386 376.5 403 c 128,-1,53
 433 420 433 420 452 425 c 1,54,55
 340 587 340 587 259 587 c 0,56,57
 236 587 236 587 209 538 c 128,-1,58
 182 489 182 489 182 428 c 0,59,60
 182 403 182 403 199.5 387.5 c 128,-1,50
 217 372 217 372 241 372 c 128,-1,51
EndSplineSet
Validated: 1
EndChar

StartChar: U
Encoding: 85 85 54
Width: 720
VWidth: -15
Flags: W
HStem: -31 74<277.529 425.677>
VStem: 99 113<111.234 602.889> 523 112<112.477 601.194>
LayerCount: 2
Back
Fore
SplineSet
99 216 m 1,0,-1
 103 580 l 2,1,2
 103 594 103 594 74 605.5 c 128,-1,3
 45 617 45 617 45 629 c 0,4,5
 45 652 45 652 217 652 c 2,6,-1
 227 652 l 1,7,8
 218 602 218 602 215.5 533.5 c 128,-1,9
 213 465 213 465 212 211 c 0,10,11
 212 128 212 128 253 85.5 c 128,-1,12
 294 43 294 43 352 43 c 0,13,14
 393 43 393 43 425.5 56 c 128,-1,15
 458 69 458 69 477 84.5 c 128,-1,16
 496 100 496 100 509.5 129 c 128,-1,17
 523 158 523 158 523 195 c 2,18,-1
 521 556 l 2,19,20
 521 592 521 592 488 612 c 0,21,22
 477 618 477 618 477 626 c 0,23,24
 477 642 477 642 526 648 c 128,-1,25
 575 654 575 654 622 654 c 0,26,27
 639 654 639 654 639 577 c 2,28,-1
 635 123 l 2,29,30
 635 94 635 94 645.5 75 c 128,-1,31
 656 56 656 56 669 50 c 0,32,33
 703 34 703 34 703 19 c 128,-1,34
 703 4 703 4 683.5 -11.5 c 128,-1,35
 664 -27 664 -27 636.5 -27 c 128,-1,36
 609 -27 609 -27 579 -3 c 128,-1,37
 549 21 549 21 535 54 c 1,38,39
 505 17 505 17 430.5 -7 c 128,-1,40
 356 -31 356 -31 299 -31 c 0,41,42
 222 -31 222 -31 160.5 42 c 128,-1,43
 99 115 99 115 99 216 c 1,0,-1
EndSplineSet
Validated: 1
EndChar

StartChar: T
Encoding: 84 84 55
Width: 683
VWidth: -17
Flags: W
HStem: -13 57<487.059 545.186> 7 37<191.976 284.602> 530 82<111.669 292.736 407.129 504.335> 533 69<407.129 614.139> 542 80<75.822 286.612>
VStem: 18 52<493.346 540.883> 293 110<56 523.813> 624 59<618.284 682.704>
LayerCount: 2
Back
Fore
SplineSet
335 7 m 3,0,1
 310 7 310 7 258 -2 c 0,2,3
 194 -14 194 -14 137 -14 c 1,4,5
 137 18 137 18 161.5 30 c 128,-1,6
 186 42 186 42 215 44 c 0,7,8
 293 51 293 51 293 78 c 2,9,-1
 293 515 l 1,10,11
 285 527 285 527 221 534.5 c 128,-1,12
 157 542 157 542 97 542 c 0,13,14
 70 542 70 542 70 470 c 1,15,16
 36 479 36 479 26 493 c 0,17,18
 18 504 18 504 18 523 c 0,19,20
 18 569 18 569 42 595.5 c 128,-1,21
 66 622 66 622 109 622 c 0,22,23
 194 622 194 622 331.5 612 c 128,-1,24
 469 602 469 602 505.5 602 c 128,-1,25
 542 602 542 602 583 612.5 c 128,-1,26
 624 623 624 623 624 636 c 0,27,28
 624 651 624 651 589 674 c 1,29,-1
 649 713 l 1,30,-1
 670 690 l 2,31,32
 683 677 683 677 683 660 c 0,33,34
 683 616 683 616 649 576 c 0,35,36
 613 534 613 534 543 533 c 1,37,-1
 430 530 l 2,38,39
 411 530 411 530 407 524 c 128,-1,40
 403 518 403 518 403 515 c 2,41,-1
 403 78 l 2,42,43
 404 51 404 51 488 44 c 0,44,45
 520 42 520 42 546 30.5 c 128,-1,46
 572 19 572 19 572 -13 c 1,47,-1
 335 7 l 3,0,1
EndSplineSet
Validated: 8388609
EndChar

StartChar: V
Encoding: 86 86 56
Width: 614
VWidth: -15
Flags: W
VStem: 536 79<520.107 640.004>
DStem2: 191 564 106 510 0.415559 -0.909566<-95.9746 175.994 442.887 471.653>
LayerCount: 2
Back
Fore
SplineSet
26 622 m 0,0,1
 26 638 26 638 55.5 646.5 c 128,-1,2
 85 655 85 655 124 655 c 0,3,4
 145 655 145 655 191 564 c 128,-1,5
 237 473 237 473 298.5 330.5 c 128,-1,6
 360 188 360 188 387 135 c 1,7,8
 398 162 398 162 474 350 c 0,9,10
 536 504 536 504 536 528 c 3,11,12
 536 536 536 536 526 568 c 0,13,14
 515 600 515 600 515 630 c 0,15,16
 515 652 515 652 581 652 c 0,17,18
 615 652 615 652 615 622 c 0,19,20
 615 565 615 565 507.5 264 c 128,-1,21
 400 -37 400 -37 368 -37 c 0,22,23
 344 -37 344 -37 274 115 c 0,24,25
 218 239 218 239 168 360 c 0,26,27
 118 482 118 482 106 510 c 0,28,29
 83 565 83 565 53 589 c 0,30,31
 26 611 26 611 26 622 c 0,0,1
EndSplineSet
Validated: 1
EndChar

StartChar: W
Encoding: 87 87 57
Width: 974
VWidth: -14
Flags: W
VStem: 902 72<511.213 636.677>
DStem2: 185.5 565.5 107 512 0.376057 -0.926596<-88.5699 251.159> 359 138 423 122 0.342494 0.93952<1.61655 350.845> 657.5 391.5 533 448 0.379705 -0.925108<-99.5418 280.932>
LayerCount: 2
Back
Fore
SplineSet
902 530 m 0,0,1
 902 532 902 532 892 564 c 128,-1,2
 882 596 882 596 882 626 c 0,3,4
 882 649 882 649 943 649 c 0,5,6
 974 649 974 649 974 620 c 0,7,8
 974 563 974 563 877.5 262 c 128,-1,9
 781 -39 781 -39 752 -39 c 0,10,11
 736 -38 736 -38 704 30 c 0,12,13
 657 129 657 129 621 221 c 0,14,15
 564 370 564 370 533 448 c 1,16,17
 483 281 483 281 423 122 c 128,-1,18
 363 -37 363 -37 341 -37 c 0,19,20
 323 -36 323 -36 283 54 c 0,21,22
 219 198 219 198 107 512 c 0,23,24
 87 567 87 567 46 604 c 0,25,26
 35 614 35 614 35 622 c 0,27,28
 35 638 35 638 62 646.5 c 128,-1,29
 89 655 89 655 125 655 c 0,30,31
 145 655 145 655 185.5 565.5 c 128,-1,32
 226 476 226 476 280.5 333 c 128,-1,33
 335 190 335 190 359 138 c 1,34,35
 428 331 428 331 457.5 409 c 128,-1,36
 487 487 487 487 505 544 c 128,-1,37
 523 601 523 601 536 627 c 2,38,-1
 542 640 l 1,39,-1
 550 627 l 2,40,41
 573 588 573 588 657.5 391.5 c 128,-1,42
 742 195 742 195 770 134 c 1,43,44
 902 499 902 499 902 530 c 0,0,1
EndSplineSet
Validated: 1
EndChar

StartChar: X
Encoding: 88 88 58
Width: 614
VWidth: -15
Flags: W
HStem: -18 78<49.8203 127.389> 546 100<72.2852 129.73>
DStem2: 184 147 214.5 60 0.466974 0.884271<-89.6742 135.853 305.63 493.335>
LayerCount: 2
Back
Fore
SplineSet
570 91 m 1,0,1
 597 73 597 73 597 64 c 0,2,3
 597 48 597 48 569.5 15.5 c 128,-1,4
 542 -17 542 -17 509 -17 c 128,-1,5
 476 -17 476 -17 456 -8.5 c 128,-1,6
 436 0 436 0 412 30.5 c 128,-1,7
 388 61 388 61 306 240 c 1,8,9
 269 138 269 138 214.5 60 c 128,-1,10
 160 -18 160 -18 115 -18 c 0,11,12
 82 -18 82 -18 58 -2 c 128,-1,13
 34 14 34 14 34 30 c 0,14,15
 34 55 34 55 84 60 c 0,16,17
 127 65 127 65 184 147 c 0,18,19
 234 219 234 219 266 294 c 1,20,21
 249 329 249 329 196 421 c 128,-1,22
 143 513 143 513 115 546 c 1,23,24
 34 546 34 546 34 575 c 0,25,26
 34 596 34 596 67.5 621 c 128,-1,27
 101 646 101 646 120 646 c 0,28,29
 196 646 196 646 331 415 c 1,30,31
 436 643 436 643 512 643 c 0,32,33
 526 643 526 643 540 629 c 128,-1,34
 554 615 554 615 554 603 c 0,35,36
 554 576 554 576 508 552 c 0,37,38
 472 533 472 533 426 460.5 c 128,-1,39
 380 388 380 388 361 347 c 1,40,41
 498 73 498 73 515 64 c 1,42,43
 536 68 536 68 570 91 c 1,0,1
EndSplineSet
Validated: 1
EndChar

StartChar: Y
Encoding: 89 89 59
Width: 458
VWidth: -15
Flags: W
HStem: -8 56<106.543 206 320 400.318>
VStem: 206 114<48 332.312> 385 73<519.844 634.073>
DStem2: 160.5 576 71 551 0.478713 -0.877971<-82.1899 251.717> 281 355 320 301 0.468551 0.883436<0 264.454>
LayerCount: 2
Back
Fore
SplineSet
206 48 m 1,0,-1
 209 143 l 1,1,2
 209 209 209 209 203 299 c 1,3,4
 165 364 165 364 128 442 c 128,-1,5
 91 520 91 520 71 551 c 128,-1,6
 51 582 51 582 22 595 c 1,7,-1
 22 601 l 2,8,9
 22 617 22 617 51.5 631 c 128,-1,10
 81 645 81 645 104 646 c 1,11,-1
 108 646 l 1,12,13
 133 624 133 624 160.5 576 c 128,-1,14
 188 528 188 528 222.5 460.5 c 128,-1,15
 257 393 257 393 281 355 c 1,16,17
 317 415 317 415 331.5 440 c 128,-1,18
 346 465 346 465 365.5 509 c 128,-1,19
 385 553 385 553 385 587 c 128,-1,20
 385 621 385 621 393.5 634.5 c 128,-1,21
 402 648 402 648 430 648 c 128,-1,22
 458 648 458 648 458 615 c 0,23,24
 458 566 458 566 433.5 515 c 128,-1,25
 409 464 409 464 396.5 440 c 128,-1,26
 384 416 384 416 357.5 368.5 c 128,-1,27
 331 321 331 321 320 301 c 1,28,-1
 315 147 l 1,29,30
 315 98 315 98 320 48 c 0,31,32
 322 47 322 47 344 45 c 0,33,34
 401 40 401 40 401 22 c 0,35,36
 401 -8 401 -8 378 -8 c 0,37,38
 369 -8 369 -8 340 -1.5 c 128,-1,39
 311 5 311 5 277 5 c 128,-1,40
 243 5 243 5 180.5 -1 c 128,-1,41
 118 -7 118 -7 116.5 -7.5 c 128,-1,42
 115 -8 115 -8 111 -8 c 0,43,44
 98 -8 98 -8 98 10 c 0,45,46
 98 42 98 42 206 48 c 1,0,-1
EndSplineSet
Validated: 1
EndChar

StartChar: Z
Encoding: 90 90 60
Width: 630
VWidth: -10
Flags: W
HStem: -14 21G<34 244> 0 114<219 551.219> 553 105<75.8516 351.927> 561 83<85.116 351.927 354.073 462> 569 82<100.812 459.666>
VStem: 548 66<-120.277 -7> 548 50<-144.155 -8.87036>
LayerCount: 2
Back
Fore
SplineSet
533 651 m 3,0,1
 561 651 561 651 561 621 c 3,2,3
 561 604 561 604 476 478 c 0,4,5
 404 371 404 371 219 114 c 1,6,7
 476 114 476 114 532 108 c 0,8,9
 614 99 614 99 614 73 c 0,10,11
 614 -26 614 -26 598 -100 c 0,12,13
 586 -149 586 -149 562 -149 c 0,14,15
 548 -149 548 -149 548 -108 c 128,-1,16
 548 -67 548 -67 553 -7 c 1,17,18
 266 0 266 0 244 0 c 2,19,-1
 34 -14 l 1,20,21
 34 20 34 20 350 418 c 0,22,23
 456 551 456 551 462 561 c 1,24,25
 387 569 387 569 353 569 c 128,-1,26
 319 569 319 569 243 561 c 128,-1,27
 167 553 167 553 112 553 c 0,28,29
 90 553 90 553 65 518 c 0,30,31
 59 510 59 510 43 481 c 1,32,33
 43 658 43 658 83 658 c 3,34,35
 150 658 150 658 308 651 c 128,-1,36
 466 644 466 644 483.5 644 c 131,-1,37
 501 644 501 644 510 647 c 0,38,39
 519 651 519 651 533 651 c 3,0,1
EndSplineSet
Validated: 1
EndChar

StartChar: dieresis
Encoding: 168 168 61
Width: 262
VWidth: -31
Flags: W
HStem: 421 111<20.585 91.7227 163.054 233.322>
VStem: -1 119<446.487 506.532> 141 118<446.487 507.155>
LayerCount: 2
Back
Fore
SplineSet
200 421 m 128,-1,1
 188 421 188 421 164.5 440.5 c 128,-1,2
 141 460 141 460 141 473.5 c 128,-1,3
 141 487 141 487 162.5 509.5 c 128,-1,4
 184 532 184 532 194.5 532 c 128,-1,5
 205 532 205 532 232 511 c 128,-1,6
 259 490 259 490 259 479.5 c 128,-1,7
 259 469 259 469 235.5 445 c 128,-1,0
 212 421 212 421 200 421 c 128,-1,1
94 445 m 128,-1,9
 70 421 70 421 57.5 421 c 128,-1,10
 45 421 45 421 22 441 c 128,-1,11
 -1 461 -1 461 -1 474 c 128,-1,12
 -1 487 -1 487 20 509.5 c 128,-1,13
 41 532 41 532 51.5 532 c 128,-1,14
 62 532 62 532 90 511 c 128,-1,15
 118 490 118 490 118 479.5 c 128,-1,8
 118 469 118 469 94 445 c 128,-1,9
EndSplineSet
Validated: 1
EndChar

StartChar: degree
Encoding: 176 176 70
Width: 426
VWidth: -29
Flags: W
HStem: 363 51<128.825 191.934> 506 50<104.439 170.387>
VStem: 32 70<441.061 504.09> 192 72<414.331 484.603>
LayerCount: 2
Back
Fore
SplineSet
172 482 m 128,-1,1
 152 506 152 506 131.5 506 c 128,-1,2
 111 506 111 506 106.5 503 c 128,-1,3
 102 500 102 500 102 489 c 0,4,5
 102 462 102 462 127 438 c 128,-1,6
 152 414 152 414 172 414 c 128,-1,7
 192 414 192 414 192 436 c 135,-1,0
 192 458 192 458 172 482 c 128,-1,1
237 394.5 m 128,-1,9
 210 363 210 363 160.5 363 c 128,-1,10
 111 363 111 363 71.5 393.5 c 128,-1,11
 32 424 32 424 32 466.5 c 128,-1,12
 32 509 32 509 64 532.5 c 128,-1,13
 96 556 96 556 143 556 c 128,-1,14
 190 556 190 556 227 527.5 c 128,-1,15
 264 499 264 499 264 474 c 0,16,8
 264 426 264 426 237 394.5 c 128,-1,9
EndSplineSet
Validated: 1
EndChar

StartChar: asciicircum
Encoding: 94 94 74
Width: 442
VWidth: -28
Flags: W
HStem: 364 32<366.715 397.349>
DStem2: 102.5 461.5 148.5 427.5 0.872779 0.488115<-15.5651 109.142>
LayerCount: 2
Back
Fore
SplineSet
216 532 m 1,0,1
 254 514 254 514 286 488 c 0,2,3
 318 464 318 464 333 444 c 0,4,5
 370 396 370 396 414 396 c 1,6,7
 414 364 414 364 355 364 c 0,8,9
 318 364 318 364 254 430 c 0,10,11
 225 460 225 460 213 468 c 1,12,13
 176 449 176 449 148.5 427.5 c 128,-1,14
 121 406 121 406 120 398 c 2,15,16
 111 373 l 1,17,18
 62 366 62 366 59 366 c 0,19,20
 40 366 40 366 40 384 c 0,21,22
 41 415 41 415 102.5 461.5 c 128,-1,23
 164 508 164 508 216 532 c 1,0,1
EndSplineSet
Validated: 1
EndChar

StartChar: acute
Encoding: 180 180 86
Width: 208
VWidth: -34
Flags: W
HStem: 401 208
VStem: 15 178
LayerCount: 2
Back
Fore
SplineSet
153 609 m 4,0,1
 193 609 193 609 193 577 c 0,2,3
 193 548 193 548 126.5 474.5 c 128,-1,4
 60 401 60 401 25 401 c 2,5,-1
 15 401 l 1,6,-1
 18 412 l 2,7,8
 38 487 38 487 81.5 548 c 128,-1,9
 125 609 125 609 153 609 c 4,0,1
EndSplineSet
Validated: 1
EndChar

StartChar: grave
Encoding: 96 96 87
Width: 208
VWidth: -34
Flags: W
HStem: 401 208
VStem: 15 178
LayerCount: 2
Back
Fore
SplineSet
15 577 m 0,0,1
 15 609 15 609 55 609 c 0,2,3
 84 609 84 609 130.5 543 c 128,-1,4
 177 477 177 477 193 401 c 1,5,-1
 184 401 l 2,6,7
 149 401 149 401 82 474.5 c 128,-1,8
 15 548 15 548 15 577 c 0,0,1
EndSplineSet
Validated: 1
EndChar

StartChar: dotlessi
Encoding: 305 305 104
Width: 226
VWidth: -4
Flags: W
HStem: -18 21G<54.9353 77.5>
VStem: 55 93<66 321.091>
LayerCount: 2
Back
Fore
SplineSet
219 75 m 0,0,1
 219 58 219 58 155.5 20 c 128,-1,2
 92 -18 92 -18 63 -18 c 2,3,-1
 55 -18 l 1,4,-1
 54 291 l 2,5,6
 54 317 54 317 29.5 322 c 128,-1,7
 5 327 5 327 5 343 c 0,8,9
 7 358 7 358 60.5 374 c 128,-1,10
 114 390 114 390 148 393 c 1,11,-1
 148 66 l 1,12,13
 164 72 164 72 188 92 c 2,14,-1
 197 99 l 1,15,-1
 201 103 l 1,16,-1
 206 97 l 1,17,18
 219 86 219 86 219 75 c 0,0,1
EndSplineSet
Validated: 1
EndChar

StartChar: asciitilde
Encoding: 126 126 112
Width: 471
VWidth: -14
Flags: W
HStem: 236 78<273.744 401.607> 302 77<78.1404 216.096>
VStem: 444 15<355.481 369>
LayerCount: 2
Back
Fore
SplineSet
84 364.5 m 128,-1,1
 114 379 114 379 155 379 c 128,-1,2
 196 379 196 379 227.5 362.5 c 128,-1,3
 259 346 259 346 284 330 c 128,-1,4
 309 314 309 314 336 314 c 128,-1,5
 363 314 363 314 384.5 320 c 128,-1,6
 406 326 406 326 416 334 c 0,7,8
 439 352 439 352 444 372 c 1,9,-1
 459 369 l 1,10,11
 459 355 459 355 449.5 327.5 c 128,-1,12
 440 300 440 300 427.5 282.5 c 128,-1,13
 415 265 415 265 388.5 250.5 c 128,-1,14
 362 236 362 236 323 236 c 128,-1,15
 284 236 284 236 258.5 246.5 c 128,-1,16
 233 257 233 257 225 269 c 0,17,18
 203 302 203 302 154 302 c 0,19,20
 125 302 125 302 91 286 c 128,-1,21
 57 270 57 270 37 254 c 2,22,-1
 4 227 l 1,23,-1
 5 244 l 1,24,25
 5 262 5 262 15.5 288 c 128,-1,26
 26 314 26 314 40 332 c 128,-1,0
 54 350 54 350 84 364.5 c 128,-1,1
EndSplineSet
Validated: 1
EndChar

StartChar: Ccedilla
Encoding: 199 199 119
Width: 637
VWidth: -8
Flags: W
HStem: -198 54<313.923 392.7> -20 61<323.583 405.127> 598 64<213.138 333.525>
VStem: 16 100<246.445 456.869> 408 86<-129.03 -19.6768> 559 41<-81.1121 31>
LayerCount: 2
Back
Fore
SplineSet
600 151 m 1,0,-1
 600 -60 l 1,1,-1
 600 -63 l 1,2,3
 596 -66 596 -66 590 -72 c 0,4,5
 578 -85 578 -85 569 -85 c 2,6,-1
 567 -85 l 1,7,8
 560 -81 560 -81 560 -73 c 2,9,-1
 559 -50 l 1,10,11
 559 -14 559 -14 554 31 c 1,12,13
 515 6 515 6 476 -6 c 1,14,15
 494 -35 494 -35 494 -58 c 0,16,17
 494 -115 494 -115 454.5 -156.5 c 128,-1,18
 415 -198 415 -198 359 -198 c 0,19,20
 326 -198 326 -198 294 -171.5 c 128,-1,21
 262 -145 262 -145 262 -111 c 0,22,23
 262 -95 262 -95 277.5 -95 c 128,-1,24
 293 -95 293 -95 312 -119.5 c 128,-1,25
 331 -144 331 -144 335 -144 c 0,26,27
 408 -144 408 -144 408 -71 c 0,28,29
 408 -54 408 -54 401 -19 c 1,30,31
 382 -20 382 -20 311 -20 c 0,32,33
 211 -20 211 -20 143 30 c 0,34,35
 16 124 16 124 16 335 c 0,36,37
 16 410 16 410 49 485 c 128,-1,38
 82 560 82 560 141.5 611 c 128,-1,39
 201 662 201 662 269 662 c 0,40,41
 320 662 320 662 346 659.5 c 128,-1,42
 372 657 372 657 405.5 642 c 128,-1,43
 439 627 439 627 468 596 c 1,44,45
 480 606 480 606 496.5 620.5 c 128,-1,46
 513 635 513 635 521 642 c 0,47,48
 542 660 542 660 560 660 c 0,49,50
 576 660 576 660 576 631 c 0,51,52
 576 591 576 591 450 490 c 1,53,-1
 433 505 l 2,54,55
 327 598 327 598 258 598 c 0,56,57
 226 598 226 598 191.5 553.5 c 128,-1,58
 157 509 157 509 136.5 451.5 c 128,-1,59
 116 394 116 394 116 340 c 128,-1,60
 116 286 116 286 147.5 226 c 128,-1,61
 179 166 179 166 225 127 c 128,-1,62
 271 88 271 88 320.5 64.5 c 128,-1,63
 370 41 370 41 408 41 c 0,64,65
 422 41 422 41 444 55 c 128,-1,66
 466 69 466 69 512 103 c 128,-1,67
 558 137 558 137 587 157 c 1,68,-1
 600 165 l 1,69,-1
 600 151 l 1,0,-1
EndSplineSet
Validated: 1
EndChar

StartChar: ccedilla
Encoding: 231 231 120
Width: 378
VWidth: 3
Flags: W
HStem: -153 54<136.565 222.844> -13 68<185.289 239> 318 72<152.296 255.367>
VStem: 20 101<117.574 283.556> 239 85<-81.8973 -11.4939>
LayerCount: 2
Back
Fore
SplineSet
374 104 m 1,0,1
 373 102 373 102 369 93.5 c 128,-1,2
 365 85 365 85 363.5 82.5 c 128,-1,3
 362 80 362 80 358 72.5 c 128,-1,4
 354 65 354 65 351.5 61 c 128,-1,5
 349 57 349 57 344.5 50.5 c 128,-1,6
 340 44 340 44 336 40 c 0,7,8
 334 36 334 36 328 30 c 2,9,-1
 317 19 l 1,10,11
 324 2 324 2 324 -14 c 0,12,13
 324 -71 324 -71 285 -112 c 128,-1,14
 246 -153 246 -153 186 -153 c 0,15,16
 150 -153 150 -153 119 -127 c 128,-1,17
 88 -101 88 -101 88 -66 c 0,18,19
 88 -50 88 -50 101.5 -50 c 128,-1,20
 115 -50 115 -50 134.5 -74.5 c 128,-1,21
 154 -99 154 -99 159 -99 c 0,22,23
 239 -99 239 -99 239 -26 c 0,24,25
 239 -15 239 -15 238 -11 c 1,26,27
 218 -13 218 -13 206 -13 c 0,28,29
 121 -13 121 -13 70.5 47.5 c 128,-1,30
 20 108 20 108 20 198.5 c 128,-1,31
 20 289 20 289 73 339.5 c 128,-1,32
 126 390 126 390 221 390 c 0,33,34
 285 390 285 390 324.5 369 c 128,-1,35
 364 348 364 348 364 323 c 0,36,37
 364 309 364 309 354 296 c 128,-1,38
 344 283 344 283 335 277 c 128,-1,39
 326 271 326 271 306 259 c 1,40,41
 292 267 292 267 271 284 c 128,-1,42
 250 301 250 301 232 309.5 c 128,-1,43
 214 318 214 318 188.5 318 c 128,-1,44
 163 318 163 318 142 281.5 c 128,-1,45
 121 245 121 245 121 189 c 128,-1,46
 121 133 121 133 163 94 c 128,-1,47
 205 55 205 55 264 55 c 0,48,49
 294 55 294 55 313 85 c 128,-1,50
 332 115 332 115 344 115 c 0,51,52
 351 115 351 115 360 110 c 128,-1,53
 369 105 369 105 374 104 c 1,0,1
EndSplineSet
Validated: 1
EndChar

StartChar: zero
Encoding: 48 48 121
Width: 454
VWidth: -14
Flags: W
HStem: -6 70<194.037 285.426> 560 74<172.043 260.13>
VStem: 40 113.5<155.962 472.572> 50.5 102.5<296.7 503.73> 313 113<133.543 467.654>
LayerCount: 2
Back
Fore
SplineSet
163 511.5 m 128,-1,1
 153 463 153 463 153 383 c 135,-1,2
 153 303 153 303 153.5 282 c 128,-1,3
 154 261 154 261 155 229 c 128,-1,4
 156 197 156 197 158.5 180 c 128,-1,5
 161 163 161 163 166 140.5 c 128,-1,6
 171 118 171 118 178.5 107 c 128,-1,7
 186 96 186 96 196 84 c 0,8,9
 215 64 215 64 255 64 c 0,10,11
 284 64 284 64 298.5 117 c 128,-1,12
 313 170 313 170 313 244 c 0,13,14
 313 409 313 409 290 484.5 c 128,-1,15
 267 560 267 560 207 560 c 0,16,0
 173 560 173 560 163 511.5 c 128,-1,1
234 -6 m 7,17,18
 176 -6 176 -6 130.5 40.5 c 128,-1,19
 85 87 85 87 62.5 155.5 c 128,-1,20
 40 224 40 224 40 294.5 c 128,-1,21
 40 365 40 365 50.5 422.5 c 128,-1,22
 61 480 61 480 82.5 528.5 c 128,-1,23
 104 577 104 577 143 605.5 c 128,-1,24
 182 634 182 634 239 634 c 128,-1,25
 296 634 296 634 341 584 c 0,26,27
 426 490 426 490 426 299 c 0,28,29
 426 158 426 158 378.5 76 c 128,-1,30
 331 -6 331 -6 234 -6 c 7,17,18
EndSplineSet
Validated: 1
EndChar

StartChar: one
Encoding: 49 49 122
Width: 392
VWidth: -14
Flags: W
HStem: -7 52<34.178 159.741 260.506 369.226>
VStem: 163 97<58 534.998>
LayerCount: 2
Back
Fore
SplineSet
191 0 m 1,0,-1
 51 -7 l 2,1,2
 34 -7 34 -7 34 16.5 c 128,-1,3
 34 40 34 40 43 45 c 0,4,5
 58 52 58 52 163 58 c 1,6,-1
 162 525 l 2,7,8
 162 535 162 535 152.5 535 c 128,-1,9
 143 535 143 535 101 521.5 c 128,-1,10
 59 508 59 508 51 508 c 128,-1,11
 43 508 43 508 41 510 c 0,12,13
 36 515 36 515 36 553 c 0,14,15
 36 563 36 563 121.5 597 c 128,-1,16
 207 631 207 631 259 646 c 1,17,-1
 260 56 l 1,18,19
 276 56 276 56 318.5 51.5 c 128,-1,20
 361 47 361 47 369.5 43 c 128,-1,21
 378 39 378 39 378 23 c 128,-1,22
 378 7 378 7 369.5 -1 c 128,-1,23
 361 -9 361 -9 349 -9 c 2,24,-1
 191 0 l 1,0,-1
EndSplineSet
Validated: 1
EndChar

StartChar: two
Encoding: 50 50 123
Width: 539
VWidth: -14
Flags: W
HStem: -15 21G<75 114 469 485.5> -4 104<219.617 441.835> 542 101<191.539 316.988>
VStem: 64 85<387.129 493.898> 347 100<398.919 513.374> 457 44<107.469 174.296>
DStem2: 177.5 169 218 100 0.580806 0.814042<-32.6463 320.607>
LayerCount: 2
Back
Fore
SplineSet
457 137 m 0,0,1
 457 181 457 181 477 181 c 0,2,3
 486 181 486 181 493.5 174.5 c 128,-1,4
 501 168 501 168 501 156 c 0,5,6
 501 -15 501 -15 470 -15 c 0,7,8
 468 -15 468 -15 381.5 -9.5 c 128,-1,9
 295 -4 295 -4 235.5 -4 c 128,-1,10
 176 -4 176 -4 52 -17 c 1,11,12
 98 63 98 63 177.5 169 c 128,-1,13
 257 275 257 275 302 345 c 128,-1,14
 347 415 347 415 347 456 c 128,-1,15
 347 497 347 497 318 519.5 c 128,-1,16
 289 542 289 542 249.5 542 c 128,-1,17
 210 542 210 542 184.5 513 c 128,-1,18
 159 484 159 484 149 449 c 0,19,20
 122 356 122 356 97 356 c 0,21,22
 80 356 80 356 72 368.5 c 128,-1,23
 64 381 64 381 64 394 c 0,24,25
 64 483 64 483 124 563 c 128,-1,26
 184 643 184 643 259 643 c 128,-1,27
 334 643 334 643 390.5 595 c 128,-1,28
 447 547 447 547 447 470 c 0,29,30
 447 435 447 435 408.5 367 c 128,-1,31
 370 299 370 299 336 253 c 0,32,33
 296 199 296 199 218 100 c 1,34,-1
 290 100 l 2,35,36
 334 100 334 100 354 100 c 0,37,38
 372 102 372 102 396 102 c 0,39,40
 437 103 437 103 442 107 c 0,41,42
 457 122 457 122 457 137 c 0,0,1
EndSplineSet
Validated: 8388609
EndChar

StartChar: three
Encoding: 51 51 124
Width: 475
VWidth: -13
Flags: W
HStem: -25 71<195.378 309.013> 530 90<112 294>
VStem: 77 35<486.208 530> 334 113<71.9686 234.355>
DStem2: 55.5 37 81 20 0.326583 0.945169<-56.1535 23.3029> 294 530 269 388 0.577236 0.816577<-130.385 0>
LayerCount: 2
Back
Fore
SplineSet
112 520 m 2,0,1
 112 486 112 486 92 486 c 0,2,3
 82 486 82 486 77 515 c 128,-1,4
 72 544 72 544 72 570 c 2,5,-1
 72 620 l 1,6,-1
 433 620 l 1,7,-1
 269 388 l 1,8,9
 320 374 320 374 373 336 c 0,10,11
 405 313 405 313 426 273.5 c 128,-1,12
 447 234 447 234 447 185 c 0,13,14
 447 87 447 87 399 31 c 128,-1,15
 351 -25 351 -25 257 -25 c 0,16,17
 233 -25 233 -25 203.5 -14.5 c 128,-1,18
 174 -4 174 -4 155.5 7 c 128,-1,19
 137 18 137 18 114 34 c 128,-1,20
 91 50 91 50 90 50 c 0,21,22
 86 43 86 43 81 20 c 0,23,24
 69 -36 69 -36 57 -36 c 0,25,26
 41 -36 41 -36 41 -18 c 0,27,28
 41 1 41 1 55.5 37 c 128,-1,29
 70 73 70 73 72 78 c 2,30,-1
 98 160 l 1,31,32
 108 147 108 147 124.5 128 c 128,-1,33
 141 109 141 109 182.5 77.5 c 128,-1,34
 224 46 224 46 260 46 c 7,35,36
 334 46 334 46 334 171 c 0,37,38
 334 212 334 212 305.5 242 c 128,-1,39
 277 272 277 272 234 286 c 0,40,41
 168 308 168 308 132 312 c 1,42,-1
 294 530 l 1,43,-1
 112 530 l 1,44,-1
 112 520 l 2,0,1
EndSplineSet
Validated: 1
EndChar

StartChar: four
Encoding: 52 52 125
Width: 513
VWidth: -14
Flags: W
HStem: -8 54<189.738 294.083 394.001 489.357> 198 87<144 294> 209 84<392 427.079> 592 38<392 457.929>
VStem: 294 98<51.3352 204 293 507>
LayerCount: 2
Back
Fore
SplineSet
144 285 m 1,0,-1
 294 289 l 1,1,-1
 294 507 l 1,2,3
 228 390 228 390 144 285 c 1,0,-1
279 -2 m 128,-1,5
 228 -8 228 -8 207 -8 c 128,-1,6
 186 -8 186 -8 186 7 c 128,-1,7
 186 22 186 22 200 41 c 1,8,-1
 203 41 l 2,9,10
 226 41 226 41 259 45 c 128,-1,11
 292 49 292 49 295 54 c 1,12,-1
 294 204 l 1,13,-1
 42 198 l 1,14,-1
 42 273 l 1,15,16
 107 326 107 326 163.5 414 c 128,-1,17
 220 502 220 502 244 564 c 2,18,-1
 270 630 l 1,19,-1
 385 630 l 2,20,21
 458 630 458 630 458 610 c 0,22,23
 458 600 458 600 433.5 596 c 128,-1,24
 409 592 409 592 392 592 c 1,25,-1
 392 293 l 1,26,27
 416 295 416 295 430.5 320.5 c 128,-1,28
 445 346 445 346 473 346 c 1,29,30
 473 248 473 248 451 230 c 128,-1,31
 429 212 429 212 392 209 c 1,32,-1
 393 59 l 1,33,34
 414 46 414 46 480 46 c 2,35,-1
 486 46 l 1,36,37
 494 22 494 22 494 14 c 128,-1,38
 494 6 494 6 489.5 -1 c 128,-1,39
 485 -8 485 -8 469 -8 c 128,-1,40
 453 -8 453 -8 407.5 -2 c 128,-1,41
 362 4 362 4 346 4 c 128,-1,4
 330 4 330 4 279 -2 c 128,-1,5
EndSplineSet
Validated: 8388609
EndChar

StartChar: five
Encoding: 53 53 126
Width: 439
VWidth: -14
Flags: W
HStem: -8 63<134.312 263.2> 324 97<144.1 296> 557 67<142.83 305.751>
VStem: 40 103<397 549.125> 310 91<123.014 276.324>
LayerCount: 2
Back
Fore
SplineSet
40 484 m 1,0,-1
 42 599 l 1,1,2
 101 624 101 624 296 624 c 0,3,4
 359 624 359 624 376 586 c 0,5,6
 384 568 384 568 384 543 c 0,7,8
 384 493 384 493 359 493 c 0,9,10
 344 493 344 493 316 525 c 0,11,12
 290 557 290 557 226 557 c 0,13,14
 192 557 192 557 141 543 c 1,15,16
 142 523 142 523 142 490 c 0,17,18
 142 405 142 405 143 397 c 1,19,20
 192 421 192 421 270 421 c 0,21,22
 322 421 322 421 361.5 366.5 c 128,-1,23
 401 312 401 312 401 243 c 0,24,25
 401 136 401 136 343.5 64 c 128,-1,26
 286 -8 286 -8 206 -8 c 0,27,28
 154 -8 154 -8 97 11.5 c 128,-1,29
 40 31 40 31 40 51.5 c 128,-1,30
 40 72 40 72 52 104 c 128,-1,31
 64 136 64 136 77 155 c 1,32,33
 104 110 104 110 113 98 c 0,34,35
 144 56 144 56 213 55 c 0,36,37
 253 55 253 55 281.5 99.5 c 128,-1,38
 310 144 310 144 310 188 c 0,39,40
 310 324 310 324 181 324 c 0,41,42
 112 324 112 324 42 258 c 1,43,44
 40 332 40 332 40 484 c 1,0,-1
EndSplineSet
Validated: 1
EndChar

StartChar: six
Encoding: 54 54 127
Width: 467
VWidth: -13
Flags: W
HStem: -13 69<189.873 307.202> 340 63<189.933 298.904> 569 67<199.965 323.091>
VStem: 50 96<106.883 365.884> 337 102<91.3093 294.817>
LayerCount: 2
Back
Fore
SplineSet
244 636 m 3,0,1
 328 636 328 636 375 609 c 128,-1,2
 422 582 422 582 422 555 c 128,-1,3
 422 528 422 528 411.5 513.5 c 128,-1,4
 401 499 401 499 385 499 c 128,-1,5
 369 499 369 499 357 510 c 128,-1,6
 345 521 345 521 336 534 c 128,-1,7
 327 547 327 547 303.5 558 c 128,-1,8
 280 569 280 569 253 569 c 128,-1,9
 226 569 226 569 213.5 560.5 c 128,-1,10
 201 552 201 552 193 538 c 0,11,12
 186 524 186 524 180 502 c 0,13,14
 167 451 167 451 160 368 c 1,15,16
 198 403 198 403 278 403 c 0,17,18
 334 403 334 403 372 369 c 0,19,20
 439 309 439 309 439 177 c 0,21,22
 439 111 439 111 389 49 c 128,-1,23
 339 -13 339 -13 255 -13 c 0,24,25
 201 -13 201 -13 160 7.5 c 128,-1,26
 119 28 119 28 96 62 c 0,27,28
 50 131 50 131 50 221 c 0,29,30
 50 416 50 416 98.5 526 c 128,-1,31
 147 636 147 636 244 636 c 3,0,1
175 301.5 m 128,-1,33
 146 263 146 263 146 196.5 c 131,-1,34
 146 130 146 130 175 93 c 128,-1,35
 204 56 204 56 259 56 c 0,36,37
 299 56 299 56 318 94 c 128,-1,38
 337 132 337 132 337 193 c 128,-1,39
 337 254 337 254 314 297 c 128,-1,40
 291 340 291 340 247.5 340 c 128,-1,32
 204 340 204 340 175 301.5 c 128,-1,33
EndSplineSet
Validated: 1
EndChar

StartChar: seven
Encoding: 55 55 128
Width: 495
VWidth: -14
Flags: W
HStem: -15 21G<41 54 358 385> -4 48<58.0167 153.836> 547 72<161.134 340.451>
DStem2: 166 81 260 66 0.369033 0.929416<15.948 477.527>
LayerCount: 2
Back
Fore
SplineSet
74 628 m 2,0,-1
 276 619 l 2,1,2
 288 619 288 619 365 626.5 c 128,-1,3
 442 634 442 634 467 634 c 1,4,5
 467 581 467 581 449 542 c 0,6,7
 442 526 442 526 354.5 305 c 128,-1,8
 267 84 267 84 260 66 c 1,9,10
 260 54 260 54 322 44 c 0,11,12
 346 40 346 40 365.5 25.5 c 128,-1,13
 385 11 385 11 385 -15 c 1,14,15
 331 -13 331 -13 289 -3.5 c 128,-1,16
 247 6 247 6 225.5 6 c 128,-1,17
 204 6 204 6 135.5 -4 c 128,-1,18
 67 -14 67 -14 41 -15 c 1,19,20
 41 12 41 12 57.5 26.5 c 128,-1,21
 74 41 74 41 95 44 c 0,22,23
 154 52 154 52 166 81 c 0,24,25
 192 140 192 140 266.5 330.5 c 128,-1,26
 341 521 341 521 341 525.5 c 128,-1,27
 341 530 341 530 334.5 538.5 c 128,-1,28
 328 547 328 547 316 547 c 0,29,30
 272 546 272 546 228 540.5 c 128,-1,31
 184 535 184 535 133 514 c 128,-1,32
 82 493 82 493 70 459 c 1,33,-1
 67 459 l 2,34,35
 56 459 56 459 46 513 c 2,36,-1
 43 531 l 1,37,38
 43 575 43 575 52 601.5 c 128,-1,39
 61 628 61 628 74 628 c 2,0,-1
EndSplineSet
Validated: 8388609
EndChar

StartChar: eight
Encoding: 56 56 129
Width: 492
VWidth: -14
Flags: W
HStem: -22 61<193.878 338.61> 570 63<192.971 304.733>
VStem: 41 111<82.3618 223.075> 79 91<423.647 546.826> 323 86<399.369 551.539> 375 89<77.272 210.082>
DStem2: 340 342 250 287 0.746445 -0.665447<1.03286 146.626>
LayerCount: 2
Back
Fore
SplineSet
170 485 m 4,0,1
 170 416 170 416 263 372 c 1,2,3
 274 374 274 374 285 381 c 128,-1,4
 296 388 296 388 309.5 416 c 128,-1,5
 323 444 323 444 323 487 c 0,6,7
 323 570 323 570 247 570 c 0,8,9
 214 570 214 570 192 547.5 c 128,-1,10
 170 525 170 525 170 485 c 4,0,1
375 160 m 7,11,12
 374 188 374 188 346 218 c 0,13,14
 306 260 306 260 250 287 c 1,15,16
 223 278 223 278 187.5 240 c 128,-1,17
 152 202 152 202 152 153.5 c 128,-1,18
 152 105 152 105 182 72 c 128,-1,19
 212 39 212 39 267 39 c 128,-1,20
 322 39 322 39 348.5 71.5 c 128,-1,21
 375 104 375 104 375 160 c 7,11,12
79 489 m 7,22,23
 79 561 79 561 132 597 c 128,-1,24
 185 633 185 633 255.5 633 c 128,-1,25
 326 633 326 633 367.5 590 c 128,-1,26
 409 547 409 547 409 490.5 c 128,-1,27
 409 434 409 434 396 399.5 c 128,-1,28
 383 365 383 365 340 342 c 1,29,30
 400 304 400 304 432 263 c 128,-1,31
 464 222 464 222 464 152.5 c 128,-1,32
 464 83 464 83 403 30.5 c 128,-1,33
 342 -22 342 -22 248.5 -22 c 128,-1,34
 155 -22 155 -22 98 24 c 128,-1,35
 41 70 41 70 41 160 c 0,36,37
 41 211 41 211 77.5 253.5 c 128,-1,38
 114 296 114 296 177 323 c 1,39,40
 121 354 121 354 100 394 c 128,-1,41
 79 434 79 434 79 489 c 7,22,23
EndSplineSet
Validated: 8388609
EndChar

StartChar: nine
Encoding: 57 57 130
Width: 459
VWidth: -13
Flags: W
HStem: -12 59<182.923 297.676> 237 62<179.445 289.797> 566 64<179.498 294.367>
VStem: 50 101<328.189 522.275> 329 102<133.989 499.658>
LayerCount: 2
Back
Fore
SplineSet
222 -12 m 0,0,1
 159 -12 159 -12 106.5 20.5 c 128,-1,2
 54 53 54 53 54 78.5 c 128,-1,3
 54 104 54 104 72.5 125 c 128,-1,4
 91 146 91 146 104 146 c 128,-1,5
 117 146 117 146 130.5 130.5 c 128,-1,6
 144 115 144 115 157 96.5 c 128,-1,7
 170 78 170 78 191 62.5 c 128,-1,8
 212 47 212 47 234 47 c 0,9,10
 293 47 293 47 308 87 c 128,-1,11
 323 127 323 127 331 265 c 0,12,13
 332 278 332 278 332 284 c 1,14,15
 274 237 274 237 222 237 c 0,16,17
 137 237 137 237 93.5 286.5 c 128,-1,18
 50 336 50 336 50 417.5 c 128,-1,19
 50 499 50 499 96.5 564.5 c 128,-1,20
 143 630 143 630 225 630 c 0,21,22
 326 630 326 630 378.5 562 c 128,-1,23
 431 494 431 494 431 321 c 128,-1,24
 431 148 431 148 380.5 68 c 128,-1,25
 330 -12 330 -12 222 -12 c 0,0,1
329 432 m 3,26,27
 329 566 329 566 232 566 c 0,28,29
 151 566 151 566 151 436 c 0,30,31
 151 334 151 334 192 310 c 0,32,33
 211 299 211 299 244.5 299 c 128,-1,34
 278 299 278 299 303.5 338.5 c 128,-1,35
 329 378 329 378 329 432 c 3,26,27
EndSplineSet
Validated: 1
EndChar

StartChar: underscore
Encoding: 95 95 131
Width: 541
VWidth: 13
Flags: W
HStem: -31 83<20.3453 477.746> -7 64<18.9648 198.406>
LayerCount: 2
Back
Fore
SplineSet
8 -7 m 1,0,1
 8 4 8 4 16 27 c 128,-1,2
 24 50 24 50 31 57 c 1,3,4
 40 57 40 57 82 56 c 0,5,6
 166 52 166 52 295 52 c 0,7,8
 428 52 428 52 484 55 c 0,9,10
 522 57 522 57 524 57 c 1,11,12
 524 10 524 10 520.5 5 c 128,-1,13
 517 0 517 0 481 -8 c 0,14,15
 377 -31 377 -31 258.5 -31 c 128,-1,16
 140 -31 140 -31 8 -7 c 1,0,1
EndSplineSet
Validated: 8388609
EndChar

StartChar: equal
Encoding: 61 61 132
Width: 569
VWidth: -10
Flags: W
HStem: 140 84<55.3687 509.969> 149 77<35.8711 40 44 299.494 307.88 527.759> 284 84<64.7065 517.969> 292 81<37.2921 47 49 306.894 314.88 532.625>
LayerCount: 2
Back
Fore
SplineSet
18 149 m 1,0,1
 31 226 31 226 40 226 c 1,2,-1
 41 229 l 1,3,-1
 44 228 l 1,4,5
 201 224 201 224 301 224 c 1,6,-1
 527 228 l 1,7,-1
 535 229 l 1,8,-1
 535 222 l 2,9,10
 535 190 535 190 530.5 177.5 c 128,-1,11
 526 165 526 165 510 149 c 1,12,-1
 508 149 l 1,13,14
 397 140 397 140 305 140 c 0,15,16
 128 140 128 140 53 146 c 2,17,-1
 24 149 l 1,18,-1
 18 149 l 1,0,1
542 365 m 2,19,20
 542 316 542 316 518 292 c 1,21,-1
 516 292 l 1,22,23
 404 284 404 284 312 284 c 0,24,25
 148 284 148 284 62 290 c 2,26,-1
 33 292 l 1,27,-1
 24 292 l 1,28,29
 25 305 25 305 33.5 337.5 c 128,-1,30
 42 370 42 370 47 370 c 1,31,-1
 49 374 l 1,32,-1
 53 373 l 1,33,34
 209 368 209 368 309 368 c 1,35,-1
 535 373 l 1,36,-1
 542 374 l 1,37,-1
 542 365 l 2,19,20
EndSplineSet
Validated: 8388609
EndChar

StartChar: hyphen
Encoding: 45 45 133
Width: 314
VWidth: -10
Flags: W
HStem: 218 85<34.4788 283.312> 226 82<25 165.26 169.503 280.219>
VStem: 10 284
LayerCount: 2
Back
Fore
SplineSet
294 309 m 5,0,1
 285 226 285 226 276 226 c 0,2,3
 216 218 216 218 168 218 c 0,4,5
 80 218 80 218 33 224 c 2,6,-1
 17 226 l 1,7,-1
 10 227 l 1,8,-1
 10 234 l 2,9,10
 10 245 10 245 14.5 274 c 128,-1,11
 19 303 19 303 23 304 c 1,12,-1
 25 308 l 1,13,-1
 30 308 l 1,14,15
 112 303 112 303 164 303 c 1,16,-1
 285 308 l 1,17,-1
 294 309 l 5,0,1
EndSplineSet
Validated: 8388609
EndChar

StartChar: plus
Encoding: 43 43 134
Width: 448
VWidth: -4
Flags: W
HStem: -8 21G<193 202> 152 64<43 199 268 401 402 413.279>
VStem: 193 70<0.0507812 152 216 372.343>
LayerCount: 2
Back
Fore
SplineSet
262 381 m 1,0,1
 267 348 267 348 268 216 c 1,2,-1
 413 219 l 1,3,-1
 420 220 l 1,4,-1
 420 211 l 2,5,6
 420 201 420 201 414.5 179 c 128,-1,7
 409 157 409 157 402 157 c 1,8,-1
 401 156 l 1,9,-1
 399 156 l 1,10,11
 336 153 336 153 268 152 c 1,12,-1
 263 17 l 1,13,-1
 263 13 l 1,14,15
 254 3 254 3 233.5 -2 c 128,-1,16
 213 -7 213 -7 202 -7 c 1,17,-1
 193 -8 l 1,18,-1
 193 0 l 1,19,20
 200 89 200 89 200 152 c 1,21,-1
 155 152 l 1,22,-1
 31 156 l 1,23,-1
 21 156 l 1,24,-1
 21 164 l 1,25,26
 22 174 22 174 29 194.5 c 128,-1,27
 36 215 36 215 40 220 c 1,28,-1
 43 219 l 1,29,30
 127 217 127 217 199 216 c 1,31,-1
 193 357 l 1,32,-1
 193 361 l 1,33,34
 195 366 195 366 218.5 373.5 c 128,-1,35
 242 381 242 381 254 381 c 2,36,-1
 262 381 l 1,0,1
EndSplineSet
Validated: 1
EndChar

StartChar: exclam
Encoding: 33 33 135
Width: 226
VWidth: -14
Flags: W
HStem: -34 148<72.4531 150.258>
VStem: 34 164<9.34961 72.168> 43 122<286.971 621.875>
LayerCount: 2
Back
Fore
SplineSet
43 515 m 0,0,1
 43 643 43 643 104 643 c 128,-1,2
 165 643 165 643 165 521 c 128,-1,3
 165 399 165 399 151.5 279.5 c 128,-1,4
 138 160 138 160 113 160 c 128,-1,5
 88 160 88 160 65.5 285.5 c 128,-1,6
 43 411 43 411 43 515 c 0,0,1
165 -2 m 128,-1,8
 132 -34 132 -34 115.5 -34 c 128,-1,9
 99 -34 99 -34 66.5 -7 c 128,-1,10
 34 20 34 20 34 37.5 c 128,-1,11
 34 55 34 55 63.5 84.5 c 128,-1,12
 93 114 93 114 107 114 c 128,-1,13
 121 114 121 114 159.5 85.5 c 128,-1,14
 198 57 198 57 198 43.5 c 128,-1,7
 198 30 198 30 165 -2 c 128,-1,8
EndSplineSet
Validated: 8388609
EndChar

StartChar: bar
Encoding: 124 124 136
Width: 144
VWidth: -3
Flags: W
VStem: 40 80<-126 99.1321 519.052 757.469> 47 81<-78.76 561.77>
LayerCount: 2
Back
Fore
SplineSet
39 742 m 5,0,1
 83 774 83 774 111 774 c 2,2,-1
 119 774 l 1,3,-1
 119 766 l 1,4,5
 128 528 128 528 128 311 c 1,6,-1
 120 -124 l 1,7,-1
 120 -126 l 1,8,-1
 119 -129 l 1,9,10
 96 -159 96 -159 52 -159 c 0,11,12
 43 -159 43 -159 40 -160 c 1,13,-1
 40 -151 l 1,14,15
 47 171 47 171 47 290 c 1,16,-1
 39 738 l 1,17,-1
 39 742 l 5,0,1
EndSplineSet
Validated: 8388609
EndChar

StartChar: slash
Encoding: 47 47 137
Width: 273
VWidth: -14
Flags: W
VStem: 29 216
DStem2: 29 -32 89 -98 0.202795 0.979221<-27.3023 572.161>
LayerCount: 2
Back
Fore
SplineSet
245 637 m 1,0,1
 245 628 245 628 172 278 c 0,2,3
 99 -74 99 -74 89 -98 c 1,4,5
 65 -86 65 -86 49 -70 c 0,6,7
 46 -65 46 -65 29 -32 c 1,8,9
 40 -7 40 -7 107.5 319 c 128,-1,10
 175 645 175 645 185 705 c 1,11,-1
 195 699 l 1,12,13
 204 696 204 696 224 674.5 c 128,-1,14
 244 653 244 653 245 640 c 1,15,-1
 246 638 l 1,16,-1
 245 637 l 1,0,1
EndSplineSet
Validated: 1
EndChar

StartChar: backslash
Encoding: 92 92 138
Width: 273
VWidth: -14
Flags: W
VStem: 26 61<584.582 667.357>
DStem2: 87 698 100 280 0.21501 -0.976612<164.636 411.019 745.707 768.196>
LayerCount: 2
Back
Fore
SplineSet
87 698 m 1,0,1
 97 638 97 638 165 315.5 c 128,-1,2
 233 -7 233 -7 244 -31 c 1,3,4
 227 -64 227 -64 224 -69 c 0,5,6
 213 -80 213 -80 199 -87.5 c 128,-1,7
 185 -95 185 -95 183 -97 c 1,8,-1
 100 280 l 1,9,10
 26 621 26 621 26 630 c 2,11,-1
 26 633 l 2,12,13
 26 644 26 644 47 666 c 128,-1,14
 68 688 68 688 77 692 c 1,15,-1
 87 698 l 1,0,1
EndSplineSet
Validated: 1
EndChar

StartChar: numbersign
Encoding: 35 35 139
Width: 569
VWidth: -14
Flags: W
HStem: 214 84<194 291> 221 83<38.332 90 399 517.905> 360 82<38.3125 129 230 331 436 518>
VStem: 198 65<547.2 626.5>
DStem2: 35 25 106 -10 0.256317 0.966593<-27.537 203.55 305.601 347.902 453.051 592.978> 236 28 299 -40 0.253311 0.967385<-23.4696 0 192.599 192.907 303.72 343.702 454.346 598.535>
LayerCount: 2
Back
Fore
SplineSet
90 221 m 1,0,1
 21 224 21 224 18 225 c 1,2,3
 19 246 19 246 41 304 c 1,4,-1
 45 304 l 1,5,6
 73 303 73 303 112 302 c 1,7,8
 115 312 115 312 120 331 c 128,-1,9
 125 350 125 350 129 360 c 1,10,-1
 33 365 l 1,11,-1
 24 366 l 1,12,13
 25 379 25 379 34 407 c 128,-1,14
 43 435 43 435 49 444 c 1,15,-1
 53 444 l 2,16,17
 98 444 98 444 149 442 c 1,18,19
 198 632 198 632 198 641 c 1,20,-1
 201 651 l 1,21,-1
 210 646 l 2,22,23
 238 630 238 630 246 622 c 0,24,25
 258 609 258 609 263 585 c 1,26,-1
 263 580 l 1,27,28
 250 520 250 520 230 442 c 1,29,-1
 353 442 l 1,30,31
 404 635 404 635 404 645 c 1,32,-1
 407 657 l 1,33,-1
 417 650 l 2,34,35
 443 633 443 633 453 621 c 0,36,37
 462 608 462 608 464.5 597.5 c 128,-1,38
 467 587 467 587 468 586 c 1,39,-1
 467 584 l 1,40,41
 455 521 455 521 436 441 c 1,42,43
 461 442 461 442 485.5 443 c 128,-1,44
 510 444 510 444 522 444 c 2,45,-1
 535 445 l 1,46,-1
 542 445 l 1,47,-1
 542 437 l 2,48,49
 542 385 542 385 520 368 c 0,50,51
 518 366 518 366 518 365 c 1,52,-1
 516 365 l 1,53,54
 474 362 474 362 416 360 c 1,55,56
 412 349 412 349 407 328 c 128,-1,57
 402 307 402 307 399 299 c 1,58,-1
 527 304 l 1,59,-1
 535 304 l 1,60,-1
 535 296 l 2,61,62
 535 246 535 246 518 232 c 0,63,64
 515 230 515 230 508 224 c 1,65,66
 447 221 447 221 377 219 c 1,67,68
 316 1 316 1 299 -40 c 1,69,70
 272 -28 272 -28 262 -15.5 c 128,-1,71
 252 -3 252 -3 236 28 c 1,72,-1
 291 214 l 1,73,-1
 286 214 l 2,74,75
 200 214 200 214 170 215 c 1,76,77
 150 145 150 145 132 81 c 0,78,79
 114 16 114 16 106 -10 c 2,80,-1
 98 -36 l 1,81,-1
 96 -45 l 1,82,-1
 87 -39 l 1,83,84
 46 -18 46 -18 35 25 c 1,85,86
 37 29 37 29 90 221 c 1,0,1
293 359 m 1,87,-1
 210 360 l 1,88,-1
 194 299 l 1,89,90
 233 298 233 298 301 298 c 2,91,-1
 315 298 l 1,92,93
 319 309 319 309 323 328 c 128,-1,94
 327 347 327 347 331 359 c 1,95,-1
 293 359 l 1,87,-1
EndSplineSet
Validated: 8388609
EndChar

StartChar: at
Encoding: 64 64 140
Width: 728
VWidth: -14
Flags: W
HStem: -31 62<312.371 506.564> 97 72<266.75 378.074> 369 47<289.002 319.438> 436 70<289.692 418.426> 577 57<251.58 429.799>
VStem: 24 123<201.456 441.05> 189 106<171.203 234.091 405.649 430.133> 432 104<344.438 421.719> 577 113<177.381 405.184>
DStem2: 310.5 302.5 340 250 0.941573 0.336808<-40.4045 106.498>
LayerCount: 2
Back
Fore
SplineSet
413 -31 m 0,0,1
 223 -31 223 -31 123.5 56 c 128,-1,2
 24 143 24 143 24 303.5 c 128,-1,3
 24 464 24 464 119 549 c 128,-1,4
 214 634 214 634 380 634 c 0,5,6
 508 634 508 634 599 535 c 128,-1,7
 690 436 690 436 690 306 c 0,8,9
 690 135 690 135 626 52 c 128,-1,10
 562 -31 562 -31 413 -31 c 0,0,1
547 101 m 1,11,-1
 543 100 l 1,12,13
 512 100 512 100 445 138 c 0,14,15
 422 151 422 151 419.5 151.5 c 128,-1,16
 417 152 417 152 407.5 143 c 128,-1,17
 398 134 398 134 385 124 c 128,-1,18
 372 114 372 114 344.5 105.5 c 128,-1,19
 317 97 317 97 283.5 97 c 128,-1,20
 250 97 250 97 231 105 c 1,21,22
 308 31 308 31 437 31 c 0,23,24
 510 31 510 31 547 101 c 1,11,-1
200 508 m 128,-1,26
 147 439 147 439 147 334.5 c 128,-1,27
 147 230 147 230 189 158 c 1,28,-1
 189 173 l 2,29,30
 189 219 189 219 227 253 c 128,-1,31
 265 287 265 287 310.5 302.5 c 128,-1,32
 356 318 356 318 394 336 c 128,-1,33
 432 354 432 354 432 372 c 0,34,35
 432 436 432 436 354 436 c 0,36,37
 333 436 333 436 313 429.5 c 128,-1,38
 293 423 293 423 289 418 c 0,39,40
 289 417 289 417 297 416 c 0,41,42
 320 413 320 413 320 396 c 0,43,44
 320 369 320 369 256 369 c 0,45,46
 232 369 232 369 210.5 382.5 c 128,-1,47
 189 396 189 396 189 421.5 c 128,-1,48
 189 447 189 447 222 468 c 0,49,50
 282 506 282 506 366 506 c 0,51,52
 447 506 447 506 503 470 c 0,53,54
 536 448 536 448 536 418 c 2,55,-1
 537 204 l 2,56,57
 537 189 537 189 572 177 c 1,58,59
 577 204 577 204 577 257 c 0,60,61
 577 407 577 407 508.5 492 c 128,-1,62
 440 577 440 577 328 577 c 0,63,25
 253 577 253 577 200 508 c 128,-1,26
340 169 m 0,64,65
 401 169 401 169 429 289 c 1,66,67
 385 276 385 276 340 250 c 128,-1,68
 295 224 295 224 295 194 c 0,69,70
 295 169 295 169 340 169 c 0,64,65
EndSplineSet
Validated: 1
EndChar

StartChar: oe
Encoding: 339 339 141
Width: 666
VWidth: 13
Flags: W
HStem: 0 62<211.787 300.247> 7 64<439.526 558.862> 304 63<138.095 236.259> 321 48<426.342 480.633>
VStem: 44 86<159.176 288.424>
DStem2: 503 262 579 250 0.887534 0.460742<-110.835 0 89.8679 129.348>
LayerCount: 2
Back
Fore
SplineSet
622 113 m 1,0,1
 620 110 620 110 613 96 c 0,2,3
 592 56 592 56 578 44 c 0,4,5
 544 10 544 10 471 7 c 0,6,7
 398 7 398 7 352 58 c 1,8,9
 311 0 311 0 237 0 c 128,-1,10
 163 0 163 0 103.5 57.5 c 128,-1,11
 44 115 44 115 44 195.5 c 128,-1,12
 44 276 44 276 92 321.5 c 128,-1,13
 140 367 140 367 223 367 c 0,14,15
 282 367 282 367 335 314 c 1,16,17
 376 369 376 369 470 369 c 3,18,19
 520 369 520 369 556 338 c 0,20,21
 571 325 571 325 585 311 c 1,22,23
 605 322 605 322 618 322 c 0,24,25
 640 322 640 322 640 292 c 0,26,27
 640 276 640 276 579 250 c 0,28,29
 466 201 466 201 407 162 c 1,30,31
 415 112 415 112 440 91.5 c 128,-1,32
 465 71 465 71 512 71 c 0,33,34
 535 71 535 71 550.5 79 c 128,-1,35
 566 87 566 87 571 97 c 0,36,37
 584 123 584 123 597 123 c 0,38,39
 603 123 603 123 610.5 118.5 c 128,-1,40
 618 114 618 114 622 113 c 1,0,1
306 120 m 0,41,42
 306 183 306 183 267 243.5 c 128,-1,43
 228 304 228 304 190 304 c 128,-1,44
 152 304 152 304 141 293 c 128,-1,45
 130 282 130 282 130 247 c 0,46,47
 130 181 130 181 177 121.5 c 128,-1,48
 224 62 224 62 257 62 c 128,-1,49
 290 62 290 62 298 72 c 128,-1,50
 306 82 306 82 306 120 c 0,41,42
446 321 m 0,51,52
 435 321 435 321 420 285 c 128,-1,53
 405 249 405 249 402 216 c 1,54,55
 464 238 464 238 503 262 c 1,56,57
 474 321 474 321 446 321 c 0,51,52
EndSplineSet
Validated: 1
EndChar

StartChar: question
Encoding: 63 63 142
Width: 294
VWidth: -14
Flags: W
HStem: -34 148<62.1827 139.851> 564 69<51.9066 158.808>
VStem: 23 163<9.1106 73.6715> 70 39<161 255.439> 226 55<391.37 492.56>
LayerCount: 2
Back
Fore
SplineSet
62 304 m 1,0,1
 62 331 62 331 144 357 c 0,2,3
 175 367 175 367 200.5 388.5 c 128,-1,4
 226 410 226 410 226 441 c 128,-1,5
 226 472 226 472 183.5 518 c 128,-1,6
 141 564 141 564 119 564 c 0,7,8
 116 564 116 564 98.5 554 c 128,-1,9
 81 544 81 544 65 544 c 128,-1,10
 49 544 49 544 40.5 557.5 c 128,-1,11
 32 571 32 571 32 590 c 128,-1,12
 32 609 32 609 49 621 c 128,-1,13
 66 633 66 633 85 633 c 0,14,15
 127 632 127 632 175 606 c 0,16,17
 281 548 281 548 281 424 c 0,18,19
 281 374 281 374 254 340 c 0,20,21
 226 306 226 306 194 292 c 0,22,23
 108 255 108 255 108 224 c 2,24,-1
 109 161 l 1,25,-1
 70 161 l 1,26,-1
 62 304 l 1,0,1
154 -1.5 m 128,-1,28
 122 -34 122 -34 105.5 -34 c 128,-1,29
 89 -34 89 -34 56 -7 c 128,-1,30
 23 20 23 20 23 37.5 c 128,-1,31
 23 55 23 55 52.5 84.5 c 128,-1,32
 82 114 82 114 96 114 c 128,-1,33
 110 114 110 114 148 86 c 128,-1,34
 186 58 186 58 186 44.5 c 128,-1,27
 186 31 186 31 154 -1.5 c 128,-1,28
EndSplineSet
Validated: 8388609
EndChar

StartChar: percent
Encoding: 37 37 143
Width: 696
VWidth: -14
Flags: W
HStem: -23 56<524.533 599.361> 236 54<466.841 551.109> 317 55<143.251 218.6> 574 56<85.7952 169.522>
VStem: 5 75<448.289 566.715> 223 78<388.192 507.342> 383 78<108.43 226.721> 425 56<570.531 617.5> 604 74<45.9072 168.746>
DStem2: 185 41 237 -36 0.40328 0.915077<0 529.722>
LayerCount: 2
Back
Fore
SplineSet
229 -29 m 5,0,1
 223 -27 223 -27 204 2.5 c 128,-1,2
 185 32 185 32 185 39 c 2,3,-1
 185 41 l 1,4,5
 200 70 200 70 307 331 c 128,-1,6
 414 592 414 592 425 631 c 1,7,-1
 429 642 l 1,8,-1
 438 635 l 2,9,10
 462 616 462 616 472 603 c 0,11,12
 480 589 480 589 481 577.5 c 128,-1,13
 482 566 482 566 483 565 c 1,14,-1
 482 564 l 1,15,16
 482 556 482 556 364 270 c 0,17,18
 253 0 253 0 237 -36 c 1,19,-1
 229 -29 l 5,0,1
646 28 m 128,-1,21
 614 -23 614 -23 550 -23 c 128,-1,22
 486 -23 486 -23 434.5 26 c 128,-1,23
 383 75 383 75 383 143.5 c 128,-1,24
 383 212 383 212 425 251 c 128,-1,25
 467 290 467 290 538 290 c 0,26,27
 589 290 589 290 633.5 243 c 128,-1,28
 678 196 678 196 678 158 c 0,29,20
 678 79 678 79 646 28 c 128,-1,21
597.5 40.5 m 128,-1,31
 604 48 604 48 604 90.5 c 128,-1,32
 604 133 604 133 573 184.5 c 128,-1,33
 542 236 542 236 510 236 c 128,-1,34
 478 236 478 236 469.5 227 c 128,-1,35
 461 218 461 218 461 189 c 0,36,37
 461 133 461 133 499.5 83 c 128,-1,38
 538 33 538 33 564.5 33 c 128,-1,30
 591 33 591 33 597.5 40.5 c 128,-1,31
268 368.5 m 128,-1,40
 235 317 235 317 170.5 317 c 128,-1,41
 106 317 106 317 55.5 366 c 128,-1,42
 5 415 5 415 5 483.5 c 128,-1,43
 5 552 5 552 46 591 c 128,-1,44
 87 630 87 630 156 630 c 0,45,46
 209 630 209 630 255 583.5 c 128,-1,47
 301 537 301 537 301 499 c 0,48,39
 301 420 301 420 268 368.5 c 128,-1,40
216.5 379.5 m 128,-1,50
 223 387 223 387 223 429.5 c 128,-1,51
 223 472 223 472 191.5 523 c 128,-1,52
 160 574 160 574 129 574 c 128,-1,53
 98 574 98 574 89 565.5 c 128,-1,54
 80 557 80 557 80 529 c 0,55,56
 80 473 80 473 118.5 422.5 c 128,-1,57
 157 372 157 372 183.5 372 c 128,-1,49
 210 372 210 372 216.5 379.5 c 128,-1,50
EndSplineSet
Validated: 1
EndChar

StartChar: ampersand
Encoding: 38 38 144
Width: 644
VWidth: -14
Flags: W
HStem: -30 52<142.674 269.555> 335 49<447.735 481.265 555.672 579.328> 586 51<158.104 248.288>
VStem: 15 87<66.2852 243.075> 79 69<466.957 576.022> 274 57<438.182 559.345> 489 61<278.019 332.905>
DStem2: 216 416 137 362 0.721216 -0.69271<-111.626 -19.5698 61.6626 292.076 356.152 561.013>
LayerCount: 2
Back
Fore
SplineSet
91 424 m 128,-1,1
 79 459 79 459 79 508.5 c 128,-1,2
 79 558 79 558 112 597.5 c 128,-1,3
 145 637 145 637 197 637 c 128,-1,4
 249 637 249 637 290 596.5 c 128,-1,5
 331 556 331 556 331 497 c 0,6,7
 331 456 331 456 318 428 c 128,-1,8
 305 400 305 400 265 378 c 1,9,10
 300 344 300 344 426 213 c 1,11,12
 489 311 489 311 489 320.5 c 128,-1,13
 489 330 489 330 481.5 333 c 128,-1,14
 474 336 474 336 464.5 335 c 128,-1,15
 455 334 455 334 447.5 340 c 128,-1,16
 440 346 440 346 440 361 c 0,17,18
 440 384 440 384 512.5 384 c 128,-1,19
 585 384 585 384 585 364 c 0,20,21
 585 349 585 349 579.5 342.5 c 128,-1,22
 574 336 574 336 567.5 336.5 c 128,-1,23
 561 337 561 337 555.5 333.5 c 128,-1,24
 550 330 550 330 550 320 c 128,-1,25
 550 310 550 310 525.5 264 c 128,-1,26
 501 218 501 218 469 173 c 1,27,28
 505 136 505 136 576 44 c 0,29,30
 588 30 588 30 602 28 c 128,-1,31
 616 26 616 26 621.5 20.5 c 128,-1,32
 627 15 627 15 627 4 c 0,33,34
 627 -34 627 -34 563 -34 c 0,35,36
 520 -34 520 -34 501 -10 c 0,37,38
 444 59 444 59 406 99 c 1,39,40
 277 -30 277 -30 194 -30 c 128,-1,41
 111 -30 111 -30 63 20 c 128,-1,42
 15 70 15 70 15 159 c 0,43,44
 15 211 15 211 50.5 272 c 128,-1,45
 86 333 86 333 137 362 c 1,46,0
 103 389 103 389 91 424 c 128,-1,1
102 159 m 0,47,48
 102 97 102 97 128.5 59.5 c 128,-1,49
 155 22 155 22 202 22 c 0,50,51
 281 22 281 22 368 134 c 1,52,53
 355 148 355 148 187 316 c 1,54,55
 102 247 102 247 102 159 c 0,47,48
148 522 m 0,56,57
 148 479 148 479 216 416 c 1,58,59
 274 441 274 441 274 484.5 c 128,-1,60
 274 528 274 528 254 557 c 128,-1,61
 234 586 234 586 206 586 c 0,62,63
 148 586 148 586 148 522 c 0,56,57
EndSplineSet
Validated: 8388609
EndChar

StartChar: dollar
Encoding: 36 36 145
Width: 487
VWidth: -15
Flags: W
HStem: -18 60<217 255> 592 50<217 254>
VStem: 10 87<436.648 529.441> 164 51<-66.7871 -28 69 280 407 568 642 689.676> 254 56<-59.7324 -18 86 240 375.49 571 647 693.507> 259 56<-57.7195 -18 86 240 375 571 647 696.059> 362 98<118.961 272>
LayerCount: 2
Back
Fore
SplineSet
97 482 m 0,0,1
 97 438 97 438 168 407 c 1,2,3
 165 560 165 560 165 568 c 1,4,5
 144 553 144 553 133.5 544.5 c 128,-1,6
 123 536 123 536 110 518 c 128,-1,7
 97 500 97 500 97 482 c 0,0,1
253 668 m 1,8,-1
 253 672 l 2,9,10
 253 679 253 679 271.5 690.5 c 128,-1,11
 290 702 290 702 299 702 c 2,12,-1
 308 702 l 1,13,-1
 308 694 l 1,14,15
 309 675 309 675 310 647 c 1,16,17
 354 642 354 642 404 605.5 c 128,-1,18
 454 569 454 569 454 534.5 c 128,-1,19
 454 500 454 500 444.5 486 c 128,-1,20
 435 472 435 472 418 472 c 128,-1,21
 401 472 401 472 386.5 489.5 c 128,-1,22
 372 507 372 507 352 532.5 c 128,-1,23
 332 558 332 558 313 571 c 1,24,25
 317 457 317 457 317 367 c 1,26,27
 460 327 460 327 460 217 c 0,28,29
 460 74 460 74 310 6 c 1,30,-1
 310 -38 l 2,31,32
 310 -51 310 -51 289.5 -59 c 128,-1,33
 269 -67 269 -67 254 -67 c 1,34,-1
 254 -58 l 2,35,36
 254 -42 254 -42 255 -18 c 1,37,-1
 215 -22 l 1,38,-1
 215 -43 l 2,39,40
 215 -55 215 -55 196 -65 c 128,-1,41
 177 -75 177 -75 164 -75 c 1,42,-1
 164 -65 l 2,43,44
 164 -51 164 -51 165 -28 c 1,45,46
 9 -23 9 -23 9 75 c 0,47,48
 9 112 9 112 19.5 125.5 c 128,-1,49
 30 139 30 139 65 154 c 1,50,51
 100 104 100 104 166 69 c 1,52,53
 168 149 168 149 168 292 c 1,54,55
 99 309 99 309 54.5 347 c 128,-1,56
 10 385 10 385 10 462 c 0,57,58
 10 580 10 580 164 626 c 1,59,60
 163 649 163 649 163 663 c 2,61,-1
 163 667 l 2,62,63
 163 673 163 673 179.5 685 c 128,-1,64
 196 697 196 697 205 697 c 2,65,-1
 214 697 l 1,66,-1
 214 689 l 1,67,68
 215 670 215 670 216 642 c 1,69,-1
 254 646 l 1,70,-1
 254 662 l 1,71,-1
 253 668 l 1,8,-1
255 43 m 1,72,-1
 259 272 l 1,73,74
 233 278 233 278 222 280 c 1,75,76
 220 158 220 158 217 44 c 1,77,78
 237 42 237 42 244 42 c 131,-1,79
 251 42 251 42 255 43 c 1,72,-1
258 375 m 1,80,-1
 255 592 l 1,81,-1
 235 592 l 1,82,-1
 217 589 l 1,83,84
 219 532 219 532 221 382 c 1,85,86
 233 380 233 380 258 375 c 1,80,-1
362 156 m 0,87,88
 362 196 362 196 315 240 c 1,89,90
 315 134 315 134 313 86 c 1,91,92
 351 124 351 124 356.5 136.5 c 128,-1,93
 362 149 362 149 362 156 c 0,87,88
EndSplineSet
Validated: 1
EndChar

StartChar: parenleft
Encoding: 40 40 146
Width: 232
VWidth: -14
Flags: W
VStem: 13 95<151.093 456.608>
DStem2: 32.5 446.5 157 553.5 0.452104 0.891965<22.5199 250.214>
LayerCount: 2
Back
Fore
SplineSet
206 -30 m 3,0,1
 206 -50 206 -50 179 -50 c 0,2,3
 164 -50 164 -50 137 -22.5 c 128,-1,4
 110 5 110 5 82 48.5 c 128,-1,5
 54 92 54 92 33.5 156.5 c 128,-1,6
 13 221 13 221 13 296 c 128,-1,7
 13 371 13 371 32.5 446.5 c 128,-1,8
 52 522 52 522 80 567 c 128,-1,9
 108 612 108 612 135 638 c 128,-1,10
 162 664 162 664 184 664 c 128,-1,11
 206 664 206 664 206 645 c 0,12,13
 206 631 206 631 190.5 607 c 128,-1,14
 175 583 175 583 157 553.5 c 128,-1,15
 139 524 139 524 123.5 453 c 128,-1,16
 108 382 108 382 108 294 c 128,-1,17
 108 206 108 206 123.5 146 c 128,-1,18
 139 86 139 86 157 59 c 128,-1,19
 175 32 175 32 190.5 8 c 128,-1,20
 206 -16 206 -16 206 -30 c 3,0,1
EndSplineSet
Validated: 1
EndChar

StartChar: parenright
Encoding: 41 41 147
Width: 225
VWidth: -14
Flags: W
VStem: 117 96<152.823 454.36>
DStem2: 145 567 34.5 607 0.41306 -0.910704<-92.1233 156.04>
LayerCount: 2
Back
Fore
SplineSet
105.5 -6 m 128,-1,1
 67 -50 67 -50 43 -50 c 135,-1,2
 19 -50 19 -50 19 -30 c 0,3,4
 19 -16 19 -16 34.5 8 c 128,-1,5
 50 32 50 32 68 59 c 128,-1,6
 86 86 86 86 101.5 146.5 c 128,-1,7
 117 207 117 207 117 294.5 c 128,-1,8
 117 382 117 382 101.5 453 c 128,-1,9
 86 524 86 524 68 553.5 c 128,-1,10
 50 583 50 583 34.5 607 c 128,-1,11
 19 631 19 631 19 645 c 0,12,13
 19 664 19 664 41.5 664 c 128,-1,14
 64 664 64 664 90.5 638 c 128,-1,15
 117 612 117 612 145 567 c 128,-1,16
 173 522 173 522 193 446.5 c 128,-1,17
 213 371 213 371 213 286.5 c 128,-1,18
 213 202 213 202 178.5 120 c 128,-1,0
 144 38 144 38 105.5 -6 c 128,-1,1
EndSplineSet
Validated: 1
EndChar

StartChar: asterisk
Encoding: 42 42 148
Width: 338
VWidth: -32
Flags: W
HStem: 462 67<36.1299 101 233 296.898> 474.5 61.5<36.1299 100.591 233.939 307.094>
VStem: 127 84<529.159 601.557>
LayerCount: 2
Back
Fore
SplineSet
169 612 m 0,0,1
 211 612 211 612 211 529 c 1,2,3
 256 536 256 536 271 536 c 3,4,5
 311 536 311 536 311 514 c 0,6,7
 311 499 311 499 301 488.5 c 128,-1,8
 291 478 291 478 282 474.5 c 128,-1,9
 273 471 273 471 253.5 467 c 128,-1,10
 234 463 234 463 233 463 c 1,11,12
 235 460 235 460 249 442 c 0,13,14
 276 407 276 407 276 382 c 128,-1,15
 276 357 276 357 251 357 c 0,16,17
 228 357 228 357 189 404 c 0,18,19
 170 427 170 427 169 429 c 1,20,21
 165 424 165 424 155 409 c 0,22,23
 134 377 134 377 119 366 c 0,24,25
 107 357 107 357 95 357 c 128,-1,26
 83 357 83 357 75 365.5 c 128,-1,27
 67 374 67 374 67 389.5 c 128,-1,28
 67 405 67 405 101 462 c 1,29,30
 88 462 88 462 64 470 c 0,31,32
 40 480 40 480 36 484 c 0,33,34
 22 497 22 497 22 514 c 0,35,36
 22 536 22 536 60 536 c 0,37,-1
 124 529 l 1,38,39
 125 534 125 534 127 551 c 0,40,41
 132 588 132 588 144 602 c 0,42,43
 154 612 154 612 169 612 c 0,0,1
EndSplineSet
Validated: 8388609
EndChar

StartChar: germandbls
Encoding: 223 223 149
Width: 496
VWidth: -14
Flags: W
HStem: -27 52<214.875 318.141> 570 64<214.142 327.955>
VStem: 78 105<49.3762 530.541> 361 93<405.042 535.611> 376 92<74.3086 218.201>
LayerCount: 2
Back
Fore
SplineSet
212 8 m 135,-1,1
 212 19 212 19 216 25 c 1,2,-1
 221 25 l 2,3,4
 283 25 283 25 329.5 53 c 128,-1,5
 376 81 376 81 376 147 c 0,6,7
 376 205 376 205 328 247 c 0,8,9
 291 280 291 280 237 312 c 0,10,11
 229 317 229 317 225 319 c 2,12,-1
 214 324 l 1,13,-1
 226 331 l 1,14,15
 361 398 361 398 361 449 c 0,16,17
 361 570 361 570 262 570 c 0,18,19
 225 570 225 570 205 536 c 128,-1,20
 185 502 185 502 185 444 c 2,21,-1
 183 -34 l 1,22,-1
 170 -26 l 2,23,24
 151 -15 151 -15 109.5 -10 c 128,-1,25
 68 -5 68 -5 38.5 -0.5 c 128,-1,26
 9 4 9 4 9 15 c 0,27,28
 9 30 9 30 57 50 c 0,29,30
 77 58 77 58 78 60 c 1,31,-1
 78 418 l 2,32,33
 78 524 78 524 135.5 579 c 128,-1,34
 193 634 193 634 290 634 c 0,35,36
 361 634 361 634 407.5 580 c 128,-1,37
 454 526 454 526 454 456 c 0,38,39
 454 413 454 413 430 383 c 128,-1,40
 406 353 406 353 355 324 c 1,41,42
 393 295 393 295 412.5 276 c 128,-1,43
 432 257 432 257 450 222 c 128,-1,44
 468 187 468 187 468 138 c 128,-1,45
 468 89 468 89 427 48 c 0,46,47
 352 -27 352 -27 230 -27 c 2,48,-1
 226 -27 l 1,49,0
 212 -3 212 -3 212 8 c 135,-1,1
EndSplineSet
Validated: 8388609
EndChar

StartChar: braceleft
Encoding: 123 123 150
Width: 351
VWidth: -14
Flags: W
VStem: 140 89<94.0664 243.182 390.239 531.396>
LayerCount: 2
Back
Fore
SplineSet
315.5 -44 m 128,-1,1
 307 -50 307 -50 296.5 -50 c 131,-1,2
 286 -50 286 -50 261 -29.5 c 128,-1,3
 236 -9 236 -9 208 23 c 0,4,5
 140 104 140 104 140 186 c 0,6,7
 140 222 140 222 119 242 c 128,-1,8
 98 262 98 262 74 272 c 0,9,10
 7 298 7 298 7 310 c 3,11,12
 7 325 7 325 72 354 c 0,13,14
 96 365 96 365 117 388.5 c 128,-1,15
 138 412 138 412 138 447 c 128,-1,16
 138 482 138 482 158 523.5 c 128,-1,17
 178 565 178 565 205 595 c 0,18,19
 267 664 267 664 298 664 c 0,20,21
 324 664 324 664 324 645 c 0,22,23
 324 624 324 624 276 572 c 0,24,25
 229 520 229 520 229 443 c 128,-1,26
 229 366 229 366 142 309 c 1,27,28
 197 274 197 274 215 246 c 0,29,30
 229 224 229 224 229 184.5 c 128,-1,31
 229 145 229 145 244 105 c 0,32,33
 255 76 255 76 309 4 c 0,34,35
 324 -16 324 -16 324 -27 c 128,-1,0
 324 -38 324 -38 315.5 -44 c 128,-1,1
EndSplineSet
Validated: 1
EndChar

StartChar: braceright
Encoding: 125 125 151
Width: 350
VWidth: -14
Flags: W
VStem: 116 88<96.9863 242.209 391.523 532.845>
LayerCount: 2
Back
Fore
SplineSet
48 -50 m 131,-1,1
 21 -50 21 -50 21 -30 c 0,2,3
 21 -11 21 -11 68.5 44.5 c 128,-1,4
 116 100 116 100 116 176 c 0,5,6
 116 250 116 250 167 286 c 0,7,8
 184 299 184 299 203 309 c 1,9,10
 116 364 116 364 116 443 c 0,11,12
 116 519 116 519 68 572 c 128,-1,13
 20 625 20 625 20 644.5 c 131,-1,14
 20 664 20 664 48 664 c 0,15,16
 78 664 78 664 140 595 c 0,17,18
 167 565 167 565 187 523.5 c 128,-1,19
 207 482 207 482 207 447 c 128,-1,20
 207 412 207 412 227.5 388.5 c 128,-1,21
 248 365 248 365 272 354 c 0,22,23
 338 325 338 325 338 310 c 0,24,25
 338 298 338 298 271 272 c 0,26,27
 246 262 246 262 225 242 c 128,-1,28
 204 222 204 222 204 185.5 c 128,-1,29
 204 149 204 149 184 102 c 128,-1,30
 164 55 164 55 137 23 c 0,31,0
 75 -50 75 -50 48 -50 c 131,-1,1
EndSplineSet
Validated: 1
EndChar

StartChar: bracketleft
Encoding: 91 91 152
Width: 211
VWidth: -14
Flags: W
HStem: -68 65<118 181.291> -59 59<129.709 180.109> 600 59<117.36 187.204> 602 65<114 187.865>
VStem: 25 82<101.509 540.88> 36 82<-3 192.491 411.927 602>
LayerCount: 2
Back
Fore
SplineSet
107 297 m 1,0,-1
 118 -3 l 1,1,-1
 175 0 l 1,2,3
 189 -15 189 -15 199 -59 c 1,4,-1
 112 -68 l 1,5,-1
 111 -68 l 2,6,7
 101 -68 101 -68 73 -62 c 0,8,9
 50 -57 50 -57 36 -50 c 1,10,-1
 36 -46 l 1,11,12
 25 204 25 204 25 290 c 1,13,-1
 35 640 l 1,14,-1
 35 644 l 1,15,16
 92 667 92 667 107 667 c 2,17,-1
 108 667 l 1,18,-1
 198 659 l 1,19,20
 197 657 197 657 195 648 c 128,-1,21
 193 639 193 639 191 632 c 0,22,23
 188 626 188 626 186 618 c 0,24,25
 180 600 180 600 175 600 c 2,26,-1
 114 602 l 1,27,28
 107 364 107 364 107 297 c 1,0,-1
EndSplineSet
Validated: 8388609
EndChar

StartChar: bracketright
Encoding: 93 93 153
Width: 214
VWidth: -14
Flags: W
HStem: -65 65<34.1164 99> -56 59<25.2958 86.8836> 600 59<26.6523 97.536> 602 65<25.835 101>
VStem: 16 163<-56 -0.0249023 608.75 655.285> 99 80<0 213.743 393.594 602> 105 82<0 536.094>
LayerCount: 2
Back
Fore
SplineSet
107 667 m 1,0,1
 119 667 119 667 148.5 658 c 128,-1,2
 178 649 178 649 178 644 c 2,3,-1
 178 640 l 1,4,5
 187 385 187 385 187 290 c 1,6,-1
 179 -43 l 1,7,-1
 179 -47 l 1,8,9
 169 -54 169 -54 142 -59.5 c 128,-1,10
 115 -65 115 -65 105 -65 c 1,11,-1
 16 -56 l 1,12,13
 16 -44 16 -44 24.5 -21 c 128,-1,14
 33 2 33 2 41 3 c 1,15,-1
 99 0 l 1,16,17
 105 234 105 234 105 354 c 128,-1,18
 105 474 105 474 101 602 c 1,19,-1
 39 600 l 1,20,21
 34 603 34 603 25 626 c 128,-1,22
 16 649 16 649 16 659 c 1,23,-1
 107 667 l 1,0,1
EndSplineSet
Validated: 8388609
EndChar

StartChar: uni00AD
Encoding: 173 173 154
Width: 314
VWidth: -10
Flags: W
HStem: 218 85<34.4788 283.312> 226 82<25 165.26 169.503 280.219>
VStem: 10 284
LayerCount: 2
Back
Fore
SplineSet
294 309 m 5,0,1
 285 226 285 226 276 226 c 0,2,3
 216 218 216 218 168 218 c 0,4,5
 80 218 80 218 33 224 c 2,6,-1
 17 226 l 1,7,-1
 10 227 l 1,8,-1
 10 234 l 2,9,10
 10 245 10 245 14.5 274 c 128,-1,11
 19 303 19 303 23 304 c 1,12,-1
 25 308 l 1,13,-1
 30 308 l 1,14,15
 112 303 112 303 164 303 c 1,16,-1
 285 308 l 1,17,-1
 294 309 l 5,0,1
EndSplineSet
Validated: 8388609
EndChar

StartChar: quotedblright
Encoding: 8221 8221 155
Width: 339
VWidth: 41
Flags: W
HStem: 377 316<61.8491 88.325 225.849 252.954>
VStem: 47 99<481.871 682.668> 211 100<481.871 682.668>
LayerCount: 2
Back
Fore
SplineSet
201 391 m 6,0,1
 201 533 201 533 211 613 c 128,-1,2
 221 693 221 693 253 693 c 0,3,4
 311 693 311 693 311 643 c 0,5,6
 311 592 311 592 297 519 c 0,7,8
 270 377 270 377 213 377 c 2,9,-1
 201 377 l 1,10,-1
 201 391 l 6,0,1
37 391 m 6,11,12
 37 533 37 533 47 613 c 128,-1,13
 57 693 57 693 89 693 c 0,14,15
 146 693 146 693 146 643 c 0,16,17
 146 592 146 592 132 519 c 0,18,19
 105 377 105 377 49 377 c 2,20,-1
 37 377 l 1,21,-1
 37 391 l 6,11,12
EndSplineSet
Validated: 1
EndChar

StartChar: quotedblleft
Encoding: 8220 8220 156
Width: 339
VWidth: 41
Flags: W
HStem: 377 316<95.0464 122.151 259.675 286.151>
VStem: 37 100<387.332 588.129> 202 99<387.332 588.129>
LayerCount: 2
Back
Fore
SplineSet
147 679 m 6,0,1
 147 537 147 537 137 457 c 128,-1,2
 127 377 127 377 95 377 c 0,3,4
 37 377 37 377 37 427 c 0,5,6
 37 478 37 478 51 551 c 0,7,8
 78 693 78 693 135 693 c 2,9,-1
 147 693 l 1,10,-1
 147 679 l 6,0,1
311 679 m 6,11,12
 311 537 311 537 301 457 c 128,-1,13
 291 377 291 377 259 377 c 0,14,15
 202 377 202 377 202 427 c 0,16,17
 202 478 202 478 216 551 c 0,18,19
 243 693 243 693 299 693 c 2,20,-1
 311 693 l 1,21,-1
 311 679 l 6,11,12
EndSplineSet
Validated: 1
EndChar

StartChar: quoteright
Encoding: 8217 8217 157
Width: 172
VWidth: 41
Flags: W
HStem: 380 314<61.5833 85.5823>
VStem: 33 111<484.871 655.255>
LayerCount: 2
Back
Fore
SplineSet
33 394 m 6,0,1
 33 694 33 694 86 694 c 0,2,3
 144 694 144 694 144 645 c 0,4,5
 144 595 144 595 130 522 c 0,6,7
 103 380 103 380 45 380 c 2,8,-1
 33 380 l 1,9,-1
 33 394 l 6,0,1
EndSplineSet
Validated: 1
EndChar

StartChar: quoteleft
Encoding: 8216 8216 158
Width: 172
VWidth: 41
Flags: W
HStem: 380 314<91.4177 115.417>
VStem: 33 111<418.745 589.129>
LayerCount: 2
Back
Fore
SplineSet
144 680 m 6,0,1
 144 380 144 380 91 380 c 0,2,3
 33 380 33 380 33 429 c 0,4,5
 33 479 33 479 47 552 c 0,6,7
 74 694 74 694 132 694 c 2,8,-1
 144 694 l 1,9,-1
 144 680 l 6,0,1
EndSplineSet
Validated: 1
EndChar

StartChar: endash
Encoding: 8211 8211 159
Width: 409
VWidth: -10
Flags: W
HStem: 218 82<52.0747 388.786> 226 79<39 228.387 234.066 392.062>
LayerCount: 2
Back
Fore
SplineSet
400 306 m 5,0,1
 400 302 400 302 399 292 c 128,-1,2
 398 282 398 282 398 275 c 0,3,4
 397 256 397 256 384 230 c 0,5,6
 382 226 382 226 377 226 c 0,7,8
 298 218 298 218 232 218 c 0,9,10
 116 218 116 218 50 224 c 2,11,-1
 29 226 l 1,12,-1
 20 227 l 1,13,-1
 20 234 l 2,14,15
 20 245 20 245 25.5 272.5 c 128,-1,16
 31 300 31 300 36 301 c 1,17,-1
 39 305 l 1,18,-1
 47 305 l 1,19,20
 156 300 156 300 226 300 c 1,21,-1
 389 305 l 1,22,-1
 400 306 l 5,0,1
EndSplineSet
Validated: 1
EndChar

StartChar: uni2011
Encoding: 8209 8209 160
Width: 314
VWidth: -10
Flags: W
HStem: 218 85<34.4788 283.312> 226 82<25 165.26 169.503 280.219>
VStem: 10 284
LayerCount: 2
Back
Fore
SplineSet
294 309 m 5,0,1
 285 226 285 226 276 226 c 0,2,3
 216 218 216 218 168 218 c 0,4,5
 80 218 80 218 33 224 c 2,6,-1
 17 226 l 1,7,-1
 10 227 l 1,8,-1
 10 234 l 2,9,10
 10 245 10 245 14.5 274 c 128,-1,11
 19 303 19 303 23 304 c 1,12,-1
 25 308 l 1,13,-1
 30 308 l 1,14,15
 112 303 112 303 164 303 c 1,16,-1
 285 308 l 1,17,-1
 294 309 l 5,0,1
EndSplineSet
Validated: 1
EndChar

StartChar: uni2010
Encoding: 8208 8208 161
Width: 314
VWidth: -10
Flags: W
HStem: 218 85<34.4788 283.312> 226 82<25 165.26 169.503 280.219>
VStem: 10 284
LayerCount: 2
Back
Fore
SplineSet
294 309 m 5,0,1
 285 226 285 226 276 226 c 0,2,3
 216 218 216 218 168 218 c 0,4,5
 80 218 80 218 33 224 c 2,6,-1
 17 226 l 1,7,-1
 10 227 l 1,8,-1
 10 234 l 2,9,10
 10 245 10 245 14.5 274 c 128,-1,11
 19 303 19 303 23 304 c 1,12,-1
 25 308 l 1,13,-1
 30 308 l 1,14,15
 112 303 112 303 164 303 c 1,16,-1
 285 308 l 1,17,-1
 294 309 l 5,0,1
EndSplineSet
Validated: 1
EndChar

StartChar: figuredash
Encoding: 8210 8210 162
Width: 409
VWidth: -10
Flags: W
HStem: 218 82<52.0747 388.786> 226 79<39 228.387 234.066 392.062>
LayerCount: 2
Back
Fore
SplineSet
400 306 m 5,0,1
 400 302 400 302 399 292 c 128,-1,2
 398 282 398 282 398 275 c 0,3,4
 397 256 397 256 384 230 c 0,5,6
 382 226 382 226 377 226 c 0,7,8
 298 218 298 218 232 218 c 0,9,10
 116 218 116 218 50 224 c 2,11,-1
 29 226 l 1,12,-1
 20 227 l 1,13,-1
 20 234 l 2,14,15
 20 245 20 245 25.5 272.5 c 128,-1,16
 31 300 31 300 36 301 c 1,17,-1
 39 305 l 1,18,-1
 47 305 l 1,19,20
 156 300 156 300 226 300 c 1,21,-1
 389 305 l 1,22,-1
 400 306 l 5,0,1
EndSplineSet
Validated: 1
EndChar

StartChar: emdash
Encoding: 8212 8212 163
Width: 625
VWidth: -10
Flags: W
HStem: 218 82<75.145 590.874> 226 79<55 320.596 357.193 590.874>
LayerCount: 2
Back
Fore
SplineSet
616 306 m 5,0,1
 616 302 616 302 614 288 c 0,2,3
 610 255 610 255 591 230 c 0,4,5
 587 226 587 226 580 226 c 0,6,7
 456 218 456 218 354 218 c 0,8,9
 172 218 172 218 72 224 c 2,10,-1
 39 226 l 1,11,-1
 26 227 l 1,12,-1
 26 234 l 2,13,14
 26 245 26 245 34.5 272.5 c 128,-1,15
 43 300 43 300 50 301 c 1,16,-1
 55 305 l 1,17,-1
 66 305 l 1,18,19
 237 300 237 300 346 300 c 1,20,-1
 598 305 l 1,21,-1
 616 306 l 5,0,1
EndSplineSet
Validated: 1
EndChar

StartChar: onedotenleader
Encoding: 8228 8228 164
Width: 256
VWidth: 9
Flags: W
HStem: -20 149<84.0214 159.641>
VStem: 44 164<23.1106 87.168>
LayerCount: 2
Back
Fore
SplineSet
175.5 12.5 m 128,-1,1
 143 -20 143 -20 126.5 -20 c 132,-1,2
 110 -20 110 -20 77 7.5 c 128,-1,3
 44 35 44 35 44 52.5 c 128,-1,4
 44 70 44 70 73 99.5 c 128,-1,5
 102 129 102 129 116 129 c 128,-1,6
 130 129 130 129 169 100.5 c 128,-1,7
 208 72 208 72 208 58.5 c 128,-1,0
 208 45 208 45 175.5 12.5 c 128,-1,1
EndSplineSet
Validated: 1
EndChar

StartChar: twodotenleader
Encoding: 8229 8229 165
Width: 470
VWidth: 9
Flags: W
HStem: -20 149<90.0214 165.258 309.418 385.258>
VStem: 50 163<23.1106 87.168> 270 163<23.1106 87.168>
LayerCount: 2
Back
Fore
SplineSet
400.5 12.5 m 128,-1,1
 368 -20 368 -20 351.5 -20 c 132,-1,2
 335 -20 335 -20 302.5 7.5 c 128,-1,3
 270 35 270 35 270 52.5 c 128,-1,4
 270 70 270 70 299 99.5 c 128,-1,5
 328 129 328 129 342 129 c 128,-1,6
 356 129 356 129 394.5 100.5 c 128,-1,7
 433 72 433 72 433 58.5 c 128,-1,0
 433 45 433 45 400.5 12.5 c 128,-1,1
181 12.5 m 128,-1,9
 149 -20 149 -20 132.5 -20 c 132,-1,10
 116 -20 116 -20 83 7.5 c 128,-1,11
 50 35 50 35 50 52.5 c 128,-1,12
 50 70 50 70 79 99.5 c 128,-1,13
 108 129 108 129 122 129 c 128,-1,14
 136 129 136 129 174.5 100.5 c 128,-1,15
 213 72 213 72 213 58.5 c 128,-1,8
 213 45 213 45 181 12.5 c 128,-1,9
EndSplineSet
Validated: 1
EndChar

StartChar: ellipsis
Encoding: 8230 8230 166
Width: 695
VWidth: 9
Flags: W
HStem: -20 149<95.418 171.258 315.021 390.641 533.418 609.258>
VStem: 56 163<23.1106 87.168> 275 164<23.1106 87.168> 494 163<23.1106 87.168>
LayerCount: 2
Back
Fore
SplineSet
624.5 12.5 m 128,-1,1
 592 -20 592 -20 575.5 -20 c 128,-1,2
 559 -20 559 -20 526.5 7.5 c 128,-1,3
 494 35 494 35 494 52.5 c 128,-1,4
 494 70 494 70 523 99.5 c 128,-1,5
 552 129 552 129 566 129 c 128,-1,6
 580 129 580 129 618.5 100.5 c 128,-1,7
 657 72 657 72 657 58.5 c 128,-1,0
 657 45 657 45 624.5 12.5 c 128,-1,1
406.5 12.5 m 128,-1,9
 374 -20 374 -20 357.5 -20 c 128,-1,10
 341 -20 341 -20 308 7.5 c 128,-1,11
 275 35 275 35 275 52.5 c 128,-1,12
 275 70 275 70 304 99.5 c 128,-1,13
 333 129 333 129 347 129 c 128,-1,14
 361 129 361 129 400 100.5 c 128,-1,15
 439 72 439 72 439 58.5 c 128,-1,8
 439 45 439 45 406.5 12.5 c 128,-1,9
186.5 12.5 m 128,-1,17
 154 -20 154 -20 137.5 -20 c 128,-1,18
 121 -20 121 -20 88.5 7.5 c 128,-1,19
 56 35 56 35 56 52.5 c 128,-1,20
 56 70 56 70 85 99.5 c 128,-1,21
 114 129 114 129 128 129 c 128,-1,22
 142 129 142 129 180.5 100.5 c 128,-1,23
 219 72 219 72 219 58.5 c 128,-1,16
 219 45 219 45 186.5 12.5 c 128,-1,17
EndSplineSet
Validated: 1
EndChar

StartChar: aogonek
Encoding: 261 261 175
Width: 458
VWidth: -3
Flags: W
HStem: -151 40.5<350.535 435.868> -13 64<76.5 220.206> -9 74<383.781 446.977> 244 46<128.002 158.622> 311 69<128.19 261.891>
VStem: 30 104<54.0059 115.151 279.649 304.991> 263 63<-95.7998 -4.03741> 275 107<223.083 296.219>
LayerCount: 2
Back
Fore
SplineSet
440 -125 m 0,0,1
 440 -138 440 -138 423 -144.5 c 128,-1,2
 406 -151 406 -151 389 -151 c 0,3,4
 338 -151 338 -151 299 -114 c 0,5,6
 280 -95 280 -95 271.5 -78.5 c 128,-1,7
 263 -62 263 -62 263 -31.5 c 128,-1,8
 263 -1 263 -1 287 29 c 1,9,10
 265 40 265 40 263 40.5 c 128,-1,11
 261 41 261 41 246.5 27 c 128,-1,12
 232 13 232 13 200 0 c 128,-1,13
 168 -13 168 -13 123 -13 c 0,14,15
 30 -13 30 -13 30 59 c 0,16,17
 30 103 30 103 68 135 c 0,18,19
 106 168 106 168 152 182 c 0,20,21
 274 221 274 221 275 248 c 0,22,23
 275 311 275 311 195 311 c 0,24,25
 173 311 173 311 152.5 304 c 128,-1,26
 132 297 132 297 128 292 c 0,27,28
 128 291 128 291 136 290 c 0,29,30
 159 287 159 287 159 270 c 0,31,32
 159 244 159 244 97 244 c 0,33,34
 74 244 74 244 52 257 c 128,-1,35
 30 270 30 270 30 295 c 128,-1,36
 30 320 30 320 62 341 c 0,37,38
 122 380 122 380 207 380 c 0,39,40
 256 380 256 380 300 366 c 0,41,42
 382 340 382 340 382 297 c 2,43,-1
 383 90 l 2,44,45
 383 75 383 75 421 65 c 128,-1,46
 459 55 459 55 459 37.5 c 128,-1,47
 459 20 459 20 437.5 5.5 c 128,-1,48
 416 -9 416 -9 394.5 -9 c 128,-1,49
 373 -9 373 -9 352 -1 c 1,50,51
 326 -21 326 -21 326 -39 c 0,52,53
 326 -81 326 -81 350 -97 c 0,54,55
 367 -109 367 -109 399.5 -110.5 c 128,-1,56
 432 -112 432 -112 436 -115 c 128,-1,57
 440 -118 440 -118 440 -125 c 0,0,1
181 51 m 0,58,59
 246 51 246 51 274 171 c 1,60,61
 228 158 228 158 181 132 c 128,-1,62
 134 106 134 106 134 76 c 0,63,64
 134 51 134 51 181 51 c 0,58,59
EndSplineSet
EndChar

StartChar: Aogonek
Encoding: 260 260 176
Width: 670
VWidth: -15
Flags: W
HStem: -155 40<554.544 644.868> -9 41<398.562 470.191> 0 56<168 242.761> 287 76<318.88 404> 562 69<260 365> 573 71<75.8383 191.852 464 529.908>
VStem: 82 76<59 188.577> 472 63<-98.3762 -8.00549>
DStem2: 119 253 191 248 0.232738 0.97254<-177.171 22.3156 113.529 330.413>
LayerCount: 2
Back
Fore
SplineSet
631 -9 m 1,0,-1
 565 -2 l 1,1,2
 535 -24 535 -24 535 -43 c 0,3,4
 535 -111 535 -111 609 -115 c 0,5,6
 641 -117 641 -117 645 -119.5 c 128,-1,7
 649 -122 649 -122 649 -132 c 128,-1,8
 649 -142 649 -142 632.5 -148.5 c 128,-1,9
 616 -155 616 -155 599 -155 c 0,10,11
 547 -155 547 -155 508 -118 c 0,12,13
 489 -99 489 -99 480.5 -82.5 c 128,-1,14
 472 -66 472 -66 472 -42.5 c 128,-1,15
 472 -19 472 -19 478 -4 c 1,16,17
 433 -9 433 -9 422 -9 c 128,-1,18
 411 -9 411 -9 404.5 -0.5 c 128,-1,19
 398 8 398 8 398 16 c 0,20,21
 398 32 398 32 414 32 c 0,22,23
 421 32 421 32 477 55 c 1,24,-1
 424 287 l 1,25,26
 343 282 343 282 191 248 c 1,27,28
 160 138 160 138 158 59 c 1,29,-1
 223 56 l 2,30,31
 243 56 243 56 243 28 c 128,-1,32
 243 0 243 0 224 0 c 2,33,-1
 168 -2 l 1,34,35
 62 -7 l 1,36,37
 40 -7 40 -7 40 24 c 128,-1,38
 40 55 40 55 56 55 c 128,-1,39
 72 55 72 55 82 60 c 1,40,41
 84 105 84 105 119 253 c 0,42,43
 192 566 192 566 194 575 c 1,44,45
 190 576 190 576 138 578.5 c 128,-1,46
 86 581 86 581 75.5 589.5 c 128,-1,47
 65 598 65 598 58.5 616 c 128,-1,48
 52 634 52 634 52 644 c 1,49,-1
 61 644 l 2,50,51
 114 644 114 644 189.5 637.5 c 128,-1,52
 265 631 265 631 311.5 631 c 128,-1,53
 358 631 358 631 397 637.5 c 128,-1,54
 436 644 436 644 476 644 c 0,55,56
 534 644 534 644 534 611 c 0,57,58
 534 573 534 573 464 573 c 1,59,60
 464 539 464 539 517 329.5 c 128,-1,61
 570 120 570 120 570 70 c 0,62,63
 570 52 570 52 625 52 c 0,64,65
 638 52 638 52 644 40 c 128,-1,66
 650 28 650 28 650 16 c 0,67,68
 650 -9 650 -9 631 -9 c 1,0,-1
214 347 m 1,69,-1
 404 363 l 1,70,-1
 365 562 l 1,71,-1
 260 559 l 1,72,-1
 214 347 l 1,69,-1
EndSplineSet
EndChar

StartChar: Eogonek
Encoding: 280 280 177
Width: 642
VWidth: -12
Flags: W
HStem: -132 42<611.533 679.87> -26 108<291.397 463.74> 261 104<172 280.946> 285 102<407.054 525> 566 90<215.599 357.789>
VStem: 45 118<365 450.875> 524 62<-74.5459 12.4677> 574 58<107.875 259.204>
LayerCount: 2
Back
Fore
SplineSet
278 566 m 0,0,1
 242 566 242 566 220 548 c 0,2,3
 168 510 168 510 163 365 c 1,4,-1
 525 387 l 1,5,6
 484 444 484 444 436 487 c 0,7,8
 350 566 350 566 278 566 c 0,0,1
419 82 m 0,9,10
 475 82 475 82 516 95 c 128,-1,11
 557 108 557 108 574 119 c 1,12,-1
 573 285 l 1,13,14
 190 262 190 262 172 261 c 1,15,16
 180 195 180 195 234 142 c 0,17,18
 294 82 294 82 419 82 c 0,9,10
652 -90 m 128,-1,20
 676 -92 676 -92 680 -95 c 128,-1,21
 684 -98 684 -98 684 -108 c 128,-1,22
 684 -118 684 -118 667.5 -125 c 128,-1,23
 651 -132 651 -132 635 -132 c 0,24,25
 600 -132 600 -132 560 -94 c 0,26,27
 524 -58 524 -58 524 -14 c 0,28,29
 524 14 524 14 536 33 c 1,30,31
 487 3 487 3 443 -11.5 c 128,-1,32
 399 -26 399 -26 340 -26 c 0,33,34
 240 -26 240 -26 172 24 c 0,35,36
 45 118 45 118 45 329 c 0,37,38
 45 404 45 404 78 479 c 128,-1,39
 111 554 111 554 170.5 605 c 128,-1,40
 230 656 230 656 295.5 656 c 128,-1,41
 361 656 361 656 427.5 628 c 128,-1,42
 494 600 494 600 540 552 c 1,43,44
 545 566 545 566 552.5 598 c 128,-1,45
 560 630 560 630 567.5 642.5 c 128,-1,46
 575 655 575 655 589 655 c 0,47,48
 606 655 606 655 606 629 c 128,-1,49
 606 603 606 603 586 520.5 c 128,-1,50
 566 438 566 438 560 398 c 1,51,-1
 640 405 l 1,52,53
 632 361 632 361 632 33 c 1,54,55
 586 -3 586 -3 586 -19 c 0,56,57
 586 -60 586 -60 611 -77 c 0,58,19
 628 -88 628 -88 652 -90 c 128,-1,20
EndSplineSet
EndChar

StartChar: eogonek
Encoding: 281 281 178
Width: 444
VWidth: -3
Flags: W
HStem: -140 40<278.535 363.868> -15 68<189.006 191 254 326.25> 327 53<175.036 236.205>
VStem: 38 107<212 288.305> 191 63<-84.625 -16.126>
DStem2: 209 238 243.5 203 0.89799 0.440015<-68.9118 60.3898 160.042 205.69>
LayerCount: 2
Back
Fore
SplineSet
196 327 m 0,0,1
 183 327 183 327 165.5 287.5 c 128,-1,2
 148 248 148 248 145 212 c 1,3,4
 195 232 195 232 209 238 c 0,5,6
 255 256 255 256 264 263 c 1,7,8
 231 327 231 327 196 327 c 0,0,1
368 -114 m 0,9,10
 368 -127 368 -127 351 -133.5 c 128,-1,11
 334 -140 334 -140 317 -140 c 0,12,13
 266 -140 266 -140 227 -103 c 0,14,15
 208 -84 208 -84 199.5 -67.5 c 128,-1,16
 191 -51 191 -51 191 -15 c 1,17,18
 121 -2 121 -2 79.5 55.5 c 128,-1,19
 38 113 38 113 38 186 c 0,20,21
 38 380 38 380 225 380 c 0,22,23
 288 380 288 380 328 342 c 0,24,25
 344 327 344 327 356 317 c 1,26,27
 377 329 377 329 394 329 c 0,28,29
 418 329 418 329 418 296 c 0,30,31
 418 280 418 280 350 250 c 0,32,33
 333 242 333 242 304 229.5 c 128,-1,34
 275 217 275 217 243.5 203 c 128,-1,35
 212 189 212 189 150 152 c 1,36,37
 159 97 159 97 189 75 c 128,-1,38
 219 53 219 53 274 53 c 0,39,40
 323 53 323 53 340 82 c 0,41,42
 355 109 355 109 368 110 c 0,43,44
 375 110 375 110 384.5 104.5 c 128,-1,45
 394 99 394 99 398 98 c 1,46,47
 365 32 365 32 345 19 c 0,48,49
 300 -12 300 -12 256 -16 c 0,50,51
 254 -20 254 -20 254 -28 c 0,52,53
 254 -70 254 -70 278 -86 c 0,54,55
 295 -98 295 -98 327.5 -100 c 128,-1,56
 360 -102 360 -102 364 -104.5 c 128,-1,57
 368 -107 368 -107 368 -114 c 0,9,10
EndSplineSet
EndChar

StartChar: zdotaccent
Encoding: 380 380 179
Width: 481
VWidth: -2
Flags: W
HStem: 4 77<205.705 413.122> 318 79<81.3049 227.951> 447 149<206.021 281.641>
VStem: 166 164<490.111 554.168> 417 48<-44.8364 -15>
DStem2: 305 277 204 81 0.667545 0.744569<-213.358 0 89.3702 144.013>
LayerCount: 2
Back
Fore
SplineSet
297.5 479.5 m 128,-1,1
 265 447 265 447 248.5 447 c 132,-1,2
 232 447 232 447 199 474.5 c 128,-1,3
 166 502 166 502 166 519.5 c 128,-1,4
 166 537 166 537 195 566.5 c 128,-1,5
 224 596 224 596 238 596 c 128,-1,6
 252 596 252 596 291 567.5 c 128,-1,7
 330 539 330 539 330 525.5 c 128,-1,0
 330 512 330 512 297.5 479.5 c 128,-1,1
381 364.5 m 128,-1,9
 392 382 392 382 404 382 c 3,10,11
 428 382 428 382 428 361 c 0,12,13
 428 349 428 349 372 279 c 128,-1,14
 316 209 316 209 260 145 c 2,15,-1
 204 81 l 1,16,17
 420 81 420 81 452 64 c 0,18,19
 466 57 466 57 465 44 c 0,20,21
 465 -50 465 -50 428 -50 c 0,22,23
 417 -50 417 -50 417 -34.5 c 128,-1,24
 417 -19 417 -19 418 -15 c 1,25,26
 261 4 261 4 219 4 c 0,27,28
 148 4 148 4 79 -14 c 2,29,-1
 30 -27 l 1,30,-1
 48 -7 l 2,31,32
 161 119 161 119 305 277 c 1,33,34
 265 285 265 285 227 296.5 c 128,-1,35
 189 308 189 308 163.5 313 c 128,-1,36
 138 318 138 318 98 318 c 0,37,38
 82 318 82 318 59 291 c 1,39,-1
 46 271 l 1,40,-1
 46 296 l 2,41,42
 46 322 46 322 70 359.5 c 128,-1,43
 94 397 94 397 119 397 c 0,44,45
 170 397 170 397 260.5 372 c 128,-1,46
 351 347 351 347 360.5 347 c 128,-1,8
 370 347 370 347 381 364.5 c 128,-1,9
EndSplineSet
EndChar

StartChar: lslash
Encoding: 322 322 181
Width: 248
VWidth: -14
Flags: W
VStem: 66 93<56 268 396 561.368>
LayerCount: 2
Back
Fore
SplineSet
159 304 m 1,0,-1
 159 56 l 1,1,2
 180 61 180 61 213 94 c 1,3,4
 231 72 231 72 231 64 c 0,5,6
 231 47 231 47 166.5 9 c 128,-1,7
 102 -29 102 -29 66 -29 c 1,8,-1
 66 268 l 1,9,-1
 12 251 l 1,10,-1
 9 334 l 1,11,12
 21 338 21 338 66 356 c 1,13,-1
 66 521 l 2,14,15
 66 538 66 538 45 560 c 128,-1,16
 24 582 24 582 24 596.5 c 131,-1,17
 24 611 24 611 74 626 c 128,-1,18
 124 641 124 641 159 644 c 1,19,-1
 159 396 l 1,20,-1
 223 425 l 1,21,22
 224 359 224 359 225 348 c 0,23,24
 225 339 225 339 224 338 c 0,25,26
 213 320 213 320 159 304 c 1,0,-1
EndSplineSet
EndChar

StartChar: Lslash
Encoding: 321 321 182
Width: 645
VWidth: -10
Flags: W
HStem: -18 21G<26 46.5> -10 62<45.5945 146.219 358.401 487.581> -2 54<271.77 435.355> 590 59<46.626 149.672> 591 47<265.441 381.25>
VStem: 147 116<60.7653 258 394 582.142> 586 41<-126 -10>
LayerCount: 2
Back
Fore
SplineSet
271.5 60.5 m 128,-1,1
 280 52 280 52 305 52 c 0,2,3
 472 52 472 52 554 102 c 0,4,5
 592 126 592 126 603 159 c 1,6,7
 615 160 615 160 620 142 c 0,8,9
 627 124 627 124 627 90 c 2,10,-1
 627 -126 l 1,11,-1
 586 -126 l 1,12,-1
 586 -10 l 1,13,14
 521 -2 521 -2 211 -2 c 0,15,16
 174 -2 174 -2 120.5 -10 c 128,-1,17
 67 -18 67 -18 26 -18 c 1,18,19
 26 17 26 17 45 31 c 128,-1,20
 64 45 64 45 86 47 c 0,21,22
 146 52 146 52 147 73 c 0,23,24
 147 142 147 142 149 258 c 1,25,-1
 109 246 l 1,26,27
 107 329 l 1,28,29
 118 332 118 332 151 346 c 1,30,31
 153 478 153 478 153 557 c 3,32,33
 153 585 153 585 90 590 c 0,34,35
 66 592 66 592 46 604.5 c 128,-1,36
 26 617 26 617 26 649 c 1,37,38
 81 649 81 649 129 638 c 0,39,40
 168 629 168 629 191 629 c 131,-1,41
 214 629 214 629 290 638 c 0,42,43
 373 648 373 648 404 649 c 1,44,45
 404 617 404 617 382 605 c 0,46,47
 358 593 358 593 332 591 c 0,48,49
 262 586 262 586 262 557 c 2,50,-1
 262 394 l 1,51,-1
 320 420 l 1,52,53
 324 384 324 384 324 348 c 0,54,55
 324 336 324 336 321 333 c 0,56,57
 316 328 316 328 263 301 c 1,58,-1
 263 76 l 2,59,0
 263 69 263 69 271.5 60.5 c 128,-1,1
EndSplineSet
EndChar

StartChar: uni0412
Encoding: 1042 1042 183
Width: 636
VWidth: -15
Flags: W
HStem: -24 49<73.2837 145.935 283.515 444.678> 558 45<47.6415 132.688> 579 72<282.017 402.493>
VStem: 148 106<54.0055 539.062> 441 110<406.996 539.02> 488 113<65.4697 228.51>
LayerCount: 2
Back
Fore
SplineSet
335 579 m 4,0,1
 302 579 302 579 278 552.5 c 128,-1,2
 254 526 254 526 254 481 c 2,3,-1
 254 126 l 1,4,5
 255 72 255 72 282 48.5 c 128,-1,6
 309 25 309 25 388 25 c 0,7,8
 416 25 416 25 452 52.5 c 128,-1,9
 488 80 488 80 488 125 c 128,-1,10
 488 170 488 170 477 203 c 128,-1,11
 466 236 466 236 445 254 c 128,-1,12
 424 272 424 272 404 282.5 c 128,-1,13
 384 293 384 293 355.5 305 c 128,-1,14
 327 317 327 317 311 328 c 2,15,-1
 295 338 l 1,16,-1
 312 343 l 1,17,18
 441 384 441 384 441 469 c 0,19,20
 441 513 441 513 414 546 c 128,-1,21
 387 579 387 579 335 579 c 4,0,1
470 -15 m 128,-1,23
 439 -24 439 -24 388 -24 c 132,-1,24
 337 -24 337 -24 290.5 -11.5 c 128,-1,25
 244 1 244 1 207 1 c 0,26,27
 204 2 204 2 186 -4 c 0,28,29
 135 -20 135 -20 84 -20 c 0,30,31
 64 -20 64 -20 64 1 c 0,32,33
 64 14 64 14 73 22 c 128,-1,34
 82 30 82 30 101 30 c 128,-1,35
 120 30 120 30 132 33.5 c 128,-1,36
 144 37 144 37 146 40 c 128,-1,37
 148 43 148 43 148 50 c 2,38,-1
 148 519 l 1,39,40
 146 530 146 530 117.5 544 c 128,-1,41
 89 558 89 558 60 558 c 0,42,43
 52 558 52 558 47.5 564.5 c 128,-1,44
 43 571 43 571 43 579 c 128,-1,45
 43 587 43 587 48.5 595 c 128,-1,46
 54 603 54 603 63 603 c 0,47,48
 104 603 104 603 131 589.5 c 128,-1,49
 158 576 158 576 186 576 c 128,-1,50
 214 576 214 576 231 587.5 c 128,-1,51
 248 599 248 599 261 613.5 c 128,-1,52
 274 628 274 628 301.5 639.5 c 128,-1,53
 329 651 329 651 366 651 c 0,54,55
 446 651 446 651 498.5 602 c 128,-1,56
 551 553 551 553 551 483 c 0,57,58
 551 431 551 431 524.5 389.5 c 128,-1,59
 498 348 498 348 449 331 c 1,60,61
 455 328 455 328 480.5 316.5 c 128,-1,62
 506 305 506 305 516.5 299 c 128,-1,63
 527 293 527 293 547 278.5 c 128,-1,64
 567 264 567 264 576 249 c 0,65,66
 601 207 601 207 601 156.5 c 128,-1,67
 601 106 601 106 581.5 69 c 128,-1,68
 562 32 562 32 531.5 13 c 128,-1,22
 501 -6 501 -6 470 -15 c 128,-1,23
EndSplineSet
EndChar

StartChar: uni0410
Encoding: 1040 1040 184
Width: 670
VWidth: -15
Flags: W
HStem: -9 61<40.7734 81.686 158 168 223 241.047 570.944 607.26 631 647.954> -9 41<398.562 470.191> 287 76<318.88 404> 562 69<260 365> 573 71<75.8383 191.852 464 529.908>
VStem: 82 76<59 188.577>
DStem2: 119 253 191 248 0.216598 0.976261<-178.515 20.7777 112.345 329.276>
LayerCount: 2
Back
Fore
SplineSet
214 347 m 5,0,-1
 404 363 l 1,1,-1
 365 562 l 1,2,-1
 260 559 l 1,3,-1
 214 347 l 5,0,-1
168 -2 m 1,4,-1
 62 -7 l 1,5,6
 40 -7 40 -7 40 24 c 128,-1,7
 40 55 40 55 56 55 c 128,-1,8
 72 55 72 55 82 60 c 1,9,10
 84 105 84 105 119 253 c 0,11,12
 192 566 192 566 194 575 c 1,13,14
 190 576 190 576 138 578.5 c 128,-1,15
 86 581 86 581 75.5 589.5 c 128,-1,16
 65 598 65 598 58.5 616 c 128,-1,17
 52 634 52 634 52 644 c 1,18,-1
 61 644 l 6,19,20
 114 644 114 644 189.5 637.5 c 128,-1,21
 265 631 265 631 311.5 631 c 128,-1,22
 358 631 358 631 397 637.5 c 128,-1,23
 436 644 436 644 476 644 c 0,24,25
 534 644 534 644 534 611 c 0,26,27
 534 573 534 573 464 573 c 1,28,29
 464 539 464 539 517 329.5 c 128,-1,30
 570 120 570 120 570 70 c 0,31,32
 570 52 570 52 625 52 c 0,33,34
 638 52 638 52 644 40 c 128,-1,35
 650 28 650 28 650 16 c 0,36,37
 650 -9 650 -9 631 -9 c 0,38,39
 617 -9 617 -9 593.5 -5 c 128,-1,40
 570 -1 570 -1 519 -1 c 1,41,-1
 420 -9 l 2,42,43
 411 -9 411 -9 404.5 -0.5 c 128,-1,44
 398 8 398 8 398 16 c 0,45,46
 398 32 398 32 414 32 c 0,47,48
 421 32 421 32 477 55 c 1,49,-1
 424 287 l 1,50,51
 343 282 343 282 191 248 c 1,52,53
 160 138 160 138 158 59 c 1,54,-1
 223 56 l 2,55,56
 243 56 243 56 243 28 c 128,-1,57
 243 0 243 0 224 0 c 2,58,-1
 168 -2 l 1,4,-1
EndSplineSet
EndChar

StartChar: uni0415
Encoding: 1045 1045 185
Width: 641
VWidth: -12
Flags: W
HStem: -26 108<293.613 461.133> 261 104<171 278.946> 285 102<405.054 523> 566 90<212.472 358.274>
VStem: 44 117<365 450.875> 572 67<167.908 285> 590 37<-86.8672 58.6333>
LayerCount: 2
Back
Fore
SplineSet
312 98 m 0,0,1
 362 82 362 82 418 82 c 132,-1,2
 474 82 474 82 515 95 c 128,-1,3
 556 108 556 108 573 119 c 1,4,-1
 572 285 l 1,5,6
 189 262 189 262 171 261 c 1,7,8
 178 195 178 195 232 142 c 0,9,10
 260 114 260 114 312 98 c 0,0,1
184 500 m 0,11,12
 165 447 165 447 161 365 c 1,13,-1
 523 387 l 1,14,15
 474 455 474 455 408 510.5 c 128,-1,16
 342 566 342 566 275 566 c 132,-1,17
 208 566 208 566 184 500 c 0,11,12
583 64 m 5,18,19
 531 30 531 30 504 15 c 128,-1,20
 477 0 477 0 433 -13 c 128,-1,21
 389 -26 389 -26 339 -26 c 0,22,23
 239 -26 239 -26 171 24 c 0,24,25
 44 118 44 118 44 329 c 0,26,27
 44 404 44 404 77 479 c 128,-1,28
 110 554 110 554 169.5 605 c 128,-1,29
 229 656 229 656 294.5 656 c 128,-1,30
 360 656 360 656 426.5 628 c 128,-1,31
 493 600 493 600 539 552 c 1,32,33
 544 566 544 566 551.5 598 c 128,-1,34
 559 630 559 630 566.5 642.5 c 128,-1,35
 574 655 574 655 588 655 c 0,36,37
 605 655 605 655 605 629 c 128,-1,38
 605 603 605 603 585 520.5 c 128,-1,39
 565 438 565 438 559 398 c 1,40,-1
 639 405 l 1,41,42
 627 257 627 257 627 -65 c 2,43,-1
 627 -69 l 1,44,45
 624 -71 624 -71 620 -75.5 c 128,-1,46
 616 -80 616 -80 613 -83 c 0,47,48
 605 -91 605 -91 598 -91 c 2,49,-1
 590 -91 l 1,50,51
 589 -47 589 -47 583 64 c 5,18,19
EndSplineSet
EndChar

StartChar: uni0418
Encoding: 1048 1048 186
Width: 720
VWidth: -15
Flags: W
HStem: -31 74<277.529 425.677>
VStem: 99 113<111.234 602.889> 523 112<112.477 601.194>
LayerCount: 2
Back
Fore
SplineSet
99 216 m 1,0,-1
 103 580 l 2,1,2
 103 594 103 594 74 605.5 c 128,-1,3
 45 617 45 617 45 629 c 0,4,5
 45 652 45 652 217 652 c 2,6,-1
 227 652 l 5,7,8
 218 602 218 602 215.5 533.5 c 128,-1,9
 213 465 213 465 212 211 c 0,10,11
 212 128 212 128 253 85.5 c 128,-1,12
 294 43 294 43 352 43 c 0,13,14
 393 43 393 43 425.5 56 c 128,-1,15
 458 69 458 69 477 84.5 c 128,-1,16
 496 100 496 100 509.5 129 c 128,-1,17
 523 158 523 158 523 195 c 2,18,-1
 521 556 l 2,19,20
 521 592 521 592 488 612 c 0,21,22
 477 618 477 618 477 626 c 0,23,24
 477 642 477 642 526 648 c 128,-1,25
 575 654 575 654 622 654 c 0,26,27
 639 654 639 654 639 577 c 2,28,-1
 635 123 l 2,29,30
 635 94 635 94 645.5 75 c 128,-1,31
 656 56 656 56 669 50 c 0,32,33
 703 34 703 34 703 19 c 128,-1,34
 703 4 703 4 683.5 -11.5 c 128,-1,35
 664 -27 664 -27 636.5 -27 c 128,-1,36
 609 -27 609 -27 579 -3 c 128,-1,37
 549 21 549 21 535 54 c 1,38,39
 505 17 505 17 430.5 -7 c 128,-1,40
 356 -31 356 -31 299 -31 c 0,41,42
 222 -31 222 -31 160.5 42 c 128,-1,43
 99 115 99 115 99 216 c 1,0,-1
EndSplineSet
EndChar

StartChar: uni0419
Encoding: 1049 1049 187
Width: 720
VWidth: -15
Flags: W
HStem: -31 74<277.529 425.677> 738 32<513.375 560.926>
VStem: 99 113<111.234 602.889> 189 71<719.908 761> 523 112<112.477 601.194>
DStem2: 297.5 706.5 251.5 672.5 0.872779 -0.488115<-53.9012 41.5248> 362 666 434.5 645 0.775534 0.631306<-9.12628 174.87>
LayerCount: 2
Back
Fore
SplineSet
364 602 m 5,0,1
 313 626 313 626 251.5 672.5 c 128,-1,2
 190 719 190 719 189 750 c 0,3,4
 189 768 189 768 208 768 c 0,5,6
 211 768 211 768 260 761 c 1,7,-1
 260 755 l 1,8,9
 269 737 269 737 269 736 c 0,10,11
 270 728 270 728 297.5 706.5 c 128,-1,12
 325 685 325 685 362 666 c 1,13,14
 374 674 374 674 403 704 c 0,15,16
 467 770 467 770 504 770 c 0,17,18
 563 770 563 770 563 746 c 2,19,-1
 563 738 l 1,20,-1
 555 738 l 2,21,22
 518 738 518 738 481 690 c 0,23,24
 466 670 466 670 434.5 645 c 128,-1,25
 403 620 403 620 364 602 c 5,0,1
99 216 m 1,26,-1
 103 580 l 2,27,28
 103 594 103 594 74 605.5 c 128,-1,29
 45 617 45 617 45 629 c 0,30,31
 45 652 45 652 217 652 c 2,32,-1
 227 652 l 1,33,34
 218 602 218 602 215.5 533.5 c 128,-1,35
 213 465 213 465 212 211 c 0,36,37
 212 128 212 128 253 85.5 c 128,-1,38
 294 43 294 43 352 43 c 0,39,40
 393 43 393 43 425.5 56 c 128,-1,41
 458 69 458 69 477 84.5 c 128,-1,42
 496 100 496 100 509.5 129 c 128,-1,43
 523 158 523 158 523 195 c 2,44,-1
 521 556 l 2,45,46
 521 592 521 592 488 612 c 0,47,48
 477 618 477 618 477 626 c 0,49,50
 477 642 477 642 526 648 c 128,-1,51
 575 654 575 654 622 654 c 0,52,53
 639 654 639 654 639 577 c 2,54,-1
 635 123 l 2,55,56
 635 94 635 94 645.5 75 c 128,-1,57
 656 56 656 56 669 50 c 0,58,59
 703 34 703 34 703 19 c 128,-1,60
 703 4 703 4 683.5 -11.5 c 128,-1,61
 664 -27 664 -27 636.5 -27 c 128,-1,62
 609 -27 609 -27 579 -3 c 128,-1,63
 549 21 549 21 535 54 c 1,64,65
 505 17 505 17 430.5 -7 c 128,-1,66
 356 -31 356 -31 299 -31 c 0,67,68
 222 -31 222 -31 160.5 42 c 128,-1,69
 99 115 99 115 99 216 c 1,26,-1
EndSplineSet
EndChar

StartChar: uni041A
Encoding: 1050 1050 188
Width: 646
VWidth: -15
Flags: W
HStem: -21 45<213.1 297.994 561.537 623.838> -20 56<28.8912 96> 597 46<24.1406 95.2235 211.632 279.689 555.66 596.426>
VStem: 96 115<39.3895 296.831 369 595.397>
DStem2: 325 460.5 335 386 0.774661 0.632376<-39.3654 284.23> 427 259.5 370 142 0.512168 -0.858885<-130.114 268.962>
LayerCount: 2
Back
Fore
SplineSet
60 597 m 128,-1,1
 24 597 24 597 24 622 c 0,2,3
 24 643 24 643 51 643 c 0,4,5
 63 643 63 643 98.5 636 c 128,-1,6
 134 629 134 629 154.5 629 c 128,-1,7
 175 629 175 629 209.5 635 c 128,-1,8
 244 641 244 641 254 641 c 0,9,10
 280 641 280 641 280 622.5 c 128,-1,11
 280 604 280 604 245.5 598 c 128,-1,12
 211 592 211 592 211 582 c 2,13,-1
 211 369 l 1,14,15
 240 389 240 389 325 460.5 c 128,-1,16
 410 532 410 532 480.5 589 c 128,-1,17
 551 646 551 646 565.5 646 c 128,-1,18
 580 646 580 646 588.5 635 c 128,-1,19
 597 624 597 624 598 613 c 2,20,-1
 599 602 l 1,21,-1
 599 595 l 5,22,23
 542 582 542 582 406 451 c 0,24,25
 350 397 350 397 335 386 c 1,26,27
 371 352 371 352 427 259.5 c 128,-1,28
 483 167 483 167 527 95.5 c 128,-1,29
 571 24 571 24 589 24 c 0,30,31
 600 24 600 24 612 16.5 c 128,-1,32
 624 9 624 9 624 -0.5 c 128,-1,33
 624 -10 624 -10 582.5 -15.5 c 128,-1,34
 541 -21 541 -21 506 -21 c 0,35,36
 482 -21 482 -21 443 30 c 128,-1,37
 404 81 404 81 370 142 c 0,38,39
 279 305 279 305 245 305 c 0,40,41
 237 305 237 305 224 283 c 128,-1,42
 211 261 211 261 211 241 c 2,43,-1
 211 51 l 2,44,45
 211 43 211 43 232.5 39.5 c 128,-1,46
 254 36 254 36 276 28 c 128,-1,47
 298 20 298 20 298 2 c 128,-1,48
 298 -16 298 -16 272 -16 c 1,49,-1
 155 -8 l 1,50,51
 134 -8 134 -8 95 -14 c 128,-1,52
 56 -20 56 -20 44 -20 c 0,53,54
 16 -20 16 -20 16 -1 c 128,-1,55
 16 18 16 18 28.5 26.5 c 128,-1,56
 41 35 41 35 56 36 c 0,57,58
 96 37 96 37 96 55 c 2,59,-1
 96 577 l 2,60,0
 96 597 96 597 60 597 c 128,-1,1
EndSplineSet
EndChar

StartChar: uni041D
Encoding: 1053 1053 189
Width: 851
VWidth: -15
Flags: W
HStem: -17 70<268.27 461.051> -17 53<287.538 463.989> -15 56<50.6255 153.858 574.902 593.143 716.907 820.827> 301 79<266 391.251> 320 78<576.327 598 707 753.558> 580 56<51.626 124.641 264.356 291.185> 585 64<771.112 800.553> 586 49<571.031 594.781>
VStem: 156 110<58.5781 301 380 575.379> 598 107<58.5352 320 404 575.317>
LayerCount: 2
Back
Fore
SplineSet
707 324 m 1,0,-1
 706 76 l 2,1,2
 706 58 706 58 774 48 c 0,3,4
 800 44 800 44 821.5 29.5 c 128,-1,5
 843 15 843 15 843 -19 c 1,6,7
 724 -2 724 -2 656 -2 c 0,8,9
 641 -2 641 -2 620 -9.5 c 128,-1,10
 599 -17 599 -17 565 -17 c 1,11,12
 565 40 565 40 580 45 c 128,-1,13
 595 50 595 50 595 80 c 128,-1,14
 595 110 595 110 598 320 c 1,15,-1
 266 301 l 1,16,-1
 266 72 l 2,17,18
 266 58 266 58 324 53 c 128,-1,19
 382 48 382 48 441 36 c 128,-1,20
 500 24 500 24 500 -17 c 1,21,22
 250 -8 250 -8 237 -8 c 0,23,24
 185 -8 185 -8 127 -15 c 0,25,26
 74 -22 74 -22 31 -22 c 1,27,28
 31 12 31 12 50 26 c 0,29,30
 70 40 70 40 92 41 c 0,31,32
 156 46 156 46 156 67 c 2,33,-1
 156 552 l 2,34,35
 156 580 156 580 95 580 c 0,36,37
 71 580 71 580 51 591.5 c 128,-1,38
 31 603 31 603 31 636 c 1,39,-1
 198 625 l 24,40,-1
 301 637 l 1,41,42
 301 583 301 583 282 578 c 0,43,44
 264 573 264 573 264 552 c 2,45,-1
 264 380 l 1,46,-1
 598 398 l 1,47,48
 599 449 599 449 599 563 c 0,49,50
 599 577 599 577 595 581 c 0,51,52
 588 586 588 586 582 586 c 3,53,54
 564 586 564 586 564 635 c 1,55,56
 594 635 594 635 615.5 632 c 128,-1,57
 637 629 637 629 646 629 c 24,58,-1
 841 649 l 1,59,60
 841 595 841 595 772 585 c 0,61,62
 705 575 705 575 705 558 c 2,63,-1
 705 404 l 1,64,-1
 781 408 l 1,65,66
 781 367 781 367 754 340 c 0,67,68
 740 326 740 326 707 324 c 1,0,-1
EndSplineSet
EndChar

StartChar: uni041C
Encoding: 1052 1052 190
Width: 842
VWidth: -15
Flags: W
HStem: -26 55<577.797 625.822 746.921 818.531> -22 60<42.86 103.625 181.829 227.171> 571 50<521.236 587.991> 579.5 45.5<92.0485 185.996 694.007 739.749> 580 56<694.416 739.749> 584 62<271.256 298.592> 590 35<81.5366 132.252>
VStem: 104 67<42.1592 190.408> 588 106<484.432 570.079> 611 106<98.8945 400.925> 628 113<38.8372 258.599>
LayerCount: 2
Back
Fore
SplineSet
539.5 406 m 128,-1,1
 588 545 588 545 588 558 c 128,-1,2
 588 571 588 571 553 571 c 128,-1,3
 518 571 518 571 518 611 c 1,4,5
 570 621 570 621 608 621 c 128,-1,6
 646 621 646 621 688 628 c 0,7,8
 730 636 730 636 748 636 c 1,9,10
 748 605 748 605 740 593 c 0,11,12
 732 580 732 580 721 580 c 0,13,14
 694 579 694 579 694 559 c 0,15,16
 694 534 694 534 717 325.5 c 128,-1,17
 740 117 740 117 741 70 c 0,18,19
 741 38 741 38 787 33 c 0,20,21
 804 31 804 31 819 19 c 128,-1,22
 834 7 834 7 834 -27 c 1,23,24
 808 -24 808 -24 784 -19 c 0,25,26
 739 -10 739 -10 699 -10 c 0,27,28
 661 -10 661 -10 628 -18 c 0,29,30
 593 -26 593 -26 568 -26 c 1,31,32
 568 8 568 8 577.5 18.5 c 128,-1,33
 587 29 587 29 599 29 c 0,34,35
 628 29 628 29 628 66 c 128,-1,36
 628 103 628 103 611 220 c 128,-1,37
 594 337 594 337 590 403 c 1,38,39
 496 134 496 134 425 -17 c 1,40,41
 381 151 381 151 242 436 c 1,42,43
 225 349 225 349 198 215 c 128,-1,44
 171 81 171 81 171 64 c 128,-1,45
 171 47 171 47 181.5 42 c 128,-1,46
 192 37 192 37 204.5 36.5 c 128,-1,47
 217 36 217 36 227.5 24.5 c 128,-1,48
 238 13 238 13 238 -19 c 1,49,50
 218 -19 218 -19 196 -16 c 0,51,52
 158 -11 158 -11 130 -11 c 128,-1,53
 102 -11 102 -11 80.5 -16.5 c 128,-1,54
 59 -22 59 -22 31 -22 c 1,55,56
 31 12 31 12 42.5 24.5 c 128,-1,57
 54 37 54 37 68 38 c 0,58,59
 104 41 104 41 104 62 c 128,-1,60
 104 83 104 83 145 304 c 128,-1,61
 186 525 186 525 186 563 c 0,62,63
 186 577 186 577 171.5 579.5 c 128,-1,64
 157 582 157 582 133 583 c 128,-1,65
 109 584 109 584 91.5 590 c 128,-1,66
 74 596 74 596 74 625 c 1,67,-1
 187 625 l 2,68,69
 203 625 203 625 248 635.5 c 128,-1,70
 293 646 293 646 312 646 c 1,71,72
 312 627 312 627 302 611.5 c 128,-1,73
 292 596 292 596 283 590 c 128,-1,74
 274 584 274 584 271 584 c 1,75,76
 416 274 416 274 453 174 c 1,77,0
 491 267 491 267 539.5 406 c 128,-1,1
EndSplineSet
EndChar

StartChar: uni041E
Encoding: 1054 1054 191
Width: 740
VWidth: -15
Flags: W
HStem: -17 55<336.115 529.596> 591 57<274.247 452.799>
VStem: 46 124<208.071 455.158> 600 113<152.311 415.446>
LayerCount: 2
Back
Fore
SplineSet
600 264 m 0,0,1
 600 418 600 418 531.5 504.5 c 128,-1,2
 463 591 463 591 351 591 c 0,3,4
 276 591 276 591 223 520.5 c 128,-1,5
 170 450 170 450 170 341 c 0,6,7
 170 194 170 194 250 116 c 128,-1,8
 330 38 330 38 460 38 c 0,9,10
 500 38 500 38 529 59 c 128,-1,11
 558 80 558 80 572 115 c 0,12,13
 600 181 600 181 600 264 c 0,0,1
436 -17 m 0,14,15
 246 -17 246 -17 146 70.5 c 128,-1,16
 46 158 46 158 46 318.5 c 128,-1,17
 46 479 46 479 141 563.5 c 128,-1,18
 236 648 236 648 403 648 c 0,19,20
 531 648 531 648 622 550 c 128,-1,21
 713 452 713 452 713 322 c 0,22,23
 713 151 713 151 649 67 c 128,-1,24
 585 -17 585 -17 436 -17 c 0,14,15
EndSplineSet
EndChar

StartChar: uni0420
Encoding: 1056 1056 192
Width: 641
VWidth: -14
Flags: W
HStem: -19 56<35.1906 150.516 288.814 525.327> -6.5 50<280.715 508.121> 3 50<278 453.025> 148 56<348.964 489.305> 560 44<31.1572 116.069> 571 6<223 362>
VStem: 141 137<258.093 536.099> 158 120<53 180 253.63 494.527> 531 102<310.229 490.39>
LayerCount: 2
Back
Fore
SplineSet
362 571 m 0,0,1
 322 571 322 571 278 527 c 1,2,-1
 278 270 l 1,3,4
 315 239 315 239 360 221.5 c 128,-1,5
 405 204 405 204 439 204 c 0,6,7
 531 204 531 204 531 409 c 0,8,9
 531 477 531 477 481.5 524 c 128,-1,10
 432 571 432 571 362 571 c 0,0,1
35 -12.5 m 128,-1,12
 29 -6 29 -6 29 4.5 c 128,-1,13
 29 15 29 15 36.5 26 c 128,-1,14
 44 37 44 37 58 37 c 0,15,16
 136 37 136 37 151 55 c 1,17,18
 158 78 158 78 158 206 c 0,19,20
 158 396 158 396 141 518 c 0,21,22
 140 528 140 528 104.5 544 c 128,-1,23
 69 560 69 560 40 560 c 0,24,25
 26 560 26 560 26 580 c 0,26,27
 26 589 26 589 31 596.5 c 128,-1,28
 36 604 36 604 45 604 c 0,29,30
 94 604 94 604 134 590.5 c 128,-1,31
 174 577 174 577 223 577 c 3,32,33
 253 577 253 577 287 614 c 0,34,35
 322 652 322 652 391 652 c 0,36,37
 490 652 490 652 561.5 578.5 c 128,-1,38
 633 505 633 505 633 404 c 0,39,40
 633 352 633 352 602 292 c 128,-1,41
 571 232 571 232 520 190 c 0,42,43
 470 148 470 148 424 148 c 0,44,45
 347 148 347 148 301 170 c 0,46,47
 281 180 281 180 278 180 c 1,48,-1
 278 53 l 1,49,50
 365 52 365 52 436.5 43.5 c 128,-1,51
 508 35 508 35 514 34.5 c 128,-1,52
 520 34 520 34 525.5 26.5 c 128,-1,53
 531 19 531 19 531 10 c 128,-1,54
 531 1 531 1 525.5 -7.5 c 128,-1,55
 520 -16 520 -16 508.5 -16 c 128,-1,56
 497 -16 497 -16 406 -6.5 c 128,-1,57
 315 3 315 3 234 3 c 128,-1,58
 153 3 153 3 115.5 -8 c 128,-1,59
 78 -19 78 -19 59.5 -19 c 128,-1,11
 41 -19 41 -19 35 -12.5 c 128,-1,12
EndSplineSet
EndChar

StartChar: uni0421
Encoding: 1057 1057 193
Width: 662
VWidth: -12
Flags: W
HStem: -17.5 53.5<353.243 484.266> 593 64<239.211 357.444>
VStem: 43 101<240.945 451.369> 588 38<-87.2188 25>
LayerCount: 2
Back
Fore
SplineSet
627 146 m 1,0,-1
 626 -65 l 1,1,-1
 626 -69 l 1,2,3
 623 -71 623 -71 619 -75.5 c 128,-1,4
 615 -80 615 -80 612 -83 c 0,5,6
 604 -91 604 -91 597 -91 c 2,7,-1
 595 -91 l 1,8,9
 588 -87 588 -87 588 -79 c 2,10,-1
 587 -56 l 1,11,12
 587 -20 587 -20 582 25 c 1,13,14
 528 -9 528 -9 478 -17.5 c 128,-1,15
 428 -26 428 -26 333 -26 c 128,-1,16
 238 -26 238 -26 170 24 c 0,17,18
 43 118 43 118 43 329 c 0,19,20
 43 404 43 404 76 479 c 128,-1,21
 109 554 109 554 168.5 605.5 c 128,-1,22
 228 657 228 657 299.5 657 c 128,-1,23
 371 657 371 657 413 645.5 c 128,-1,24
 455 634 455 634 496 590 c 1,25,26
 509 600 509 600 532.5 622 c 128,-1,27
 556 644 556 644 566.5 649.5 c 128,-1,28
 577 655 577 655 587 655 c 0,29,30
 604 655 604 655 604 626 c 0,31,32
 604 586 604 586 477 484 c 1,33,34
 449 519 449 519 385 556 c 128,-1,35
 321 593 321 593 287 593 c 128,-1,36
 253 593 253 593 219 548.5 c 128,-1,37
 185 504 185 504 164.5 446.5 c 128,-1,38
 144 389 144 389 144 335 c 128,-1,39
 144 281 144 281 175.5 221 c 128,-1,40
 207 161 207 161 253 122 c 128,-1,41
 299 83 299 83 348.5 59.5 c 128,-1,42
 398 36 398 36 436 36 c 0,43,44
 450 36 450 36 472 50 c 128,-1,45
 494 64 494 64 540 98 c 128,-1,46
 586 132 586 132 615 152 c 1,47,-1
 627 159 l 1,48,-1
 627 146 l 1,0,-1
EndSplineSet
EndChar

StartChar: uni0422
Encoding: 1058 1058 194
Width: 683
VWidth: -17
Flags: W
HStem: -13 57<487.059 545.186> 7 37<191.976 284.602> 530 82<111.669 292.736 407.129 504.335> 533 69<407.129 614.139> 542 80<75.822 286.612>
VStem: 18 52<493.346 540.883> 293 110<56 523.813> 624 59<618.284 682.704>
LayerCount: 2
Back
Fore
SplineSet
335 7 m 3,0,1
 310 7 310 7 258 -2 c 0,2,3
 194 -14 194 -14 137 -14 c 1,4,5
 137 18 137 18 161.5 30 c 128,-1,6
 186 42 186 42 215 44 c 0,7,8
 293 51 293 51 293 78 c 2,9,-1
 293 515 l 1,10,11
 285 527 285 527 221 534.5 c 128,-1,12
 157 542 157 542 97 542 c 0,13,14
 70 542 70 542 70 470 c 1,15,16
 36 479 36 479 26 493 c 0,17,18
 18 504 18 504 18 523 c 0,19,20
 18 569 18 569 42 595.5 c 128,-1,21
 66 622 66 622 109 622 c 0,22,23
 194 622 194 622 331.5 612 c 128,-1,24
 469 602 469 602 505.5 602 c 128,-1,25
 542 602 542 602 583 612.5 c 128,-1,26
 624 623 624 623 624 636 c 0,27,28
 624 651 624 651 589 674 c 1,29,-1
 649 713 l 1,30,-1
 670 690 l 2,31,32
 683 677 683 677 683 660 c 0,33,34
 683 616 683 616 649 576 c 0,35,36
 613 534 613 534 543 533 c 1,37,-1
 430 530 l 2,38,39
 411 530 411 530 407 524 c 128,-1,40
 403 518 403 518 403 515 c 2,41,-1
 403 78 l 2,42,43
 404 51 404 51 488 44 c 0,44,45
 520 42 520 42 546 30.5 c 128,-1,46
 572 19 572 19 572 -13 c 1,47,-1
 335 7 l 3,0,1
EndSplineSet
EndChar

StartChar: uni0425
Encoding: 1061 1061 195
Width: 614
VWidth: -15
Flags: W
HStem: -18 78<49.8203 127.389> 546 100<72.2852 129.73>
DStem2: 184 147 214.5 60 0.466974 0.884271<-89.6742 135.853 305.63 493.335>
LayerCount: 2
Back
Fore
SplineSet
570 91 m 1,0,1
 597 73 597 73 597 64 c 0,2,3
 597 48 597 48 569.5 15.5 c 128,-1,4
 542 -17 542 -17 509 -17 c 128,-1,5
 476 -17 476 -17 456 -8.5 c 128,-1,6
 436 0 436 0 412 30.5 c 128,-1,7
 388 61 388 61 306 240 c 1,8,9
 269 138 269 138 214.5 60 c 128,-1,10
 160 -18 160 -18 115 -18 c 0,11,12
 82 -18 82 -18 58 -2 c 128,-1,13
 34 14 34 14 34 30 c 0,14,15
 34 55 34 55 84 60 c 0,16,17
 127 65 127 65 184 147 c 0,18,19
 234 219 234 219 266 294 c 1,20,21
 249 329 249 329 196 421 c 128,-1,22
 143 513 143 513 115 546 c 1,23,24
 34 546 34 546 34 575 c 0,25,26
 34 596 34 596 67.5 621 c 128,-1,27
 101 646 101 646 120 646 c 0,28,29
 196 646 196 646 331 415 c 1,30,31
 436 643 436 643 512 643 c 0,32,33
 526 643 526 643 540 629 c 128,-1,34
 554 615 554 615 554 603 c 0,35,36
 554 576 554 576 508 552 c 0,37,38
 472 533 472 533 426 460.5 c 128,-1,39
 380 388 380 388 361 347 c 1,40,41
 498 73 498 73 515 64 c 1,42,43
 536 68 536 68 570 91 c 1,0,1
EndSplineSet
EndChar

StartChar: uni042F
Encoding: 1071 1071 196
Width: 704
VWidth: -14
Flags: W
HStem: -18 56<556.484 676.627> -13 72<31.1016 84.9653> -6 49<313.158 443.257> 3 53<330.894 445> 274 34<388 398.461> 557 44<589.867 681.996> 571 81<270.269 414.821>
VStem: 119 105<341.846 525.046> 444 106<56 274 339.654 523.883> 445 122<341.875 534.934>
DStem2: 85 65 183 10 0.560478 0.828169<-28.932 238.307>
LayerCount: 2
Back
Fore
SplineSet
362.5 49 m 128,-1,1
 389 55 389 55 445 56 c 1,2,-1
 444 274 l 1,3,4
 388 268 388 268 318 200 c 0,5,6
 287 170 287 170 271 146 c 0,7,8
 255 124 255 124 227 78 c 128,-1,9
 199 32 199 32 183 10 c 0,10,11
 167 -13 167 -13 97 -13 c 128,-1,12
 27 -13 27 -13 27 25 c 0,13,14
 27 48 27 48 69 59 c 0,15,16
 84 63 84 63 85 65 c 0,17,18
 147 157 147 157 184 210 c 0,19,20
 206 242 206 242 219 263 c 1,21,22
 173 287 173 287 146 333 c 128,-1,23
 119 379 119 379 119 434 c 0,24,25
 119 535 119 535 176 593.5 c 128,-1,26
 233 652 233 652 331 652 c 0,27,28
 367 652 367 652 394.5 640 c 128,-1,29
 422 628 422 628 435 614 c 0,30,31
 469 577 469 577 499 577 c 3,32,33
 549 577 549 577 582 589 c 128,-1,34
 615 601 615 601 665 601 c 0,35,36
 682 601 682 601 682 579 c 128,-1,37
 682 557 682 557 666 557 c 0,38,39
 637 557 637 557 602.5 541.5 c 128,-1,40
 568 526 568 526 567 515 c 0,41,42
 559 424 559 424 555 374 c 0,43,44
 551 318 551 318 550 196 c 0,45,46
 550 74 550 74 556 55 c 1,47,48
 571 38 571 38 649 38 c 0,49,50
 663 38 663 38 671 26.5 c 128,-1,51
 679 15 679 15 679 3 c 0,52,53
 679 -18 679 -18 649 -18 c 0,54,55
 631 -18 631 -18 593 -8 c 128,-1,56
 555 2 555 2 474 3 c 0,57,58
 393 3 393 3 368 -1.5 c 128,-1,59
 343 -6 343 -6 330.5 -6 c 128,-1,60
 318 -6 318 -6 313 2 c 128,-1,61
 308 10 308 10 308 19 c 128,-1,62
 308 28 308 28 313 35.5 c 128,-1,63
 318 43 318 43 327 43 c 128,-1,0
 336 43 336 43 362.5 49 c 128,-1,1
360 571 m 0,64,65
 290 571 290 571 257 539 c 128,-1,66
 224 507 224 507 224 438.5 c 128,-1,67
 224 370 224 370 245.5 339 c 128,-1,68
 267 308 267 308 326 308 c 0,69,70
 401 308 401 308 444 362 c 1,71,-1
 445 527 l 1,72,73
 432 540 432 540 407 555.5 c 128,-1,74
 382 571 382 571 360 571 c 0,64,65
EndSplineSet
EndChar

StartChar: uni0430
Encoding: 1072 1072 197
Width: 458
VWidth: -3
Flags: W
HStem: -13 64<76.5 220.206> -9 74<383.429 446.977> 244 46<128.002 158.622> 311 69<128.19 261.891>
VStem: 30 104<54.0059 115.151 279.649 304.991> 275 107<223.083 296.219>
LayerCount: 2
Back
Fore
SplineSet
181 51 m 4,0,1
 246 51 246 51 274 171 c 1,2,3
 228 158 228 158 181 132 c 128,-1,4
 134 106 134 106 134 76 c 0,5,6
 134 51 134 51 181 51 c 4,0,1
123 -13 m 4,7,8
 30 -13 30 -13 30 59 c 0,9,10
 30 103 30 103 68 135 c 0,11,12
 106 168 106 168 152 182 c 0,13,14
 274 221 274 221 275 248 c 0,15,16
 275 311 275 311 195 311 c 0,17,18
 173 311 173 311 152.5 304 c 128,-1,19
 132 297 132 297 128 292 c 0,20,21
 128 291 128 291 136 290 c 0,22,23
 159 287 159 287 159 270 c 0,24,25
 159 244 159 244 97 244 c 0,26,27
 74 244 74 244 52 257 c 128,-1,28
 30 270 30 270 30 295 c 128,-1,29
 30 320 30 320 62 341 c 0,30,31
 122 380 122 380 207 380 c 0,32,33
 256 380 256 380 300 366 c 0,34,35
 382 340 382 340 382 297 c 2,36,-1
 383 90 l 2,37,38
 383 75 383 75 421 65 c 128,-1,39
 459 55 459 55 459 37.5 c 128,-1,40
 459 20 459 20 437.5 5.5 c 128,-1,41
 416 -9 416 -9 393 -9 c 128,-1,42
 370 -9 370 -9 341.5 3 c 128,-1,43
 313 15 313 15 289 27.5 c 128,-1,44
 265 40 265 40 263 40.5 c 128,-1,45
 261 41 261 41 246.5 27 c 128,-1,46
 232 13 232 13 200 0 c 128,-1,47
 168 -13 168 -13 123 -13 c 4,7,8
EndSplineSet
EndChar

StartChar: uni0435
Encoding: 1077 1077 198
Width: 425
VWidth: -3
Flags: W
HStem: -9 71<180.711 316.028> 336 53<166.036 226.984>
VStem: 29 107<221 297.305>
DStem2: 136 221 141 161 0.895274 0.445516<0 94.8227 235.682 274.571>
LayerCount: 2
Back
Fore
SplineSet
389 107 m 5,0,1
 387 103 387 103 379 88.5 c 132,-1,2
 371 74 371 74 368 68 c 132,-1,3
 365 62 365 62 355.5 49 c 132,-1,4
 346 36 346 36 339 30.5 c 132,-1,5
 332 25 332 25 319 15.5 c 132,-1,6
 306 6 306 6 292 2 c 4,7,8
 254 -9 254 -9 217 -9 c 4,9,10
 132 -9 132 -9 80.5 52 c 132,-1,11
 29 113 29 113 29 195 c 4,12,13
 29 389 29 389 216 389 c 4,14,15
 240 389 240 389 262.5 382 c 132,-1,16
 285 375 285 375 293.5 369.5 c 132,-1,17
 302 364 302 364 307 361 c 132,-1,18
 312 358 312 358 319.5 351 c 132,-1,19
 327 344 327 344 330 342 c 4,20,21
 334 340 334 340 340 334 c 6,22,-1
 347 326 l 5,23,24
 368 338 368 338 385 338 c 4,25,26
 409 338 409 338 409 305 c 4,27,28
 409 288 409 288 341 258 c 4,29,30
 324 250 324 250 295 238 c 132,-1,31
 266 226 266 226 234.5 212 c 132,-1,32
 203 198 203 198 141 161 c 5,33,34
 150 106 150 106 180 84 c 132,-1,35
 210 62 210 62 265 62 c 4,36,37
 292 62 292 62 309 71 c 132,-1,38
 326 80 326 80 332 90 c 4,39,40
 347 119 347 119 359 119 c 4,41,42
 366 119 366 119 375.5 113.5 c 132,-1,43
 385 108 385 108 389 107 c 5,0,1
187 336 m 4,44,45
 174 336 174 336 156.5 296.5 c 132,-1,46
 139 257 139 257 136 221 c 5,47,48
 186 242 186 242 200 247.5 c 132,-1,49
 214 253 214 253 224 257 c 4,50,51
 245 265 245 265 255 272 c 5,52,53
 222 336 222 336 187 336 c 4,44,45
EndSplineSet
EndChar

StartChar: uni0438
Encoding: 1080 1080 199
Width: 499
VWidth: -4
Flags: W
HStem: -15 78<191.467 289.932>
VStem: 61 93<103.127 332.801> 346 91<133.257 333.937>
LayerCount: 2
Back
Fore
SplineSet
191 386 m 5,0,1
 154 302 154 302 154 218 c 128,-1,2
 154 134 154 134 179 98.5 c 128,-1,3
 204 63 204 63 263 63 c 0,4,5
 299 63 299 63 322 115 c 128,-1,6
 345 167 345 167 346 265 c 0,7,8
 346 298 346 298 337 316.5 c 128,-1,9
 328 335 328 335 317.5 338.5 c 128,-1,10
 307 342 307 342 298 346.5 c 128,-1,11
 289 351 289 351 289 360 c 0,12,13
 289 384 289 384 421 384 c 0,14,15
 437 384 437 384 437 311 c 0,16,17
 437 253 437 253 434.5 214.5 c 128,-1,18
 432 176 432 176 431.5 165 c 128,-1,19
 431 154 431 154 430 146 c 2,20,-1
 428 130 l 1,21,22
 428 88 428 88 468 60 c 0,23,24
 482 50 482 50 481.5 38.5 c 128,-1,25
 481 27 481 27 463 5.5 c 128,-1,26
 445 -16 445 -16 428.5 -16 c 128,-1,27
 412 -16 412 -16 382 -2 c 128,-1,28
 352 12 352 12 337 41 c 1,29,30
 302 11 302 11 271 -2 c 128,-1,31
 240 -15 240 -15 195.5 -15 c 128,-1,32
 151 -15 151 -15 125 3 c 0,33,34
 99 22 99 22 86 52 c 0,35,36
 61 111 61 111 61 185 c 0,37,38
 61 222 61 222 67 274.5 c 128,-1,39
 73 327 73 327 73 333 c 1,40,41
 40 342 40 342 40 359 c 0,42,43
 40 373 40 373 93 379.5 c 128,-1,44
 146 386 146 386 181 386 c 2,45,-1
 191 386 l 5,0,1
EndSplineSet
EndChar

StartChar: uni0439
Encoding: 1081 1081 200
Width: 499
VWidth: -4
Flags: W
HStem: -15 78<191.467 289.932> 465 85<129.509 375.937> 473 82<119 259.322 263.503 375.937>
VStem: 61 93<103.127 332.801> 346 91<133.257 333.937>
LayerCount: 2
Back
Fore
SplineSet
388 556 m 5,0,1
 388 518 388 518 376 477 c 0,2,3
 374 473 374 473 371 473 c 0,4,5
 310 465 310 465 262 465 c 0,6,7
 176 465 176 465 128 471 c 2,8,-1
 112 473 l 1,9,-1
 105 474 l 1,10,-1
 105 481 l 2,11,12
 105 492 105 492 109.5 521 c 128,-1,13
 114 550 114 550 118 551 c 1,14,-1
 119 555 l 1,15,-1
 125 555 l 1,16,17
 207 550 207 550 259 550 c 1,18,-1
 380 555 l 1,19,-1
 388 556 l 5,0,1
191 386 m 1,20,21
 154 302 154 302 154 218 c 128,-1,22
 154 134 154 134 179 98.5 c 128,-1,23
 204 63 204 63 263 63 c 0,24,25
 299 63 299 63 322 115 c 128,-1,26
 345 167 345 167 346 265 c 0,27,28
 346 298 346 298 337 316.5 c 128,-1,29
 328 335 328 335 317.5 338.5 c 128,-1,30
 307 342 307 342 298 346.5 c 128,-1,31
 289 351 289 351 289 360 c 0,32,33
 289 384 289 384 421 384 c 0,34,35
 437 384 437 384 437 311 c 0,36,37
 437 253 437 253 434.5 214.5 c 128,-1,38
 432 176 432 176 431.5 165 c 128,-1,39
 431 154 431 154 430 146 c 2,40,-1
 428 130 l 1,41,42
 428 88 428 88 468 60 c 0,43,44
 482 50 482 50 481.5 38.5 c 128,-1,45
 481 27 481 27 463 5.5 c 128,-1,46
 445 -16 445 -16 428.5 -16 c 128,-1,47
 412 -16 412 -16 382 -2 c 128,-1,48
 352 12 352 12 337 41 c 1,49,50
 302 11 302 11 271 -2 c 128,-1,51
 240 -15 240 -15 195.5 -15 c 128,-1,52
 151 -15 151 -15 125 3 c 0,53,54
 99 22 99 22 86 52 c 0,55,56
 61 111 61 111 61 185 c 0,57,58
 61 222 61 222 67 274.5 c 128,-1,59
 73 327 73 327 73 333 c 1,60,61
 40 342 40 342 40 359 c 0,62,63
 40 373 40 373 93 379.5 c 128,-1,64
 146 386 146 386 181 386 c 2,65,-1
 191 386 l 1,20,21
EndSplineSet
EndChar

StartChar: uni0440
Encoding: 1088 1088 201
Width: 499
VWidth: 8
Flags: W
HStem: -160.5 56.5<194.959 316.324> -11 67<219.496 354.048> 313 82<228.859 318.058> 314 61<18.4041 87.5601>
VStem: 89 105<-104 19 81.4092 292.996> 365 108<88.04 253.8>
LayerCount: 2
Back
Fore
SplineSet
194 -104 m 1,0,-1
 229 -105 l 1,1,2
 265 -105 265 -105 288 -110.5 c 128,-1,3
 311 -116 311 -116 316.5 -120 c 128,-1,4
 322 -124 322 -124 322 -129 c 0,5,6
 322 -149 322 -149 253 -160.5 c 128,-1,7
 184 -172 184 -172 116 -174 c 2,8,-1
 39 -175 l 1,9,10
 39 -151 39 -151 50 -140 c 0,11,12
 67 -122 67 -122 89 -114 c 1,13,-1
 89 314 l 1,14,15
 32 322 32 322 14 340 c 0,16,17
 0 354 0 354 0 383 c 9,18,-1
 72 375 l 3,19,20
 114 375 114 375 194 389 c 1,21,-1
 191 329 l 1,22,-1
 230 374 l 2,23,24
 248 395 248 395 290 395 c 0,25,26
 361 394 361 394 417 334 c 0,27,28
 473 271 473 271 473 225 c 0,29,30
 473 119 473 119 434.5 54 c 128,-1,31
 396 -11 396 -11 312 -11 c 0,32,33
 264 -11 264 -11 241 -4 c 128,-1,34
 218 3 218 3 194 19 c 1,35,-1
 194 -104 l 1,0,-1
268 313 m 0,36,37
 240 313 240 313 223.5 299.5 c 128,-1,38
 207 286 207 286 191 260 c 1,39,-1
 194 115 l 1,40,41
 210 56 210 56 313 56 c 0,42,43
 345 56 345 56 355 79 c 128,-1,44
 365 102 365 102 365 159 c 128,-1,45
 365 216 365 216 337.5 264.5 c 128,-1,46
 310 313 310 313 268 313 c 0,36,37
EndSplineSet
EndChar

StartChar: uni043E
Encoding: 1086 1086 202
Width: 456
VWidth: -3
Flags: W
HStem: -19 69<232.157 329.022> 316 69<143.763 255.324>
VStem: 38 95<166.085 293.159> 336 94<86.0215 241>
LayerCount: 2
Back
Fore
SplineSet
336 114 m 4,0,1
 336 183 336 183 292.5 249.5 c 128,-1,2
 249 316 249 316 204.5 316 c 128,-1,3
 160 316 160 316 146.5 304 c 128,-1,4
 133 292 133 292 133 254 c 0,5,6
 133 182 133 182 188 116 c 128,-1,7
 243 50 243 50 281 50 c 128,-1,8
 319 50 319 50 327.5 61 c 128,-1,9
 336 72 336 72 336 114 c 4,0,1
388 47 m 128,-1,11
 346 -19 346 -19 259.5 -19 c 132,-1,12
 173 -19 173 -19 105.5 44.5 c 128,-1,13
 38 108 38 108 38 188 c 0,14,15
 38 285 38 285 92 335 c 128,-1,16
 146 385 146 385 242 385 c 0,17,18
 312 385 312 385 371 325.5 c 128,-1,19
 430 266 430 266 430 216 c 0,20,10
 430 113 430 113 388 47 c 128,-1,11
EndSplineSet
EndChar

StartChar: uni0441
Encoding: 1089 1089 203
Width: 410
VWidth: -3
Flags: W
HStem: -19 67<194.676 311.373> 310 73<160.569 275.883>
VStem: 30 102<109.219 278.232>
LayerCount: 2
Back
Fore
SplineSet
384 97 m 1,0,1
 354 37 354 37 335 21 c 0,2,3
 310 0 310 0 293 -6 c 0,4,5
 256 -19 256 -19 216 -19 c 0,6,7
 131 -19 131 -19 80.5 41.5 c 128,-1,8
 30 102 30 102 30 192.5 c 128,-1,9
 30 283 30 283 83 333 c 128,-1,10
 136 383 136 383 231 383 c 0,11,12
 295 383 295 383 334.5 362.5 c 128,-1,13
 374 342 374 342 374 317 c 0,14,15
 374 303 374 303 364 290 c 128,-1,16
 354 277 354 277 345 271 c 128,-1,17
 336 265 336 265 316 253 c 1,18,19
 310 258 310 258 297.5 269.5 c 128,-1,20
 285 281 285 281 280.5 284.5 c 128,-1,21
 276 288 276 288 265 295 c 128,-1,22
 254 302 254 302 246 304 c 0,23,24
 225 310 225 310 198.5 310 c 131,-1,25
 172 310 172 310 152 275 c 0,26,27
 132 239 132 239 132 183 c 3,28,29
 132 128 132 128 172 88 c 0,30,31
 214 48 214 48 273 48 c 0,32,33
 303 48 303 48 322.5 78.5 c 128,-1,34
 342 109 342 109 355 109 c 0,35,36
 362 109 362 109 370.5 103.5 c 128,-1,37
 379 98 379 98 384 97 c 1,0,1
EndSplineSet
EndChar

StartChar: uni0442
Encoding: 1090 1090 204
Width: 713
VWidth: -3
Flags: W
HStem: -18 27G<116 142 345 372.5 566 567.5> 304 77<243.056 363.031 483.517 592.872> 314 67<58.2012 87.0641>
VStem: 116 95<10.1008 282.984> 345 97<10.1543 268.734> 574 111<127.803 298.269> 575 100.5<-9.44385 192.371>
LayerCount: 2
Back
Fore
SplineSet
27 327.5 m 128,-1,1
 27 341 27 341 62.5 361 c 128,-1,2
 98 381 98 381 114.5 381 c 128,-1,3
 131 381 131 381 160 367.5 c 128,-1,4
 189 354 189 354 203 326 c 1,5,6
 232 355 232 355 260 368 c 128,-1,7
 288 381 288 381 326 381 c 0,8,9
 412 381 412 381 435 324 c 1,10,11
 497 381 497 381 575 381 c 0,12,13
 630 381 630 381 657 336 c 0,14,15
 685 290 685 290 685 194 c 0,16,17
 685 142 685 142 675.5 75 c 128,-1,18
 666 8 666 8 660 -11 c 1,19,20
 578 -12 578 -12 557 -12 c 1,21,22
 575 70 575 70 575 126 c 3,23,24
 575 184 575 184 574 202 c 0,25,26
 572 276 572 276 556 299 c 0,27,28
 548 310 548 310 515 310 c 0,29,30
 500 310 500 310 442 266 c 1,31,-1
 442 108 l 2,32,33
 442 43 442 43 421 12 c 0,34,35
 400 -18 400 -18 345 -18 c 1,36,-1
 345 151 l 2,37,38
 345 278 345 278 290 300 c 0,39,40
 280 304 280 304 269 304 c 0,41,42
 246 304 246 304 228 288 c 0,43,44
 218 280 218 280 211 273 c 1,45,-1
 211 104 l 2,46,47
 211 40 211 40 189.5 11 c 128,-1,48
 168 -18 168 -18 116 -18 c 1,49,-1
 116 153 l 2,50,51
 116 252 116 252 93 284 c 0,52,53
 72 314 72 314 49.5 314 c 128,-1,0
 27 314 27 314 27 327.5 c 128,-1,1
EndSplineSet
EndChar

StartChar: uni0443
Encoding: 1091 1091 205
Width: 408
VWidth: 8
Flags: W
HStem: 345 53<34.0853 60.0403>
VStem: 331 74<258.928 383.04>
LayerCount: 2
Back
Fore
SplineSet
202 -67 m 5,0,1
 213 -83 213 -83 240 -105 c 5,2,3
 210 -176 210 -176 183 -176 c 4,4,5
 164 -176 164 -176 142 -158 c 4,6,7
 117 -138 117 -138 90 -100 c 5,8,9
 104 -80 104 -80 120 -62 c 4,10,11
 153 -22 153 -22 190 30 c 5,12,13
 120 223 120 223 96 270 c 4,14,15
 57 345 57 345 15 345 c 5,16,17
 15 378 15 378 33.5 388 c 132,-1,18
 52 398 52 398 100 398 c 4,19,20
 186 398 186 398 267 141 c 5,21,22
 331 256 331 256 331 326 c 4,23,24
 331 369 331 369 342 383.5 c 132,-1,25
 353 398 353 398 370.5 398 c 132,-1,26
 388 398 388 398 396.5 387 c 132,-1,27
 405 376 405 376 405 365 c 4,28,29
 405 316 405 316 378.5 246 c 132,-1,30
 352 176 352 176 310 106 c 4,31,32
 250 2 250 2 202 -67 c 5,0,1
EndSplineSet
EndChar

StartChar: uni0445
Encoding: 1093 1093 206
Width: 498
VWidth: -4
Flags: W
HStem: -15 69.5<382.237 433.299> -10 114<52.1201 117.513> 288 103<396.387 457.127>
DStem2: 131 56 178 24 0.5547 0.83205<0 108.999 241.572 363.655> 265 257 131.5 264 0.586546 -0.809916<-150.09 0 220.807 255.227>
LayerCount: 2
Back
Fore
SplineSet
131 56 m 1,0,-1
 204 167 l 1,1,2
 181 202 181 202 175 209.5 c 128,-1,3
 169 217 169 217 159 231 c 128,-1,4
 149 245 149 245 145 249 c 128,-1,5
 141 253 141 253 131.5 264 c 128,-1,6
 122 275 122 275 116 279.5 c 128,-1,7
 110 284 110 284 99.5 292.5 c 128,-1,8
 89 301 89 301 80 306 c 0,9,10
 55 320 55 320 34 328 c 1,11,-1
 34 334 l 2,12,13
 34 389 34 389 98 389 c 128,-1,14
 162 389 162 389 265 257 c 1,15,16
 313 333 313 333 342.5 362 c 128,-1,17
 372 391 372 391 410 391 c 0,18,19
 431 391 431 391 450.5 375 c 128,-1,20
 470 359 470 359 470 338 c 128,-1,21
 470 317 470 317 454.5 302.5 c 128,-1,22
 439 288 439 288 420 288 c 128,-1,23
 401 288 401 288 393 321 c 1,24,25
 346 269 346 269 300 202 c 1,26,27
 346 114 346 114 386 72 c 0,28,29
 402 54 402 54 409.5 54.5 c 128,-1,30
 417 55 417 55 432 62.5 c 128,-1,31
 447 70 447 70 453 82 c 1,32,33
 464 79 464 79 472 70 c 128,-1,34
 480 61 480 61 480 52 c 0,35,36
 480 40 480 40 441.5 12.5 c 128,-1,37
 403 -15 403 -15 383 -15 c 0,38,39
 336 -15 336 -15 314 12 c 0,40,41
 266 68 266 68 239 115 c 1,42,43
 236 109 236 109 214 76 c 128,-1,44
 192 43 192 43 178 24 c 0,45,46
 153 -10 153 -10 133 -10 c 0,47,48
 68 -10 68 -10 47 18 c 0,49,50
 31 40 31 40 31 51.5 c 128,-1,51
 31 63 31 63 33.5 72 c 128,-1,52
 36 81 36 81 46.5 92.5 c 128,-1,53
 57 104 57 104 71.5 104 c 128,-1,54
 86 104 86 104 94.5 101.5 c 128,-1,55
 103 99 103 99 109 91.5 c 128,-1,56
 115 84 115 84 118 81 c 128,-1,57
 121 78 121 78 126 67 c 2,58,-1
 131 56 l 1,0,-1
EndSplineSet
EndChar

StartChar: uni043F
Encoding: 1087 1087 207
Width: 488
VWidth: -3
Flags: W
HStem: -14 21G<108 138 349 369> 304 78<241.946 358.25> 314 69<54.8467 80.3354>
VStem: 108 99<27.6191 283.993> 371 89<26.9214 260.762>
LayerCount: 2
Back
Fore
SplineSet
22 327.5 m 128,-1,1
 22 341 22 341 57 362 c 128,-1,2
 92 383 92 383 108.5 383 c 128,-1,3
 125 383 125 383 155.5 368.5 c 128,-1,4
 186 354 186 354 200 326 c 1,5,6
 231 356 231 356 259 369 c 128,-1,7
 287 382 287 382 334.5 382 c 128,-1,8
 382 382 382 382 411.5 350 c 128,-1,9
 441 318 441 318 450.5 276.5 c 128,-1,10
 460 235 460 235 460 183 c 0,11,12
 460 56 460 56 436 24 c 4,13,14
 422 6 422 6 400 -4 c 128,-1,15
 378 -14 378 -14 360 -14 c 2,16,-1
 349 -14 l 1,17,18
 371 70 371 70 371 150 c 128,-1,19
 371 230 371 230 345 267 c 128,-1,20
 319 304 319 304 266 304 c 0,21,22
 249 304 249 304 242 300 c 128,-1,23
 235 296 235 296 225 287.5 c 128,-1,24
 215 279 215 279 207 273 c 1,25,-1
 207 103 l 2,26,27
 207 67 207 67 183.5 25 c 128,-1,28
 160 -17 160 -17 116 -17 c 2,29,-1
 108 -17 l 1,30,-1
 108 153 l 2,31,32
 108 251 108 251 86 284 c 0,33,34
 66 314 66 314 44 314 c 128,-1,0
 22 314 22 314 22 327.5 c 128,-1,1
EndSplineSet
EndChar

StartChar: uni0411
Encoding: 1041 1041 208
Width: 661
VWidth: -14
Flags: W
HStem: -31 65<288.316 467.041> -27 44<26.0547 116.069> 363 66<316.888 456.467> 537 55<34.705 149.39> 562 60<287.505 559.401>
VStem: 141 135<51.0376 281.207> 158 120<51.0376 328.688 397 533.444> 531 102<91.7283 265.85> 567 59<485.361 546.652>
LayerCount: 2
Back
Fore
SplineSet
368 34 m 0,0,1
 441 34 441 34 486 68 c 128,-1,2
 531 102 531 102 531 170.5 c 128,-1,3
 531 239 531 239 491.5 301 c 128,-1,4
 452 363 452 363 396 363 c 0,5,6
 354 363 354 363 333 351 c 0,7,8
 303 334 303 334 288 317 c 0,9,10
 280 308 280 308 278 307 c 1,11,-1
 276 66 l 1,12,13
 287 55 287 55 312 44.5 c 128,-1,14
 337 34 337 34 368 34 c 0,0,1
354 622 m 3,15,16
 438 622 438 622 532 607.5 c 128,-1,17
 626 593 626 593 626 576 c 0,18,19
 626 496 626 496 618.5 485 c 128,-1,20
 611 474 611 474 597 474 c 128,-1,21
 583 474 583 474 575 492 c 128,-1,22
 567 510 567 510 567 528 c 0,23,24
 567 562 567 562 360 562 c 0,25,26
 293 562 293 562 279 526 c 1,27,-1
 278 397 l 1,28,29
 281 398 281 398 301 408 c 0,30,31
 346 429 346 429 418 429 c 3,32,33
 469 428 469 428 520 386 c 128,-1,34
 571 344 571 344 602 284.5 c 128,-1,35
 633 225 633 225 633 173 c 0,36,37
 633 77 633 77 559 23 c 128,-1,38
 485 -31 485 -31 380 -31 c 0,39,40
 319 -31 319 -31 281 -15.5 c 128,-1,41
 243 0 243 0 223 0 c 0,42,43
 174 0 174 0 134 -13.5 c 128,-1,44
 94 -27 94 -27 45 -27 c 0,45,46
 26 -27 26 -27 26 -3 c 0,47,48
 26 17 26 17 40 17 c 0,49,50
 69 17 69 17 104.5 33 c 128,-1,51
 140 49 140 49 141 59 c 0,52,53
 158 195 158 195 158 284 c 0,54,55
 158 502 158 502 151 525 c 0,56,57
 149 533 149 533 129.5 535 c 128,-1,58
 110 537 110 537 55 537 c 0,59,60
 41 537 41 537 34.5 547 c 128,-1,61
 28 557 28 557 28 568 c 128,-1,62
 28 579 28 579 34 585.5 c 128,-1,63
 40 592 40 592 47 592 c 128,-1,64
 54 592 54 592 95 599 c 0,65,66
 230 622 230 622 354 622 c 3,15,16
EndSplineSet
EndChar

StartChar: uni0413
Encoding: 1043 1043 209
Width: 508
VWidth: -17
Flags: W
HStem: -8 21G<385.5 405> -5 48<47.4067 113.438 232.097 394.369> 520 82<38.7322 116> 534 80<226 443.195>
VStem: 116 110<56.3643 519.237> 451 52<472.321 532.741>
LayerCount: 2
Back
Fore
SplineSet
116 78 m 1048,0,-1
184 7 m 1,1,-1
 34 -5 l 1,2,3
 34 18 34 18 47 29.5 c 128,-1,4
 60 41 60 41 75 43 c 0,5,6
 116 50 116 50 116 78 c 2,7,-1
 116 515 l 2,8,9
 116 520 116 520 58 520 c 1,10,11
 37 541 37 541 31 556.5 c 128,-1,12
 25 572 25 572 23 602 c 1,13,14
 50 602 50 602 188.5 608 c 128,-1,15
 327 614 327 614 412 614 c 0,16,17
 458 614 458 614 480.5 592 c 128,-1,18
 503 570 503 570 503 526 c 128,-1,19
 503 482 503 482 489 472 c 128,-1,20
 475 462 475 462 451 462 c 1,21,22
 448 534 448 534 424 534 c 3,23,24
 359 534 359 534 293 529 c 128,-1,25
 227 524 227 524 226 515 c 1,26,-1
 226 78 l 2,27,28
 226 61 226 61 256 54 c 128,-1,29
 286 47 286 47 330.5 42 c 128,-1,30
 375 37 375 37 395 26 c 0,31,32
 405 21 405 21 405 -8 c 1,33,34
 366 -8 366 -8 288.5 -0.5 c 128,-1,35
 211 7 211 7 184 7 c 1,1,-1
EndSplineSet
EndChar

StartChar: uni041F
Encoding: 1055 1055 210
Width: 812
VWidth: -15
Flags: W
HStem: -22 63<41.1375 149.044> -8 60<264 429.678> 549 87<63.2693 144.021 666.664 760.841> 549 77<264 561 665 760.841>
VStem: 151 113<57.5 549> 555 111<56.2812 549>
LayerCount: 2
Back
Fore
SplineSet
38 636 m 1,0,-1
 197 626 l 1,1,-1
 616 626 l 2,2,3
 642 626 642 626 714.5 636.5 c 128,-1,4
 787 647 787 647 792 647 c 2,5,-1
 801 647 l 1,6,-1
 801 639 l 2,7,8
 801 586 801 586 754 568 c 0,9,10
 720 555 720 555 665 549 c 1,11,12
 666 156 666 156 666 74 c 0,13,14
 666 56 666 56 734 46 c 0,15,16
 760 42 760 42 781.5 27.5 c 128,-1,17
 803 13 803 13 803 -11 c 2,18,-1
 803 -21 l 1,19,20
 684 -4 684 -4 616 -4 c 0,21,22
 601 -4 601 -4 580 -11.5 c 128,-1,23
 559 -19 559 -19 533 -19 c 2,24,-1
 525 -19 l 1,25,-1
 525 -10 l 2,26,27
 525 38 525 38 540 43 c 128,-1,28
 555 48 555 48 555 72 c 0,29,30
 555 129 555 129 561 549 c 1,31,-1
 264 549 l 1,32,-1
 264 72 l 2,33,34
 264 58 264 58 315.5 52 c 128,-1,35
 367 46 367 46 418.5 34 c 128,-1,36
 470 22 470 22 470 -10 c 2,37,-1
 470 -19 l 1,38,-1
 463 -19 l 1,39,40
 279 -8 279 -8 229 -8 c 128,-1,41
 179 -8 179 -8 126 -15 c 128,-1,42
 73 -22 73 -22 38 -22 c 2,43,-1
 30 -22 l 1,44,-1
 30 -14 l 2,45,46
 30 12 30 12 49 25.5 c 128,-1,47
 68 39 68 39 90 41 c 0,48,49
 150 46 150 46 151 67 c 2,50,-1
 158 549 l 1,51,52
 147 552 147 552 125 555.5 c 128,-1,53
 103 559 103 559 89 562.5 c 128,-1,54
 75 566 75 566 60 573 c 0,55,56
 30 587 30 587 30 627 c 2,57,-1
 30 636 l 1,58,-1
 38 636 l 1,0,-1
EndSplineSet
EndChar

StartChar: uni0423
Encoding: 1059 1059 211
Width: 546
VWidth: 8
Flags: W
VStem: 442 105<581.856 632.03>
DStem2: 180 540.5 40 612 0.416277 -0.909238<-43.2393 273.443>
LayerCount: 2
Back
Fore
SplineSet
14 -1 m 1,0,-1
 17 35 l 1,1,2
 153 118 153 118 218 229 c 1,3,4
 76 514 76 514 40 612 c 2,5,-1
 28 644 l 5,6,-1
 190 645 l 1,7,8
 190 628 190 628 178.5 611.5 c 128,-1,9
 167 595 167 595 167 582.5 c 128,-1,10
 167 570 167 570 180 540.5 c 128,-1,11
 193 511 193 511 231.5 436.5 c 128,-1,12
 270 362 270 362 302 293 c 1,13,14
 384 388 384 388 417 448 c 128,-1,15
 450 508 450 508 466 580 c 1,16,17
 442 610 442 610 442 621 c 1,18,19
 461 633 461 633 499 644 c 1,20,-1
 547 652 l 1,21,22
 547 546 547 546 484 419 c 128,-1,23
 421 292 421 292 309 167 c 0,24,25
 159 0 159 0 123 0 c 2,26,-1
 14 -1 l 1,0,-1
EndSplineSet
EndChar

StartChar: uni0414
Encoding: 1044 1044 212
Width: 603
VWidth: 0
Flags: W
HStem: 18 66<145 414 499 530> 534 128<240.997 335.746> 556 46<510.314 575.793>
VStem: 61 84<84.5615 338.203> 414 85<84 507.951> 530 73<-58.6439 18>
LayerCount: 2
Back
Fore
SplineSet
145 84 m 1,0,-1
 414 82 l 1,1,-1
 411 484 l 2,2,3
 411 503 411 503 368.5 518.5 c 128,-1,4
 326 534 326 534 289 534 c 0,5,6
 231 534 231 534 188.5 420 c 128,-1,7
 146 306 146 306 145 84 c 1,0,-1
498 511 m 2,8,-1
 499 84 l 1,9,10
 578 82 578 82 590.5 72.5 c 128,-1,11
 603 63 603 63 603 49 c 0,12,13
 603 -26 603 -26 599 -43 c 128,-1,14
 595 -60 595 -60 568.5 -60 c 128,-1,15
 542 -60 542 -60 537 -49.5 c 128,-1,16
 532 -39 532 -39 530 18 c 1,17,-1
 128 18 l 1,18,19
 119 -12 119 -12 88 -35 c 128,-1,20
 57 -58 57 -58 39.5 -58 c 128,-1,21
 22 -58 22 -58 19 -53.5 c 128,-1,22
 16 -49 16 -49 16 -30 c 0,23,24
 16 31 16 31 38 80 c 0,25,26
 60 128 60 128 61 204 c 0,27,28
 61 370 61 370 106 508 c 0,29,30
 129 578 129 578 171 620 c 128,-1,31
 213 662 213 662 270 662 c 3,32,33
 296 662 296 662 357 629 c 0,34,35
 415 597 415 597 426 596 c 2,36,37
 523 602 l 1,38,39
 576 602 576 602 576 577 c 0,40,41
 576 556 576 556 537 556 c 3,42,43
 520 556 520 556 510 548 c 0,44,45
 498 538 498 538 498 511 c 2,8,-1
EndSplineSet
EndChar

StartChar: uni0416
Encoding: 1046 1046 213
Width: 861
VWidth: -15
Flags: W
HStem: -20 55<336.829 393.512 490 562.061> -20 44<46.0879 97.9858 326.094 391.875 786.014 837.912> 596 50<77.3125 105.165 333.202 393.675 490.793 547.547 776.734 811.938>
VStem: 394 96<39.1748 302.084 370 596.438>
DStem2: 166.5 589.5 229 452 0.694493 -0.719499<-72.4342 231.891> 673 259.5 624 143 0.445793 -0.895136<-109.831 272.447>
LayerCount: 2
Back
Fore
SplineSet
360 35 m 0,0,1
 394 35 394 35 394 54 c 2,2,-1
 394 242 l 2,3,4
 394 262 394 262 383 284 c 128,-1,5
 372 306 372 306 365 306 c 0,6,7
 345 306 345 306 303 224.5 c 128,-1,8
 261 143 261 143 216.5 61.5 c 128,-1,9
 172 -20 172 -20 146 -20 c 0,10,11
 117 -20 117 -20 81.5 -14.5 c 128,-1,12
 46 -9 46 -9 46 0.5 c 128,-1,13
 46 10 46 10 56 17 c 128,-1,14
 66 24 66 24 75 24 c 0,15,16
 90 24 90 24 127 95.5 c 128,-1,17
 164 167 164 167 211 259.5 c 128,-1,18
 258 352 258 352 289 386 c 1,19,20
 276 398 276 398 229 452 c 0,21,22
 114 583 114 583 67 596 c 1,23,-1
 67 602 l 2,24,25
 67 626 67 626 77 636 c 128,-1,26
 87 646 87 646 97 646 c 128,-1,27
 107 646 107 646 166.5 589.5 c 128,-1,28
 226 533 226 533 297.5 461.5 c 128,-1,29
 369 390 369 390 394 370 c 1,30,-1
 394 577 l 2,31,32
 394 597 394 597 363.5 597 c 128,-1,33
 333 597 333 597 333 622 c 0,34,35
 333 643 333 643 356 643 c 0,36,37
 366 643 366 643 395.5 636 c 128,-1,38
 425 629 425 629 442.5 629 c 128,-1,39
 460 629 460 629 489 635 c 128,-1,40
 518 641 518 641 527 641 c 0,41,42
 548 641 548 641 548 622.5 c 128,-1,43
 548 604 548 604 519 598 c 128,-1,44
 490 592 490 592 490 582 c 2,45,-1
 490 370 l 1,46,47
 514 390 514 390 586 462 c 0,48,49
 770 646 770 646 790 646 c 0,50,51
 802 646 802 646 808 634 c 0,52,53
 814 620 814 620 816 608 c 2,54,-1
 817 596 l 1,55,56
 770 584 770 584 655 452 c 0,57,58
 608 398 608 398 595 386 c 1,59,60
 626 352 626 352 673 259.5 c 128,-1,61
 720 167 720 167 757 95.5 c 128,-1,62
 794 24 794 24 809 24 c 0,63,64
 818 24 818 24 828 17 c 128,-1,65
 838 10 838 10 838 0.5 c 128,-1,66
 838 -9 838 -9 803 -14.5 c 128,-1,67
 768 -20 768 -20 739 -20 c 0,68,69
 718 -20 718 -20 686 31 c 0,70,71
 652 82 652 82 624 143 c 0,72,73
 548 306 548 306 519 306 c 0,74,75
 512 306 512 306 501 284 c 128,-1,76
 490 262 490 262 490 242 c 2,77,-1
 490 54 l 2,78,79
 490 42 490 42 527 36 c 0,80,81
 541 34 541 34 552.5 25 c 128,-1,82
 564 16 564 16 564 2 c 0,83,84
 564 -16 564 -16 542 -16 c 1,85,-1
 443 -8 l 1,86,87
 425 -8 425 -8 392.5 -14 c 128,-1,88
 360 -20 360 -20 350 -20 c 0,89,90
 326 -20 326 -20 326 -1 c 128,-1,91
 326 18 326 18 336.5 26.5 c 128,-1,92
 347 35 347 35 360 35 c 0,0,1
EndSplineSet
EndChar

StartChar: uni0417
Encoding: 1047 1047 214
Width: 569
VWidth: -13
Flags: W
HStem: -28 64<221.934 376.333> 563 78<196.213 330.303>
VStem: 28 52<-34.2407 44.9648> 72 53<393.933 471> 370 144<423.813 526.386> 414 127<84.3645 273.389>
DStem2: 134.5 110 91 51 0.880128 -0.474736<-9.75933 180.62>
LayerCount: 2
Back
Fore
SplineSet
125 471 m 1,0,1
 125 393 125 393 97 393 c 0,2,3
 84 393 84 393 78 423.5 c 128,-1,4
 72 454 72 454 72 481 c 2,5,-1
 72 553 l 1,6,7
 84 563 84 563 105.5 577.5 c 128,-1,8
 127 592 127 592 185.5 616.5 c 128,-1,9
 244 641 244 641 294 641 c 0,10,11
 378 641 378 641 446 596 c 128,-1,12
 514 551 514 551 514 492 c 0,13,14
 514 444 514 444 482 413 c 0,15,16
 454 388 454 388 430 376 c 2,17,-1
 421 371 l 1,18,19
 466 362 466 362 503.5 312 c 128,-1,20
 541 262 541 262 541 192 c 0,21,22
 541 89 541 89 480 30.5 c 128,-1,23
 419 -28 419 -28 301 -28 c 0,24,25
 271 -28 271 -28 234.5 -17 c 128,-1,26
 198 -6 198 -6 173.5 6.5 c 128,-1,27
 149 19 149 19 121.5 34.5 c 128,-1,28
 94 50 94 50 91 51 c 0,29,30
 86 44 86 44 80 20 c 0,31,32
 64 -39 64 -39 49 -39 c 0,33,34
 40 -39 40 -39 34 -33 c 128,-1,35
 28 -27 28 -27 28 -20 c 0,36,37
 28 4 28 4 68 80 c 1,38,-1
 100 138 l 1,39,40
 113 127 113 127 134.5 110 c 128,-1,41
 156 93 156 93 209.5 64.5 c 128,-1,42
 263 36 263 36 301 36 c 0,43,44
 364 36 364 36 389 71 c 128,-1,45
 414 106 414 106 414 199 c 0,46,47
 414 228 414 228 401 256 c 128,-1,48
 388 284 388 284 370 302 c 0,49,50
 332 340 332 340 301 354 c 2,51,-1
 288 361 l 5,52,53
 297 368 297 368 310.5 379 c 128,-1,54
 324 390 324 390 347 421.5 c 128,-1,55
 370 453 370 453 370 482.5 c 128,-1,56
 370 512 370 512 335 537.5 c 128,-1,57
 300 563 300 563 264 563 c 128,-1,58
 228 563 228 563 195 540 c 128,-1,59
 162 517 162 517 144 494 c 2,60,-1
 125 471 l 1,0,1
EndSplineSet
EndChar

StartChar: uni041B
Encoding: 1051 1051 215
Width: 689
VWidth: 0
Flags: W
HStem: -72 72<60.579 122.94> 0 63<406.246 496 574 674.449> 545 117<333.197 421.561> 554 48<588.438 661.67>
VStem: 147 94<26.4258 344.76> 496 78<63 520.722>
LayerCount: 2
Back
Fore
SplineSet
608 602 m 1,0,1
 662 602 662 602 662 576 c 0,2,3
 662 554 662 554 618 554 c 3,4,5
 602 554 602 554 588 546 c 0,6,7
 574 536 574 536 574 509 c 2,8,-1
 574 63 l 1,9,10
 683 60 683 60 683 28 c 0,11,12
 683 18 683 18 675 12 c 0,13,14
 658 0 658 0 558.5 0 c 128,-1,15
 459 0 459 0 431.5 5.5 c 128,-1,16
 404 11 404 11 404 34 c 0,17,18
 404 52 404 52 427 57.5 c 128,-1,19
 450 63 450 63 496 63 c 1,20,-1
 496 484 l 2,21,22
 496 514 496 514 457.5 529.5 c 128,-1,23
 419 545 419 545 378 545 c 0,24,25
 321 545 321 545 281 425 c 128,-1,26
 241 305 241 305 241 83 c 3,27,28
 241 12 241 12 199 -30 c 128,-1,29
 157 -72 157 -72 108 -72 c 128,-1,30
 59 -72 59 -72 38.5 -47 c 128,-1,31
 18 -22 18 -22 18 -3 c 128,-1,32
 18 16 18 16 24.5 33 c 128,-1,33
 31 50 31 50 44 50 c 0,34,35
 49 50 49 50 53 37.5 c 128,-1,36
 57 25 57 25 67.5 12.5 c 128,-1,37
 78 0 78 0 99 0 c 0,38,39
 123 0 123 0 135 64 c 128,-1,40
 147 128 147 128 147 204 c 0,41,42
 147 370 147 370 192 508 c 0,43,44
 215 578 215 578 257 620 c 128,-1,45
 299 662 299 662 356 662 c 0,46,47
 382 662 382 662 442.5 629 c 128,-1,48
 503 596 503 596 512 596 c 2,49,-1
 608 602 l 1,0,1
EndSplineSet
EndChar

StartChar: uni0424
Encoding: 1060 1060 216
Width: 743
VWidth: -14
Flags: W
HStem: -17 50<210.643 322.066 441.55 554.357> 148 56<147.57 264.915 499.363 615.493> 571 81<181.812 296.763 463.873 581.306>
VStem: 29 84<300.889 498.063> 323 117<53 180 250.266 548.838> 651 83<300.889 496.438>
LayerCount: 2
Back
Fore
SplineSet
253 571 m 0,0,1
 195 571 195 571 154 524.5 c 128,-1,2
 113 478 113 478 113 409 c 0,3,4
 113 204 113 204 189 204 c 0,5,6
 229 204 229 204 267.5 227.5 c 128,-1,7
 306 251 306 251 323 270 c 1,8,-1
 323 527 l 1,9,10
 313 540 313 540 292 555.5 c 128,-1,11
 271 571 271 571 253 571 c 0,0,1
483 -7.5 m 128,-1,13
 441 3 441 3 382.5 3 c 131,-1,14
 324 3 324 3 282.5 -7 c 128,-1,15
 241 -17 241 -17 228 -17 c 128,-1,16
 215 -17 215 -17 210.5 -8.5 c 128,-1,17
 206 0 206 0 206 9 c 128,-1,18
 206 18 206 18 210.5 25.5 c 128,-1,19
 215 33 215 33 224.5 33 c 128,-1,20
 234 33 234 33 264.5 43 c 128,-1,21
 295 53 295 53 323 53 c 1,22,-1
 323 180 l 1,23,24
 321 180 321 180 304 170 c 0,25,26
 266 148 266 148 204.5 148 c 128,-1,27
 143 148 143 148 86 235 c 128,-1,28
 29 322 29 322 29 413.5 c 128,-1,29
 29 505 29 505 88 578.5 c 128,-1,30
 147 652 147 652 229 652 c 0,31,32
 267 652 267 652 292.5 633 c 128,-1,33
 318 614 318 614 337.5 595 c 128,-1,34
 357 576 357 576 379 576 c 128,-1,35
 401 576 401 576 418 588 c 128,-1,36
 435 600 435 600 446.5 614 c 128,-1,37
 458 628 458 628 481 640 c 128,-1,38
 504 652 504 652 534 652 c 0,39,40
 616 652 616 652 675 578.5 c 128,-1,41
 734 505 734 505 734 413.5 c 128,-1,42
 734 322 734 322 677 235 c 128,-1,43
 620 148 620 148 557 148 c 0,44,45
 497 148 497 148 459 170 c 0,46,47
 442 180 442 180 440 180 c 1,48,-1
 440 53 l 1,49,50
 469 53 469 53 500 42.5 c 128,-1,51
 531 32 531 32 540.5 32 c 128,-1,52
 550 32 550 32 554.5 24.5 c 128,-1,53
 559 17 559 17 559 8 c 128,-1,54
 559 -1 559 -1 554.5 -9.5 c 128,-1,55
 550 -18 550 -18 537.5 -18 c 128,-1,12
 525 -18 525 -18 483 -7.5 c 128,-1,13
510 571 m 0,56,57
 492 571 492 571 471 555.5 c 128,-1,58
 450 540 450 540 440 527 c 1,59,-1
 440 270 l 1,60,61
 465 242 465 242 505.5 223 c 128,-1,62
 546 204 546 204 574 204 c 0,63,64
 651 204 651 204 651 409 c 0,65,66
 651 477 651 477 609.5 524 c 128,-1,67
 568 571 568 571 510 571 c 0,56,57
EndSplineSet
EndChar

